  0
SECTION
  2
HEADER
  9
$ACADVER
  1
AC1009
  9
$INSBASE
 10
0.0
 20
0.0
 30
0.0
  9
$EXTMIN
 10
0.0
 20
0.0
 30
0.0
  9
$EXTMAX
 10
100.0
 20
100.0
 30
0.0
  9
$UNITMODE
 70
0
  9
$AUNITS
 70
0
  9
$ANGBASE
 50
0.0
  9
$ANGDIR
 70
0
  0
ENDSEC
  0
SECTION
  2
TABLES
  0
TABLE
  2
LTYPE
 70
19
  0
LTYPE
  2
CONTINUOUS
 70
0
  3
Solid
 72
65
 73
0
 40
0.0
  0
LTYPE
  2
CENTER
 70
0
  3
Center ____ _ ____ _ ____ _ ____ _ ____ _ ____
 72
65
 73
4
 40
2.0
 49
1.25
 49
-0.25
 49
0.25
 49
-0.25
  0
LTYPE
  2
CENTERX2
 70
0
  3
Center (2x) ________  __  ________  __  ________
 72
65
 73
4
 40
3.5
 49
2.5
 49
-0.25
 49
0.5
 49
-0.25
  0
LTYPE
  2
CENTER2
 70
0
  3
Center (.5x) ____ _ ____ _ ____ _ ____ _ ____
 72
65
 73
4
 40
1.0
 49
0.625
 49
-0.125
 49
0.125
 49
-0.125
  0
LTYPE
  2
DASHED
 70
0
  3
Dashed __ __ __ __ __ __ __ __ __ __ __ __ __ _
 72
65
 73
2
 40
0.6
 49
0.5
 49
-0.1
  0
LTYPE
  2
DASHEDX2
 70
0
  3
Dashed (2x) ____  ____  ____  ____  ____  ____
 72
65
 73
2
 40
1.2
 49
1.0
 49
-0.2
  0
LTYPE
  2
DASHED2
 70
0
  3
Dashed (.5x) _ _ _ _ _ _ _ _ _ _ _ _ _ _
 72
65
 73
2
 40
0.3
 49
0.25
 49
-0.05
  0
LTYPE
  2
PHANTOM
 70
0
  3
Phantom ______  __  __  ______  __  __  ______
 72
65
 73
6
 40
2.5
 49
1.25
 49
-0.25
 49
0.25
 49
-0.25
 49
0.25
 49
-0.25
  0
LTYPE
  2
PHANTOMX2
 70
0
  3
Phantom (2x)____________    ____    ____    ____________
 72
65
 73
6
 40
4.25
 49
2.5
 49
-0.25
 49
0.5
 49
-0.25
 49
0.5
 49
-0.25
  0
LTYPE
  2
PHANTOM2
 70
0
  3
Phantom (.5x) ___ _ _ ___ _ _ ___ _ _ ___ _ _ ___
 72
65
 73
6
 40
1.25
 49
0.625
 49
-0.125
 49
0.125
 49
-0.125
 49
0.125
 49
-0.125
  0
LTYPE
  2
DASHDOT
 70
0
  3
Dash dot __ . __ . __ . __ . __ . __ . __ . __
 72
65
 73
4
 40
1.4
 49
1.0
 49
-0.2
 49
0.0
 49
-0.2
  0
LTYPE
  2
DASHDOTX2
 70
0
  3
Dash dot (2x) ____  .  ____  .  ____  .  ____
 72
65
 73
4
 40
2.4
 49
2.0
 49
-0.2
 49
0.0
 49
-0.2
  0
LTYPE
  2
DASHDOT2
 70
0
  3
Dash dot (.5x) _ . _ . _ . _ . _ . _ . _ . _
 72
65
 73
4
 40
0.7
 49
0.5
 49
-0.1
 49
0.0
 49
-0.1
  0
LTYPE
  2
DOT
 70
0
  3
Dot .  .  .  .  .  .  .  .  .  .  .  .  .  .  .  .
 72
65
 73
2
 40
0.2
 49
0.0
 49
-0.2
  0
LTYPE
  2
DOTX2
 70
0
  3
Dot (2x) .    .    .    .    .    .    .    . 
 72
65
 73
2
 40
0.4
 49
0.0
 49
-0.4
  0
LTYPE
  2
DOT2
 70
0
  3
Dot (.5) . . . . . . . . . . . . . . . . . . . 
 72
65
 73
2
 40
0.1
 49
0.0
 49
-0.1
  0
LTYPE
  2
DIVIDE
 70
0
  3
Divide __ . . __ . . __ . . __ . . __ . . __
 72
65
 73
6
 40
1.6
 49
1.0
 49
-0.2
 49
0.0
 49
-0.2
 49
0.0
 49
-0.2
  0
LTYPE
  2
DIVIDEX2
 70
0
  3
Divide (2x) ____  . .  ____  . .  ____  . .  ____
 72
65
 73
6
 40
2.6
 49
2.0
 49
-0.2
 49
0.0
 49
-0.2
 49
0.0
 49
-0.2
  0
LTYPE
  2
DIVIDE2
 70
0
  3
Divide(.5x) _ . _ . _ . _ . _ . _ . _ . _
 72
65
 73
6
 40
0.8
 49
0.5
 49
-0.1
 49
0.0
 49
-0.1
 49
0.0
 49
-0.1
  0
ENDTAB
  0
TABLE
  2
LAYER
 70
5
  0
LAYER
  2
DIMENSIONS
 70
0
 62
1
  6
CONTINUOUS
  0
LAYER
  2
TABLEBACKGROUND
 70
0
 62
1
  6
CONTINUOUS
  0
LAYER
  2
TABLECONTENT
 70
0
 62
1
  6
CONTINUOUS
  0
LAYER
  2
TABLEGRID
 70
0
 62
1
  6
CONTINUOUS
  0
LAYER
  2
VIEWPORTS
 70
0
 62
7
  6
CONTINUOUS
  0
ENDTAB
  0
TABLE
  2
STYLE
 70
12
  0
STYLE
  2
STANDARD
 70
0
 40
0.0
 41
1.0
 42
1.0
 50
0.0
 71
0
  3
arial.ttf
  4

  0
STYLE
  2
ARIAL
 70
0
 40
0.0
 41
1.0
 42
1.0
 50
0.0
 71
0
  3
arial.ttf
  4

  0
STYLE
  2
ARIAL_BOLD
 70
0
 40
0.0
 41
1.0
 42
1.0
 50
0.0
 71
0
  3
arialbd.ttf
  4

  0
STYLE
  2
ARIAL_ITALIC
 70
0
 40
0.0
 41
1.0
 42
1.0
 50
0.0
 71
0
  3
ariali.ttf
  4

  0
STYLE
  2
ARIAL_BOLD_ITALIC
 70
0
 40
0.0
 41
1.0
 42
1.0
 50
0.0
 71
0
  3
arialbi.ttf
  4

  0
STYLE
  2
ARIAL_BLACK
 70
0
 40
0.0
 41
1.0
 42
1.0
 50
0.0
 71
0
  3
ariblk.ttf
  4

  0
STYLE
  2
ISOCPEUR
 70
0
 40
0.0
 41
1.0
 42
1.0
 50
0.0
 71
0
  3
isocpeur.ttf
  4

  0
STYLE
  2
ISOCPEUR_ITALIC
 70
0
 40
0.0
 41
1.0
 42
1.0
 50
0.0
 71
0
  3
isocpeui.ttf
  4

  0
STYLE
  2
TIMES
 70
0
 40
0.0
 41
1.0
 42
1.0
 50
0.0
 71
0
  3
times.ttf
  4

  0
STYLE
  2
TIMES_BOLD
 70
0
 40
0.0
 41
1.0
 42
1.0
 50
0.0
 71
0
  3
timesbd.ttf
  4

  0
STYLE
  2
TIMES_ITALIC
 70
0
 40
0.0
 41
1.0
 42
1.0
 50
0.0
 71
0
  3
timesi.ttf
  4

  0
STYLE
  2
TIMES_BOLD_ITALIC
 70
0
 40
0.0
 41
1.0
 42
1.0
 50
0.0
 71
0
  3
timesbi.ttf
  4

  0
ENDTAB
  0
TABLE
  2
VIEW
 70
0
  0
ENDTAB
  0
TABLE
  2
APPID
 70
1
  0
APPID
  2
DXFWRITE
 70
0
  0
ENDTAB
  0
TABLE
  2
VPORT
 70
0
  0
ENDTAB
  0
TABLE
  2
UCS
 70
0
  0
ENDTAB
  0
ENDSEC
  0
SECTION
  2
BLOCKS
  0
ENDSEC
  0
SECTION
  2
ENTITIES
  0
VIEWPORT
  8
VIEWPORTS
 67
1
 10
0.0
 20
0.0
 30
0.0
 40
1.0
 41
1.0
 68
1
 69
1
1001
ACAD
1000
MVIEW
1002
{
1070
16
1010
0.0
1020
0.0
1030
0.0
1010
0.0
1020
0.0
1030
0.0
1040
0.0
1040
1.0
1040
0.0
1040
0.0
1040
50.0
1040
0.0
1040
0.0
1070
0
1070
100
1070
1
1070
3
1070
0
1070
0
1070
0
1070
0
1040
0.0
1040
0.0
1040
0.0
1040
0.1
1040
0.1
1040
0.1
1040
0.1
1070
0
1002
{
1002
}
1002
}
  0
CIRCLE
  8
0
 10
128.5625
 20
96.6875
 30
0.0
 40
0.05
  0
CIRCLE
  8
0
 10
128.5625
 20
97.5625
 30
0.0
 40
0.05
  0
CIRCLE
  8
0
 10
128.5625
 20
98.53125
 30
0.0
 40
0.05
  0
CIRCLE
  8
0
 10
128.5625
 20
99.5
 30
0.0
 40
0.05
  0
CIRCLE
  8
0
 10
128.5625
 20
100.4375
 30
0.0
 40
0.05
  0
CIRCLE
  8
0
 10
128.5625
 20
101.40625
 30
0.0
 40
0.05
  0
CIRCLE
  8
0
 10
128.5625
 20
102.375
 30
0.0
 40
0.05
  0
CIRCLE
  8
0
 10
128.5625
 20
103.34375
 30
0.0
 40
0.05
  0
CIRCLE
  8
0
 10
128.5625
 20
104.3125
 30
0.0
 40
0.05
  0
CIRCLE
  8
0
 10
128.5625
 20
105.28125
 30
0.0
 40
0.05
  0
CIRCLE
  8
0
 10
128.5625
 20
106.25
 30
0.0
 40
0.05
  0
CIRCLE
  8
0
 10
128.5625
 20
107.21875
 30
0.0
 40
0.05
  0
CIRCLE
  8
0
 10
128.5625
 20
108.1875
 30
0.0
 40
0.05
  0
CIRCLE
  8
0
 10
128.5625
 20
109.15625
 30
0.0
 40
0.05
  0
CIRCLE
  8
0
 10
128.5625
 20
110.125
 30
0.0
 40
0.05
  0
CIRCLE
  8
0
 10
128.5625
 20
111.09375
 30
0.0
 40
0.05
  0
CIRCLE
  8
0
 10
128.5625
 20
112.0625
 30
0.0
 40
0.05
  0
CIRCLE
  8
0
 10
128.5625
 20
113.03125
 30
0.0
 40
0.05
  0
CIRCLE
  8
0
 10
128.5625
 20
114.0
 30
0.0
 40
0.05
  0
CIRCLE
  8
0
 10
128.5625
 20
114.96875
 30
0.0
 40
0.05
  0
CIRCLE
  8
0
 10
128.5625
 20
115.9375
 30
0.0
 40
0.05
  0
CIRCLE
  8
0
 10
128.5625
 20
116.90625
 30
0.0
 40
0.05
  0
CIRCLE
  8
0
 10
128.5625
 20
117.875
 30
0.0
 40
0.05
  0
CIRCLE
  8
0
 10
128.5625
 20
118.84375
 30
0.0
 40
0.05
  0
CIRCLE
  8
0
 10
128.5625
 20
119.8125
 30
0.0
 40
0.05
  0
CIRCLE
  8
0
 10
128.5625
 20
120.78125
 30
0.0
 40
0.05
  0
CIRCLE
  8
0
 10
128.5625
 20
122.0
 30
0.0
 40
0.05
  0
CIRCLE
  8
0
 10
128.5625
 20
123.28125
 30
0.0
 40
0.05
  0
CIRCLE
  8
0
 10
128.5625
 20
124.25
 30
0.0
 40
0.05
  0
CIRCLE
  8
0
 10
128.5625
 20
125.21875
 30
0.0
 40
0.05
  0
CIRCLE
  8
0
 10
128.5625
 20
126.21875
 30
0.0
 40
0.05
  0
CIRCLE
  8
0
 10
128.5625
 20
127.1875
 30
0.0
 40
0.05
  0
CIRCLE
  8
0
 10
127.75
 20
95.9375
 30
0.0
 40
0.05
  0
CIRCLE
  8
0
 10
127.6875
 20
96.84375
 30
0.0
 40
0.05
  0
CIRCLE
  8
0
 10
127.375
 20
97.625
 30
0.0
 40
0.05
  0
CIRCLE
  8
0
 10
127.75
 20
98.5
 30
0.0
 40
0.05
  0
CIRCLE
  8
0
 10
127.75
 20
99.46875
 30
0.0
 40
0.05
  0
CIRCLE
  8
0
 10
127.75
 20
100.4375
 30
0.0
 40
0.05
  0
CIRCLE
  8
0
 10
127.75
 20
101.40625
 30
0.0
 40
0.05
  0
CIRCLE
  8
0
 10
127.75
 20
102.375
 30
0.0
 40
0.05
  0
CIRCLE
  8
0
 10
127.75
 20
103.34375
 30
0.0
 40
0.05
  0
CIRCLE
  8
0
 10
127.75
 20
104.3125
 30
0.0
 40
0.05
  0
CIRCLE
  8
0
 10
127.75
 20
105.28125
 30
0.0
 40
0.05
  0
CIRCLE
  8
0
 10
127.75
 20
106.25
 30
0.0
 40
0.05
  0
CIRCLE
  8
0
 10
127.75
 20
107.21875
 30
0.0
 40
0.05
  0
CIRCLE
  8
0
 10
127.75
 20
108.1875
 30
0.0
 40
0.05
  0
CIRCLE
  8
0
 10
127.75
 20
109.15625
 30
0.0
 40
0.05
  0
CIRCLE
  8
0
 10
127.75
 20
110.125
 30
0.0
 40
0.05
  0
CIRCLE
  8
0
 10
127.75
 20
111.09375
 30
0.0
 40
0.05
  0
CIRCLE
  8
0
 10
127.75
 20
112.0625
 30
0.0
 40
0.05
  0
CIRCLE
  8
0
 10
127.75
 20
113.03125
 30
0.0
 40
0.05
  0
CIRCLE
  8
0
 10
127.75
 20
114.0
 30
0.0
 40
0.05
  0
CIRCLE
  8
0
 10
127.75
 20
114.96875
 30
0.0
 40
0.05
  0
CIRCLE
  8
0
 10
127.75
 20
115.9375
 30
0.0
 40
0.05
  0
CIRCLE
  8
0
 10
127.75
 20
116.90625
 30
0.0
 40
0.05
  0
CIRCLE
  8
0
 10
127.75
 20
117.875
 30
0.0
 40
0.05
  0
CIRCLE
  8
0
 10
127.75
 20
118.84375
 30
0.0
 40
0.05
  0
CIRCLE
  8
0
 10
127.75
 20
119.8125
 30
0.0
 40
0.05
  0
CIRCLE
  8
0
 10
127.75
 20
120.78125
 30
0.0
 40
0.05
  0
CIRCLE
  8
0
 10
127.75
 20
121.75
 30
0.0
 40
0.05
  0
CIRCLE
  8
0
 10
127.75
 20
122.71875
 30
0.0
 40
0.05
  0
CIRCLE
  8
0
 10
127.75
 20
123.6875
 30
0.0
 40
0.05
  0
CIRCLE
  8
0
 10
127.75
 20
125.21875
 30
0.0
 40
0.05
  0
CIRCLE
  8
0
 10
127.6875
 20
126.125
 30
0.0
 40
0.05
  0
CIRCLE
  8
0
 10
127.6875
 20
127.0
 30
0.0
 40
0.05
  0
CIRCLE
  8
0
 10
127.875
 20
127.90625
 30
0.0
 40
0.05
  0
CIRCLE
  8
0
 10
127.0
 20
95.125
 30
0.0
 40
0.05
  0
CIRCLE
  8
0
 10
126.875
 20
96.0
 30
0.0
 40
0.05
  0
CIRCLE
  8
0
 10
126.96875
 20
98.5
 30
0.0
 40
0.05
  0
CIRCLE
  8
0
 10
126.96875
 20
99.46875
 30
0.0
 40
0.05
  0
CIRCLE
  8
0
 10
126.96875
 20
100.4375
 30
0.0
 40
0.05
  0
CIRCLE
  8
0
 10
126.96875
 20
101.40625
 30
0.0
 40
0.05
  0
CIRCLE
  8
0
 10
126.96875
 20
102.375
 30
0.0
 40
0.05
  0
CIRCLE
  8
0
 10
126.96875
 20
103.34375
 30
0.0
 40
0.05
  0
CIRCLE
  8
0
 10
126.96875
 20
104.3125
 30
0.0
 40
0.05
  0
CIRCLE
  8
0
 10
126.96875
 20
105.28125
 30
0.0
 40
0.05
  0
CIRCLE
  8
0
 10
126.96875
 20
106.25
 30
0.0
 40
0.05
  0
CIRCLE
  8
0
 10
126.96875
 20
107.21875
 30
0.0
 40
0.05
  0
CIRCLE
  8
0
 10
126.96875
 20
108.1875
 30
0.0
 40
0.05
  0
CIRCLE
  8
0
 10
126.96875
 20
109.15625
 30
0.0
 40
0.05
  0
CIRCLE
  8
0
 10
126.96875
 20
110.125
 30
0.0
 40
0.05
  0
CIRCLE
  8
0
 10
126.96875
 20
111.09375
 30
0.0
 40
0.05
  0
CIRCLE
  8
0
 10
126.96875
 20
112.0625
 30
0.0
 40
0.05
  0
CIRCLE
  8
0
 10
126.96875
 20
113.03125
 30
0.0
 40
0.05
  0
CIRCLE
  8
0
 10
126.96875
 20
114.0
 30
0.0
 40
0.05
  0
CIRCLE
  8
0
 10
126.96875
 20
114.96875
 30
0.0
 40
0.05
  0
CIRCLE
  8
0
 10
126.96875
 20
115.9375
 30
0.0
 40
0.05
  0
CIRCLE
  8
0
 10
126.96875
 20
116.90625
 30
0.0
 40
0.05
  0
CIRCLE
  8
0
 10
126.96875
 20
117.875
 30
0.0
 40
0.05
  0
CIRCLE
  8
0
 10
126.96875
 20
118.84375
 30
0.0
 40
0.05
  0
CIRCLE
  8
0
 10
126.96875
 20
119.8125
 30
0.0
 40
0.05
  0
CIRCLE
  8
0
 10
126.96875
 20
120.78125
 30
0.0
 40
0.05
  0
CIRCLE
  8
0
 10
126.96875
 20
121.75
 30
0.0
 40
0.05
  0
CIRCLE
  8
0
 10
126.96875
 20
122.71875
 30
0.0
 40
0.05
  0
CIRCLE
  8
0
 10
126.96875
 20
123.6875
 30
0.0
 40
0.05
  0
CIRCLE
  8
0
 10
126.96875
 20
124.6875
 30
0.0
 40
0.05
  0
CIRCLE
  8
0
 10
126.84375
 20
126.0625
 30
0.0
 40
0.05
  0
CIRCLE
  8
0
 10
126.84375
 20
127.0
 30
0.0
 40
0.05
  0
CIRCLE
  8
0
 10
126.90625
 20
127.90625
 30
0.0
 40
0.05
  0
CIRCLE
  8
0
 10
126.125
 20
95.125
 30
0.0
 40
0.05
  0
CIRCLE
  8
0
 10
126.3125
 20
96.65625
 30
0.0
 40
0.05
  0
CIRCLE
  8
0
 10
126.53125
 20
97.46875
 30
0.0
 40
0.05
  0
CIRCLE
  8
0
 10
126.15625
 20
98.5
 30
0.0
 40
0.05
  0
CIRCLE
  8
0
 10
126.15625
 20
99.46875
 30
0.0
 40
0.05
  0
CIRCLE
  8
0
 10
126.15625
 20
100.4375
 30
0.0
 40
0.05
  0
CIRCLE
  8
0
 10
126.15625
 20
101.40625
 30
0.0
 40
0.05
  0
CIRCLE
  8
0
 10
126.15625
 20
102.375
 30
0.0
 40
0.05
  0
CIRCLE
  8
0
 10
126.15625
 20
103.34375
 30
0.0
 40
0.05
  0
CIRCLE
  8
0
 10
126.15625
 20
104.3125
 30
0.0
 40
0.05
  0
CIRCLE
  8
0
 10
126.15625
 20
105.28125
 30
0.0
 40
0.05
  0
CIRCLE
  8
0
 10
126.15625
 20
106.25
 30
0.0
 40
0.05
  0
CIRCLE
  8
0
 10
126.15625
 20
107.21875
 30
0.0
 40
0.05
  0
CIRCLE
  8
0
 10
126.15625
 20
108.1875
 30
0.0
 40
0.05
  0
CIRCLE
  8
0
 10
126.15625
 20
109.15625
 30
0.0
 40
0.05
  0
CIRCLE
  8
0
 10
126.15625
 20
110.125
 30
0.0
 40
0.05
  0
CIRCLE
  8
0
 10
126.15625
 20
111.09375
 30
0.0
 40
0.05
  0
CIRCLE
  8
0
 10
126.15625
 20
112.0625
 30
0.0
 40
0.05
  0
CIRCLE
  8
0
 10
126.15625
 20
113.03125
 30
0.0
 40
0.05
  0
CIRCLE
  8
0
 10
126.15625
 20
114.0
 30
0.0
 40
0.05
  0
CIRCLE
  8
0
 10
126.15625
 20
114.96875
 30
0.0
 40
0.05
  0
CIRCLE
  8
0
 10
126.15625
 20
115.9375
 30
0.0
 40
0.05
  0
CIRCLE
  8
0
 10
126.15625
 20
116.90625
 30
0.0
 40
0.05
  0
CIRCLE
  8
0
 10
126.15625
 20
117.875
 30
0.0
 40
0.05
  0
CIRCLE
  8
0
 10
126.15625
 20
118.84375
 30
0.0
 40
0.05
  0
CIRCLE
  8
0
 10
126.15625
 20
119.8125
 30
0.0
 40
0.05
  0
CIRCLE
  8
0
 10
126.15625
 20
120.78125
 30
0.0
 40
0.05
  0
CIRCLE
  8
0
 10
126.15625
 20
121.75
 30
0.0
 40
0.05
  0
CIRCLE
  8
0
 10
126.15625
 20
122.71875
 30
0.0
 40
0.05
  0
CIRCLE
  8
0
 10
126.15625
 20
123.6875
 30
0.0
 40
0.05
  0
CIRCLE
  8
0
 10
126.15625
 20
124.65625
 30
0.0
 40
0.05
  0
CIRCLE
  8
0
 10
126.28125
 20
125.46875
 30
0.0
 40
0.05
  0
CIRCLE
  8
0
 10
126.125
 20
126.625
 30
0.0
 40
0.05
  0
CIRCLE
  8
0
 10
125.96875
 20
127.90625
 30
0.0
 40
0.05
  0
CIRCLE
  8
0
 10
125.15625
 20
95.125
 30
0.0
 40
0.05
  0
CIRCLE
  8
0
 10
125.53125
 20
95.9375
 30
0.0
 40
0.05
  0
CIRCLE
  8
0
 10
125.53125
 20
96.71875
 30
0.0
 40
0.05
  0
CIRCLE
  8
0
 10
125.40625
 20
97.53125
 30
0.0
 40
0.05
  0
CIRCLE
  8
0
 10
125.375
 20
98.5
 30
0.0
 40
0.05
  0
CIRCLE
  8
0
 10
125.375
 20
99.46875
 30
0.0
 40
0.05
  0
CIRCLE
  8
0
 10
125.375
 20
100.4375
 30
0.0
 40
0.05
  0
CIRCLE
  8
0
 10
125.375
 20
101.40625
 30
0.0
 40
0.05
  0
CIRCLE
  8
0
 10
125.375
 20
102.375
 30
0.0
 40
0.05
  0
CIRCLE
  8
0
 10
125.375
 20
103.34375
 30
0.0
 40
0.05
  0
CIRCLE
  8
0
 10
125.375
 20
104.3125
 30
0.0
 40
0.05
  0
CIRCLE
  8
0
 10
125.375
 20
105.28125
 30
0.0
 40
0.05
  0
CIRCLE
  8
0
 10
125.375
 20
106.25
 30
0.0
 40
0.05
  0
CIRCLE
  8
0
 10
125.375
 20
107.21875
 30
0.0
 40
0.05
  0
CIRCLE
  8
0
 10
125.375
 20
108.1875
 30
0.0
 40
0.05
  0
CIRCLE
  8
0
 10
125.375
 20
109.15625
 30
0.0
 40
0.05
  0
CIRCLE
  8
0
 10
125.375
 20
110.125
 30
0.0
 40
0.05
  0
CIRCLE
  8
0
 10
125.375
 20
111.09375
 30
0.0
 40
0.05
  0
CIRCLE
  8
0
 10
125.375
 20
112.0625
 30
0.0
 40
0.05
  0
CIRCLE
  8
0
 10
125.375
 20
113.03125
 30
0.0
 40
0.05
  0
CIRCLE
  8
0
 10
125.375
 20
114.0
 30
0.0
 40
0.05
  0
CIRCLE
  8
0
 10
125.375
 20
114.96875
 30
0.0
 40
0.05
  0
CIRCLE
  8
0
 10
125.375
 20
115.9375
 30
0.0
 40
0.05
  0
CIRCLE
  8
0
 10
125.375
 20
116.90625
 30
0.0
 40
0.05
  0
CIRCLE
  8
0
 10
125.375
 20
117.875
 30
0.0
 40
0.05
  0
CIRCLE
  8
0
 10
125.375
 20
118.84375
 30
0.0
 40
0.05
  0
CIRCLE
  8
0
 10
125.375
 20
119.8125
 30
0.0
 40
0.05
  0
CIRCLE
  8
0
 10
125.375
 20
120.78125
 30
0.0
 40
0.05
  0
CIRCLE
  8
0
 10
125.375
 20
121.75
 30
0.0
 40
0.05
  0
CIRCLE
  8
0
 10
125.375
 20
122.71875
 30
0.0
 40
0.05
  0
CIRCLE
  8
0
 10
125.375
 20
123.6875
 30
0.0
 40
0.05
  0
CIRCLE
  8
0
 10
125.375
 20
124.65625
 30
0.0
 40
0.05
  0
CIRCLE
  8
0
 10
125.34375
 20
125.5
 30
0.0
 40
0.05
  0
CIRCLE
  8
0
 10
125.34375
 20
126.28125
 30
0.0
 40
0.05
  0
CIRCLE
  8
0
 10
125.34375
 20
127.09375
 30
0.0
 40
0.05
  0
CIRCLE
  8
0
 10
125.0
 20
127.90625
 30
0.0
 40
0.05
  0
CIRCLE
  8
0
 10
124.6875
 20
95.9375
 30
0.0
 40
0.05
  0
CIRCLE
  8
0
 10
124.6875
 20
96.71875
 30
0.0
 40
0.05
  0
CIRCLE
  8
0
 10
124.5625
 20
97.53125
 30
0.0
 40
0.05
  0
CIRCLE
  8
0
 10
124.53125
 20
98.5
 30
0.0
 40
0.05
  0
CIRCLE
  8
0
 10
124.53125
 20
99.46875
 30
0.0
 40
0.05
  0
CIRCLE
  8
0
 10
124.5625
 20
100.4375
 30
0.0
 40
0.05
  0
CIRCLE
  8
0
 10
124.5625
 20
101.40625
 30
0.0
 40
0.05
  0
CIRCLE
  8
0
 10
124.5625
 20
102.375
 30
0.0
 40
0.05
  0
CIRCLE
  8
0
 10
124.5625
 20
103.34375
 30
0.0
 40
0.05
  0
CIRCLE
  8
0
 10
124.5625
 20
104.3125
 30
0.0
 40
0.05
  0
CIRCLE
  8
0
 10
124.5625
 20
105.28125
 30
0.0
 40
0.05
  0
CIRCLE
  8
0
 10
124.5625
 20
106.25
 30
0.0
 40
0.05
  0
CIRCLE
  8
0
 10
124.5625
 20
107.21875
 30
0.0
 40
0.05
  0
CIRCLE
  8
0
 10
124.5625
 20
108.1875
 30
0.0
 40
0.05
  0
CIRCLE
  8
0
 10
124.5625
 20
109.15625
 30
0.0
 40
0.05
  0
CIRCLE
  8
0
 10
124.5625
 20
110.125
 30
0.0
 40
0.05
  0
CIRCLE
  8
0
 10
124.5625
 20
111.09375
 30
0.0
 40
0.05
  0
CIRCLE
  8
0
 10
124.5625
 20
112.0625
 30
0.0
 40
0.05
  0
CIRCLE
  8
0
 10
124.5625
 20
113.03125
 30
0.0
 40
0.05
  0
CIRCLE
  8
0
 10
124.5625
 20
114.0
 30
0.0
 40
0.05
  0
CIRCLE
  8
0
 10
124.5625
 20
114.96875
 30
0.0
 40
0.05
  0
CIRCLE
  8
0
 10
124.5625
 20
115.9375
 30
0.0
 40
0.05
  0
CIRCLE
  8
0
 10
124.5625
 20
116.90625
 30
0.0
 40
0.05
  0
CIRCLE
  8
0
 10
124.5625
 20
117.875
 30
0.0
 40
0.05
  0
CIRCLE
  8
0
 10
124.5625
 20
118.84375
 30
0.0
 40
0.05
  0
CIRCLE
  8
0
 10
124.5625
 20
119.8125
 30
0.0
 40
0.05
  0
CIRCLE
  8
0
 10
124.5625
 20
120.78125
 30
0.0
 40
0.05
  0
CIRCLE
  8
0
 10
124.5625
 20
121.75
 30
0.0
 40
0.05
  0
CIRCLE
  8
0
 10
124.5625
 20
122.71875
 30
0.0
 40
0.05
  0
CIRCLE
  8
0
 10
124.5625
 20
123.6875
 30
0.0
 40
0.05
  0
CIRCLE
  8
0
 10
124.375
 20
124.6875
 30
0.0
 40
0.05
  0
CIRCLE
  8
0
 10
124.375
 20
125.5
 30
0.0
 40
0.05
  0
CIRCLE
  8
0
 10
124.375
 20
126.28125
 30
0.0
 40
0.05
  0
CIRCLE
  8
0
 10
124.375
 20
127.09375
 30
0.0
 40
0.05
  0
CIRCLE
  8
0
 10
124.15625
 20
95.125
 30
0.0
 40
0.05
  0
CIRCLE
  8
0
 10
123.71875
 20
95.9375
 30
0.0
 40
0.05
  0
CIRCLE
  8
0
 10
123.71875
 20
96.71875
 30
0.0
 40
0.05
  0
CIRCLE
  8
0
 10
123.71875
 20
97.53125
 30
0.0
 40
0.05
  0
CIRCLE
  8
0
 10
123.71875
 20
98.34375
 30
0.0
 40
0.05
  0
CIRCLE
  8
0
 10
123.71875
 20
99.125
 30
0.0
 40
0.05
  0
CIRCLE
  8
0
 10
123.75
 20
100.4375
 30
0.0
 40
0.05
  0
CIRCLE
  8
0
 10
123.75
 20
101.40625
 30
0.0
 40
0.05
  0
CIRCLE
  8
0
 10
123.75
 20
102.375
 30
0.0
 40
0.05
  0
CIRCLE
  8
0
 10
123.75
 20
103.34375
 30
0.0
 40
0.05
  0
CIRCLE
  8
0
 10
123.75
 20
104.3125
 30
0.0
 40
0.05
  0
CIRCLE
  8
0
 10
123.75
 20
105.28125
 30
0.0
 40
0.05
  0
CIRCLE
  8
0
 10
123.75
 20
106.25
 30
0.0
 40
0.05
  0
CIRCLE
  8
0
 10
123.75
 20
107.21875
 30
0.0
 40
0.05
  0
CIRCLE
  8
0
 10
123.75
 20
108.1875
 30
0.0
 40
0.05
  0
CIRCLE
  8
0
 10
123.75
 20
109.15625
 30
0.0
 40
0.05
  0
CIRCLE
  8
0
 10
123.75
 20
110.125
 30
0.0
 40
0.05
  0
CIRCLE
  8
0
 10
123.75
 20
111.09375
 30
0.0
 40
0.05
  0
CIRCLE
  8
0
 10
123.75
 20
112.0625
 30
0.0
 40
0.05
  0
CIRCLE
  8
0
 10
123.75
 20
113.03125
 30
0.0
 40
0.05
  0
CIRCLE
  8
0
 10
123.75
 20
114.0
 30
0.0
 40
0.05
  0
CIRCLE
  8
0
 10
123.75
 20
114.96875
 30
0.0
 40
0.05
  0
CIRCLE
  8
0
 10
123.75
 20
115.9375
 30
0.0
 40
0.05
  0
CIRCLE
  8
0
 10
123.75
 20
116.90625
 30
0.0
 40
0.05
  0
CIRCLE
  8
0
 10
123.75
 20
117.875
 30
0.0
 40
0.05
  0
CIRCLE
  8
0
 10
123.75
 20
118.84375
 30
0.0
 40
0.05
  0
CIRCLE
  8
0
 10
123.75
 20
119.8125
 30
0.0
 40
0.05
  0
CIRCLE
  8
0
 10
123.75
 20
120.78125
 30
0.0
 40
0.05
  0
CIRCLE
  8
0
 10
123.75
 20
121.75
 30
0.0
 40
0.05
  0
CIRCLE
  8
0
 10
124.03125
 20
127.90625
 30
0.0
 40
0.05
  0
CIRCLE
  8
0
 10
123.09375
 20
95.125
 30
0.0
 40
0.05
  0
CIRCLE
  8
0
 10
122.96875
 20
103.34375
 30
0.0
 40
0.05
  0
CIRCLE
  8
0
 10
122.96875
 20
104.3125
 30
0.0
 40
0.05
  0
CIRCLE
  8
0
 10
122.90625
 20
105.28125
 30
0.0
 40
0.05
  0
CIRCLE
  8
0
 10
122.90625
 20
106.25
 30
0.0
 40
0.05
  0
CIRCLE
  8
0
 10
122.90625
 20
107.21875
 30
0.0
 40
0.05
  0
CIRCLE
  8
0
 10
122.90625
 20
108.1875
 30
0.0
 40
0.05
  0
CIRCLE
  8
0
 10
122.90625
 20
109.15625
 30
0.0
 40
0.05
  0
CIRCLE
  8
0
 10
122.90625
 20
110.125
 30
0.0
 40
0.05
  0
CIRCLE
  8
0
 10
122.90625
 20
111.09375
 30
0.0
 40
0.05
  0
CIRCLE
  8
0
 10
122.90625
 20
112.0625
 30
0.0
 40
0.05
  0
CIRCLE
  8
0
 10
122.90625
 20
113.03125
 30
0.0
 40
0.05
  0
CIRCLE
  8
0
 10
122.90625
 20
114.0
 30
0.0
 40
0.05
  0
CIRCLE
  8
0
 10
122.90625
 20
114.96875
 30
0.0
 40
0.05
  0
CIRCLE
  8
0
 10
122.90625
 20
115.9375
 30
0.0
 40
0.05
  0
CIRCLE
  8
0
 10
122.90625
 20
116.90625
 30
0.0
 40
0.05
  0
CIRCLE
  8
0
 10
122.90625
 20
117.875
 30
0.0
 40
0.05
  0
CIRCLE
  8
0
 10
122.90625
 20
118.84375
 30
0.0
 40
0.05
  0
CIRCLE
  8
0
 10
122.90625
 20
119.8125
 30
0.0
 40
0.05
  0
CIRCLE
  8
0
 10
122.96875
 20
120.78125
 30
0.0
 40
0.05
  0
CIRCLE
  8
0
 10
122.96875
 20
121.71875
 30
0.0
 40
0.05
  0
CIRCLE
  8
0
 10
123.40625
 20
123.09375
 30
0.0
 40
0.05
  0
CIRCLE
  8
0
 10
123.40625
 20
123.90625
 30
0.0
 40
0.05
  0
CIRCLE
  8
0
 10
123.40625
 20
124.6875
 30
0.0
 40
0.05
  0
CIRCLE
  8
0
 10
123.40625
 20
125.5
 30
0.0
 40
0.05
  0
CIRCLE
  8
0
 10
123.40625
 20
126.28125
 30
0.0
 40
0.05
  0
CIRCLE
  8
0
 10
123.40625
 20
127.09375
 30
0.0
 40
0.05
  0
CIRCLE
  8
0
 10
122.71875
 20
95.9375
 30
0.0
 40
0.05
  0
CIRCLE
  8
0
 10
122.71875
 20
96.71875
 30
0.0
 40
0.05
  0
CIRCLE
  8
0
 10
122.71875
 20
97.53125
 30
0.0
 40
0.05
  0
CIRCLE
  8
0
 10
122.71875
 20
98.34375
 30
0.0
 40
0.05
  0
CIRCLE
  8
0
 10
122.71875
 20
99.125
 30
0.0
 40
0.05
  0
CIRCLE
  8
0
 10
122.875
 20
99.9375
 30
0.0
 40
0.05
  0
CIRCLE
  8
0
 10
122.75
 20
100.71875
 30
0.0
 40
0.05
  0
CIRCLE
  8
0
 10
122.78125
 20
101.53125
 30
0.0
 40
0.05
  0
CIRCLE
  8
0
 10
122.875
 20
102.375
 30
0.0
 40
0.05
  0
CIRCLE
  8
0
 10
122.09375
 20
106.25
 30
0.0
 40
0.05
  0
CIRCLE
  8
0
 10
122.09375
 20
107.21875
 30
0.0
 40
0.05
  0
CIRCLE
  8
0
 10
122.09375
 20
108.1875
 30
0.0
 40
0.05
  0
CIRCLE
  8
0
 10
122.09375
 20
109.15625
 30
0.0
 40
0.05
  0
CIRCLE
  8
0
 10
122.09375
 20
110.125
 30
0.0
 40
0.05
  0
CIRCLE
  8
0
 10
122.09375
 20
111.09375
 30
0.0
 40
0.05
  0
CIRCLE
  8
0
 10
122.09375
 20
112.0625
 30
0.0
 40
0.05
  0
CIRCLE
  8
0
 10
122.09375
 20
113.03125
 30
0.0
 40
0.05
  0
CIRCLE
  8
0
 10
122.09375
 20
114.0
 30
0.0
 40
0.05
  0
CIRCLE
  8
0
 10
122.09375
 20
114.96875
 30
0.0
 40
0.05
  0
CIRCLE
  8
0
 10
122.09375
 20
115.9375
 30
0.0
 40
0.05
  0
CIRCLE
  8
0
 10
122.09375
 20
116.90625
 30
0.0
 40
0.05
  0
CIRCLE
  8
0
 10
122.09375
 20
117.875
 30
0.0
 40
0.05
  0
CIRCLE
  8
0
 10
122.09375
 20
118.84375
 30
0.0
 40
0.05
  0
CIRCLE
  8
0
 10
122.09375
 20
119.8125
 30
0.0
 40
0.05
  0
CIRCLE
  8
0
 10
122.1875
 20
121.03125
 30
0.0
 40
0.05
  0
CIRCLE
  8
0
 10
122.40625
 20
122.28125
 30
0.0
 40
0.05
  0
CIRCLE
  8
0
 10
122.4375
 20
123.09375
 30
0.0
 40
0.05
  0
CIRCLE
  8
0
 10
122.4375
 20
123.90625
 30
0.0
 40
0.05
  0
CIRCLE
  8
0
 10
122.4375
 20
124.6875
 30
0.0
 40
0.05
  0
CIRCLE
  8
0
 10
122.4375
 20
125.5
 30
0.0
 40
0.05
  0
CIRCLE
  8
0
 10
122.4375
 20
126.28125
 30
0.0
 40
0.05
  0
CIRCLE
  8
0
 10
122.4375
 20
127.09375
 30
0.0
 40
0.05
  0
CIRCLE
  8
0
 10
122.75
 20
127.90625
 30
0.0
 40
0.05
  0
CIRCLE
  8
0
 10
121.6875
 20
95.125
 30
0.0
 40
0.05
  0
CIRCLE
  8
0
 10
121.6875
 20
95.9375
 30
0.0
 40
0.05
  0
CIRCLE
  8
0
 10
121.6875
 20
96.71875
 30
0.0
 40
0.05
  0
CIRCLE
  8
0
 10
121.6875
 20
97.53125
 30
0.0
 40
0.05
  0
CIRCLE
  8
0
 10
121.6875
 20
98.34375
 30
0.0
 40
0.05
  0
CIRCLE
  8
0
 10
121.6875
 20
99.125
 30
0.0
 40
0.05
  0
CIRCLE
  8
0
 10
121.71875
 20
99.9375
 30
0.0
 40
0.05
  0
CIRCLE
  8
0
 10
121.8125
 20
100.75
 30
0.0
 40
0.05
  0
CIRCLE
  8
0
 10
121.8125
 20
101.53125
 30
0.0
 40
0.05
  0
CIRCLE
  8
0
 10
121.8125
 20
102.34375
 30
0.0
 40
0.05
  0
CIRCLE
  8
0
 10
121.8125
 20
103.15625
 30
0.0
 40
0.05
  0
CIRCLE
  8
0
 10
121.8125
 20
103.9375
 30
0.0
 40
0.05
  0
CIRCLE
  8
0
 10
122.1875
 20
104.8125
 30
0.0
 40
0.05
  0
CIRCLE
  8
0
 10
121.59375
 20
105.53125
 30
0.0
 40
0.05
  0
CIRCLE
  8
0
 10
121.46875
 20
120.625
 30
0.0
 40
0.05
  0
CIRCLE
  8
0
 10
121.46875
 20
121.4375
 30
0.0
 40
0.05
  0
CIRCLE
  8
0
 10
121.46875
 20
122.28125
 30
0.0
 40
0.05
  0
CIRCLE
  8
0
 10
121.46875
 20
123.09375
 30
0.0
 40
0.05
  0
CIRCLE
  8
0
 10
121.46875
 20
123.90625
 30
0.0
 40
0.05
  0
CIRCLE
  8
0
 10
121.46875
 20
124.6875
 30
0.0
 40
0.05
  0
CIRCLE
  8
0
 10
121.46875
 20
125.5
 30
0.0
 40
0.05
  0
CIRCLE
  8
0
 10
121.46875
 20
126.28125
 30
0.0
 40
0.05
  0
CIRCLE
  8
0
 10
121.46875
 20
127.09375
 30
0.0
 40
0.05
  0
CIRCLE
  8
0
 10
121.46875
 20
127.90625
 30
0.0
 40
0.05
  0
CIRCLE
  8
0
 10
120.59375
 20
95.125
 30
0.0
 40
0.05
  0
CIRCLE
  8
0
 10
120.59375
 20
95.9375
 30
0.0
 40
0.05
  0
CIRCLE
  8
0
 10
120.59375
 20
96.71875
 30
0.0
 40
0.05
  0
CIRCLE
  8
0
 10
120.59375
 20
97.53125
 30
0.0
 40
0.05
  0
CIRCLE
  8
0
 10
120.59375
 20
98.34375
 30
0.0
 40
0.05
  0
CIRCLE
  8
0
 10
120.65625
 20
99.125
 30
0.0
 40
0.05
  0
CIRCLE
  8
0
 10
120.6875
 20
99.9375
 30
0.0
 40
0.05
  0
CIRCLE
  8
0
 10
120.75
 20
100.75
 30
0.0
 40
0.05
  0
CIRCLE
  8
0
 10
120.78125
 20
101.53125
 30
0.0
 40
0.05
  0
CIRCLE
  8
0
 10
120.78125
 20
102.34375
 30
0.0
 40
0.05
  0
CIRCLE
  8
0
 10
120.78125
 20
103.15625
 30
0.0
 40
0.05
  0
CIRCLE
  8
0
 10
120.78125
 20
103.9375
 30
0.0
 40
0.05
  0
CIRCLE
  8
0
 10
120.78125
 20
104.75
 30
0.0
 40
0.05
  0
CIRCLE
  8
0
 10
120.78125
 20
105.53125
 30
0.0
 40
0.05
  0
CIRCLE
  8
0
 10
120.5
 20
120.625
 30
0.0
 40
0.05
  0
CIRCLE
  8
0
 10
120.5
 20
121.4375
 30
0.0
 40
0.05
  0
CIRCLE
  8
0
 10
120.5
 20
122.28125
 30
0.0
 40
0.05
  0
CIRCLE
  8
0
 10
120.5
 20
123.09375
 30
0.0
 40
0.05
  0
CIRCLE
  8
0
 10
120.5
 20
123.90625
 30
0.0
 40
0.05
  0
CIRCLE
  8
0
 10
120.5
 20
124.6875
 30
0.0
 40
0.05
  0
CIRCLE
  8
0
 10
120.5
 20
125.5
 30
0.0
 40
0.05
  0
CIRCLE
  8
0
 10
120.5
 20
126.28125
 30
0.0
 40
0.05
  0
CIRCLE
  8
0
 10
120.5
 20
127.09375
 30
0.0
 40
0.05
  0
CIRCLE
  8
0
 10
120.5
 20
127.90625
 30
0.0
 40
0.05
  0
CIRCLE
  8
0
 10
119.6875
 20
95.125
 30
0.0
 40
0.05
  0
CIRCLE
  8
0
 10
119.6875
 20
95.9375
 30
0.0
 40
0.05
  0
CIRCLE
  8
0
 10
119.6875
 20
96.71875
 30
0.0
 40
0.05
  0
CIRCLE
  8
0
 10
119.6875
 20
97.53125
 30
0.0
 40
0.05
  0
CIRCLE
  8
0
 10
119.6875
 20
98.34375
 30
0.0
 40
0.05
  0
CIRCLE
  8
0
 10
119.625
 20
99.125
 30
0.0
 40
0.05
  0
CIRCLE
  8
0
 10
119.65625
 20
99.9375
 30
0.0
 40
0.05
  0
CIRCLE
  8
0
 10
119.65625
 20
100.75
 30
0.0
 40
0.05
  0
CIRCLE
  8
0
 10
119.65625
 20
101.53125
 30
0.0
 40
0.05
  0
CIRCLE
  8
0
 10
119.65625
 20
102.34375
 30
0.0
 40
0.05
  0
CIRCLE
  8
0
 10
119.65625
 20
103.15625
 30
0.0
 40
0.05
  0
CIRCLE
  8
0
 10
119.65625
 20
103.9375
 30
0.0
 40
0.05
  0
CIRCLE
  8
0
 10
119.65625
 20
104.75
 30
0.0
 40
0.05
  0
CIRCLE
  8
0
 10
119.65625
 20
105.53125
 30
0.0
 40
0.05
  0
CIRCLE
  8
0
 10
119.53125
 20
120.625
 30
0.0
 40
0.05
  0
CIRCLE
  8
0
 10
119.53125
 20
121.4375
 30
0.0
 40
0.05
  0
CIRCLE
  8
0
 10
119.53125
 20
122.28125
 30
0.0
 40
0.05
  0
CIRCLE
  8
0
 10
119.53125
 20
123.09375
 30
0.0
 40
0.05
  0
CIRCLE
  8
0
 10
119.53125
 20
123.90625
 30
0.0
 40
0.05
  0
CIRCLE
  8
0
 10
119.53125
 20
124.6875
 30
0.0
 40
0.05
  0
CIRCLE
  8
0
 10
119.53125
 20
125.5
 30
0.0
 40
0.05
  0
CIRCLE
  8
0
 10
119.53125
 20
126.28125
 30
0.0
 40
0.05
  0
CIRCLE
  8
0
 10
119.53125
 20
127.09375
 30
0.0
 40
0.05
  0
CIRCLE
  8
0
 10
119.53125
 20
127.90625
 30
0.0
 40
0.05
  0
CIRCLE
  8
0
 10
118.59375
 20
95.125
 30
0.0
 40
0.05
  0
CIRCLE
  8
0
 10
118.59375
 20
95.9375
 30
0.0
 40
0.05
  0
CIRCLE
  8
0
 10
118.59375
 20
96.71875
 30
0.0
 40
0.05
  0
CIRCLE
  8
0
 10
118.59375
 20
97.53125
 30
0.0
 40
0.05
  0
CIRCLE
  8
0
 10
118.59375
 20
98.34375
 30
0.0
 40
0.05
  0
CIRCLE
  8
0
 10
118.59375
 20
99.125
 30
0.0
 40
0.05
  0
CIRCLE
  8
0
 10
118.53125
 20
99.9375
 30
0.0
 40
0.05
  0
CIRCLE
  8
0
 10
118.53125
 20
100.75
 30
0.0
 40
0.05
  0
CIRCLE
  8
0
 10
118.53125
 20
101.53125
 30
0.0
 40
0.05
  0
CIRCLE
  8
0
 10
118.53125
 20
102.34375
 30
0.0
 40
0.05
  0
CIRCLE
  8
0
 10
118.53125
 20
103.15625
 30
0.0
 40
0.05
  0
CIRCLE
  8
0
 10
118.53125
 20
103.9375
 30
0.0
 40
0.05
  0
CIRCLE
  8
0
 10
118.53125
 20
104.75
 30
0.0
 40
0.05
  0
CIRCLE
  8
0
 10
118.53125
 20
105.53125
 30
0.0
 40
0.05
  0
CIRCLE
  8
0
 10
118.5625
 20
120.625
 30
0.0
 40
0.05
  0
CIRCLE
  8
0
 10
118.5625
 20
121.4375
 30
0.0
 40
0.05
  0
CIRCLE
  8
0
 10
118.5625
 20
122.28125
 30
0.0
 40
0.05
  0
CIRCLE
  8
0
 10
118.5625
 20
123.09375
 30
0.0
 40
0.05
  0
CIRCLE
  8
0
 10
118.5625
 20
123.90625
 30
0.0
 40
0.05
  0
CIRCLE
  8
0
 10
118.5625
 20
124.6875
 30
0.0
 40
0.05
  0
CIRCLE
  8
0
 10
118.5625
 20
125.5
 30
0.0
 40
0.05
  0
CIRCLE
  8
0
 10
118.5625
 20
126.28125
 30
0.0
 40
0.05
  0
CIRCLE
  8
0
 10
118.5625
 20
127.09375
 30
0.0
 40
0.05
  0
CIRCLE
  8
0
 10
118.5625
 20
127.90625
 30
0.0
 40
0.05
  0
CIRCLE
  8
0
 10
117.5
 20
95.125
 30
0.0
 40
0.05
  0
CIRCLE
  8
0
 10
117.5
 20
95.9375
 30
0.0
 40
0.05
  0
CIRCLE
  8
0
 10
117.5
 20
96.71875
 30
0.0
 40
0.05
  0
CIRCLE
  8
0
 10
117.5
 20
97.53125
 30
0.0
 40
0.05
  0
CIRCLE
  8
0
 10
117.5
 20
98.34375
 30
0.0
 40
0.05
  0
CIRCLE
  8
0
 10
117.5625
 20
99.125
 30
0.0
 40
0.05
  0
CIRCLE
  8
0
 10
117.40625
 20
99.9375
 30
0.0
 40
0.05
  0
CIRCLE
  8
0
 10
117.40625
 20
100.75
 30
0.0
 40
0.05
  0
CIRCLE
  8
0
 10
117.40625
 20
101.53125
 30
0.0
 40
0.05
  0
CIRCLE
  8
0
 10
117.40625
 20
102.34375
 30
0.0
 40
0.05
  0
CIRCLE
  8
0
 10
117.40625
 20
103.15625
 30
0.0
 40
0.05
  0
CIRCLE
  8
0
 10
117.40625
 20
103.9375
 30
0.0
 40
0.05
  0
CIRCLE
  8
0
 10
117.40625
 20
104.75
 30
0.0
 40
0.05
  0
CIRCLE
  8
0
 10
117.40625
 20
105.53125
 30
0.0
 40
0.05
  0
CIRCLE
  8
0
 10
117.59375
 20
120.625
 30
0.0
 40
0.05
  0
CIRCLE
  8
0
 10
117.59375
 20
121.4375
 30
0.0
 40
0.05
  0
CIRCLE
  8
0
 10
117.59375
 20
122.28125
 30
0.0
 40
0.05
  0
CIRCLE
  8
0
 10
117.59375
 20
123.09375
 30
0.0
 40
0.05
  0
CIRCLE
  8
0
 10
117.59375
 20
123.90625
 30
0.0
 40
0.05
  0
CIRCLE
  8
0
 10
117.59375
 20
124.6875
 30
0.0
 40
0.05
  0
CIRCLE
  8
0
 10
117.59375
 20
125.5
 30
0.0
 40
0.05
  0
CIRCLE
  8
0
 10
117.59375
 20
126.28125
 30
0.0
 40
0.05
  0
CIRCLE
  8
0
 10
117.59375
 20
127.09375
 30
0.0
 40
0.05
  0
CIRCLE
  8
0
 10
117.59375
 20
127.90625
 30
0.0
 40
0.05
  0
CIRCLE
  8
0
 10
116.59375
 20
95.125
 30
0.0
 40
0.05
  0
CIRCLE
  8
0
 10
116.59375
 20
95.9375
 30
0.0
 40
0.05
  0
CIRCLE
  8
0
 10
116.59375
 20
96.71875
 30
0.0
 40
0.05
  0
CIRCLE
  8
0
 10
116.59375
 20
97.53125
 30
0.0
 40
0.05
  0
CIRCLE
  8
0
 10
116.59375
 20
98.34375
 30
0.0
 40
0.05
  0
CIRCLE
  8
0
 10
116.53125
 20
99.125
 30
0.0
 40
0.05
  0
CIRCLE
  8
0
 10
116.28125
 20
99.9375
 30
0.0
 40
0.05
  0
CIRCLE
  8
0
 10
116.28125
 20
100.75
 30
0.0
 40
0.05
  0
CIRCLE
  8
0
 10
116.28125
 20
101.53125
 30
0.0
 40
0.05
  0
CIRCLE
  8
0
 10
116.28125
 20
102.34375
 30
0.0
 40
0.05
  0
CIRCLE
  8
0
 10
116.28125
 20
103.15625
 30
0.0
 40
0.05
  0
CIRCLE
  8
0
 10
116.28125
 20
103.9375
 30
0.0
 40
0.05
  0
CIRCLE
  8
0
 10
116.28125
 20
104.75
 30
0.0
 40
0.05
  0
CIRCLE
  8
0
 10
116.28125
 20
105.53125
 30
0.0
 40
0.05
  0
CIRCLE
  8
0
 10
116.625
 20
120.625
 30
0.0
 40
0.05
  0
CIRCLE
  8
0
 10
116.625
 20
121.4375
 30
0.0
 40
0.05
  0
CIRCLE
  8
0
 10
116.625
 20
122.28125
 30
0.0
 40
0.05
  0
CIRCLE
  8
0
 10
116.625
 20
123.09375
 30
0.0
 40
0.05
  0
CIRCLE
  8
0
 10
116.625
 20
123.90625
 30
0.0
 40
0.05
  0
CIRCLE
  8
0
 10
116.625
 20
124.6875
 30
0.0
 40
0.05
  0
CIRCLE
  8
0
 10
116.625
 20
125.5
 30
0.0
 40
0.05
  0
CIRCLE
  8
0
 10
116.625
 20
126.28125
 30
0.0
 40
0.05
  0
CIRCLE
  8
0
 10
116.625
 20
127.09375
 30
0.0
 40
0.05
  0
CIRCLE
  8
0
 10
116.625
 20
127.90625
 30
0.0
 40
0.05
  0
CIRCLE
  8
0
 10
115.5
 20
95.125
 30
0.0
 40
0.05
  0
CIRCLE
  8
0
 10
115.5
 20
95.9375
 30
0.0
 40
0.05
  0
CIRCLE
  8
0
 10
115.5
 20
96.71875
 30
0.0
 40
0.05
  0
CIRCLE
  8
0
 10
115.5
 20
97.53125
 30
0.0
 40
0.05
  0
CIRCLE
  8
0
 10
115.5
 20
98.34375
 30
0.0
 40
0.05
  0
CIRCLE
  8
0
 10
115.5
 20
99.125
 30
0.0
 40
0.05
  0
CIRCLE
  8
0
 10
115.15625
 20
99.9375
 30
0.0
 40
0.05
  0
CIRCLE
  8
0
 10
115.15625
 20
100.75
 30
0.0
 40
0.05
  0
CIRCLE
  8
0
 10
115.15625
 20
101.53125
 30
0.0
 40
0.05
  0
CIRCLE
  8
0
 10
115.15625
 20
102.34375
 30
0.0
 40
0.05
  0
CIRCLE
  8
0
 10
115.15625
 20
103.15625
 30
0.0
 40
0.05
  0
CIRCLE
  8
0
 10
115.15625
 20
103.9375
 30
0.0
 40
0.05
  0
CIRCLE
  8
0
 10
115.15625
 20
104.75
 30
0.0
 40
0.05
  0
CIRCLE
  8
0
 10
115.15625
 20
105.53125
 30
0.0
 40
0.05
  0
CIRCLE
  8
0
 10
115.65625
 20
120.625
 30
0.0
 40
0.05
  0
CIRCLE
  8
0
 10
115.65625
 20
121.4375
 30
0.0
 40
0.05
  0
CIRCLE
  8
0
 10
115.65625
 20
122.28125
 30
0.0
 40
0.05
  0
CIRCLE
  8
0
 10
115.65625
 20
123.09375
 30
0.0
 40
0.05
  0
CIRCLE
  8
0
 10
115.65625
 20
123.90625
 30
0.0
 40
0.05
  0
CIRCLE
  8
0
 10
115.65625
 20
124.6875
 30
0.0
 40
0.05
  0
CIRCLE
  8
0
 10
115.65625
 20
125.5
 30
0.0
 40
0.05
  0
CIRCLE
  8
0
 10
115.65625
 20
126.28125
 30
0.0
 40
0.05
  0
CIRCLE
  8
0
 10
115.65625
 20
127.09375
 30
0.0
 40
0.05
  0
CIRCLE
  8
0
 10
115.65625
 20
127.90625
 30
0.0
 40
0.05
  0
CIRCLE
  8
0
 10
114.40625
 20
95.125
 30
0.0
 40
0.05
  0
CIRCLE
  8
0
 10
114.40625
 20
95.9375
 30
0.0
 40
0.05
  0
CIRCLE
  8
0
 10
114.40625
 20
96.71875
 30
0.0
 40
0.05
  0
CIRCLE
  8
0
 10
114.40625
 20
97.53125
 30
0.0
 40
0.05
  0
CIRCLE
  8
0
 10
114.40625
 20
98.34375
 30
0.0
 40
0.05
  0
CIRCLE
  8
0
 10
114.46875
 20
99.125
 30
0.0
 40
0.05
  0
CIRCLE
  8
0
 10
114.6875
 20
120.625
 30
0.0
 40
0.05
  0
CIRCLE
  8
0
 10
114.6875
 20
121.4375
 30
0.0
 40
0.05
  0
CIRCLE
  8
0
 10
114.6875
 20
122.28125
 30
0.0
 40
0.05
  0
CIRCLE
  8
0
 10
114.6875
 20
123.09375
 30
0.0
 40
0.05
  0
CIRCLE
  8
0
 10
114.6875
 20
123.90625
 30
0.0
 40
0.05
  0
CIRCLE
  8
0
 10
114.6875
 20
124.6875
 30
0.0
 40
0.05
  0
CIRCLE
  8
0
 10
114.6875
 20
125.5
 30
0.0
 40
0.05
  0
CIRCLE
  8
0
 10
114.6875
 20
126.28125
 30
0.0
 40
0.05
  0
CIRCLE
  8
0
 10
114.6875
 20
127.09375
 30
0.0
 40
0.05
  0
CIRCLE
  8
0
 10
114.6875
 20
127.90625
 30
0.0
 40
0.05
  0
CIRCLE
  8
0
 10
113.5
 20
95.125
 30
0.0
 40
0.05
  0
CIRCLE
  8
0
 10
113.5
 20
95.9375
 30
0.0
 40
0.05
  0
CIRCLE
  8
0
 10
113.5
 20
96.71875
 30
0.0
 40
0.05
  0
CIRCLE
  8
0
 10
113.5
 20
97.53125
 30
0.0
 40
0.05
  0
CIRCLE
  8
0
 10
113.5
 20
98.34375
 30
0.0
 40
0.05
  0
CIRCLE
  8
0
 10
113.4375
 20
99.125
 30
0.0
 40
0.05
  0
CIRCLE
  8
0
 10
114.03125
 20
99.9375
 30
0.0
 40
0.05
  0
CIRCLE
  8
0
 10
114.03125
 20
100.75
 30
0.0
 40
0.05
  0
CIRCLE
  8
0
 10
114.03125
 20
101.53125
 30
0.0
 40
0.05
  0
CIRCLE
  8
0
 10
114.03125
 20
102.34375
 30
0.0
 40
0.05
  0
CIRCLE
  8
0
 10
114.03125
 20
103.15625
 30
0.0
 40
0.05
  0
CIRCLE
  8
0
 10
114.03125
 20
103.9375
 30
0.0
 40
0.05
  0
CIRCLE
  8
0
 10
114.03125
 20
104.75
 30
0.0
 40
0.05
  0
CIRCLE
  8
0
 10
114.03125
 20
105.53125
 30
0.0
 40
0.05
  0
CIRCLE
  8
0
 10
113.71875
 20
120.625
 30
0.0
 40
0.05
  0
CIRCLE
  8
0
 10
113.71875
 20
121.4375
 30
0.0
 40
0.05
  0
CIRCLE
  8
0
 10
113.71875
 20
122.28125
 30
0.0
 40
0.05
  0
CIRCLE
  8
0
 10
113.71875
 20
123.09375
 30
0.0
 40
0.05
  0
CIRCLE
  8
0
 10
113.71875
 20
123.90625
 30
0.0
 40
0.05
  0
CIRCLE
  8
0
 10
113.71875
 20
124.6875
 30
0.0
 40
0.05
  0
CIRCLE
  8
0
 10
113.71875
 20
125.5
 30
0.0
 40
0.05
  0
CIRCLE
  8
0
 10
113.71875
 20
126.28125
 30
0.0
 40
0.05
  0
CIRCLE
  8
0
 10
113.71875
 20
127.09375
 30
0.0
 40
0.05
  0
CIRCLE
  8
0
 10
113.71875
 20
127.90625
 30
0.0
 40
0.05
  0
CIRCLE
  8
0
 10
112.40625
 20
95.125
 30
0.0
 40
0.05
  0
CIRCLE
  8
0
 10
112.40625
 20
95.9375
 30
0.0
 40
0.05
  0
CIRCLE
  8
0
 10
112.40625
 20
96.71875
 30
0.0
 40
0.05
  0
CIRCLE
  8
0
 10
112.40625
 20
97.53125
 30
0.0
 40
0.05
  0
CIRCLE
  8
0
 10
112.40625
 20
98.34375
 30
0.0
 40
0.05
  0
CIRCLE
  8
0
 10
112.40625
 20
99.125
 30
0.0
 40
0.05
  0
CIRCLE
  8
0
 10
112.90625
 20
99.9375
 30
0.0
 40
0.05
  0
CIRCLE
  8
0
 10
112.90625
 20
100.75
 30
0.0
 40
0.05
  0
CIRCLE
  8
0
 10
112.90625
 20
101.53125
 30
0.0
 40
0.05
  0
CIRCLE
  8
0
 10
112.90625
 20
102.34375
 30
0.0
 40
0.05
  0
CIRCLE
  8
0
 10
112.90625
 20
103.15625
 30
0.0
 40
0.05
  0
CIRCLE
  8
0
 10
112.90625
 20
103.9375
 30
0.0
 40
0.05
  0
CIRCLE
  8
0
 10
112.90625
 20
104.75
 30
0.0
 40
0.05
  0
CIRCLE
  8
0
 10
112.90625
 20
105.53125
 30
0.0
 40
0.05
  0
CIRCLE
  8
0
 10
112.75
 20
120.625
 30
0.0
 40
0.05
  0
CIRCLE
  8
0
 10
112.75
 20
121.4375
 30
0.0
 40
0.05
  0
CIRCLE
  8
0
 10
112.75
 20
122.28125
 30
0.0
 40
0.05
  0
CIRCLE
  8
0
 10
112.75
 20
123.09375
 30
0.0
 40
0.05
  0
CIRCLE
  8
0
 10
112.75
 20
123.90625
 30
0.0
 40
0.05
  0
CIRCLE
  8
0
 10
112.75
 20
124.6875
 30
0.0
 40
0.05
  0
CIRCLE
  8
0
 10
112.75
 20
125.5
 30
0.0
 40
0.05
  0
CIRCLE
  8
0
 10
112.75
 20
126.28125
 30
0.0
 40
0.05
  0
CIRCLE
  8
0
 10
112.75
 20
127.09375
 30
0.0
 40
0.05
  0
CIRCLE
  8
0
 10
112.75
 20
127.90625
 30
0.0
 40
0.05
  0
CIRCLE
  8
0
 10
111.78125
 20
99.9375
 30
0.0
 40
0.05
  0
CIRCLE
  8
0
 10
111.78125
 20
100.75
 30
0.0
 40
0.05
  0
CIRCLE
  8
0
 10
111.78125
 20
101.53125
 30
0.0
 40
0.05
  0
CIRCLE
  8
0
 10
111.78125
 20
102.34375
 30
0.0
 40
0.05
  0
CIRCLE
  8
0
 10
111.78125
 20
103.15625
 30
0.0
 40
0.05
  0
CIRCLE
  8
0
 10
111.78125
 20
103.9375
 30
0.0
 40
0.05
  0
CIRCLE
  8
0
 10
111.78125
 20
104.75
 30
0.0
 40
0.05
  0
CIRCLE
  8
0
 10
111.78125
 20
105.53125
 30
0.0
 40
0.05
  0
CIRCLE
  8
0
 10
111.78125
 20
120.625
 30
0.0
 40
0.05
  0
CIRCLE
  8
0
 10
111.78125
 20
121.4375
 30
0.0
 40
0.05
  0
CIRCLE
  8
0
 10
111.78125
 20
122.28125
 30
0.0
 40
0.05
  0
CIRCLE
  8
0
 10
111.78125
 20
123.09375
 30
0.0
 40
0.05
  0
CIRCLE
  8
0
 10
111.78125
 20
123.90625
 30
0.0
 40
0.05
  0
CIRCLE
  8
0
 10
111.78125
 20
124.6875
 30
0.0
 40
0.05
  0
CIRCLE
  8
0
 10
111.78125
 20
125.5
 30
0.0
 40
0.05
  0
CIRCLE
  8
0
 10
111.78125
 20
126.28125
 30
0.0
 40
0.05
  0
CIRCLE
  8
0
 10
111.78125
 20
127.09375
 30
0.0
 40
0.05
  0
CIRCLE
  8
0
 10
111.78125
 20
127.90625
 30
0.0
 40
0.05
  0
CIRCLE
  8
0
 10
111.3125
 20
95.125
 30
0.0
 40
0.05
  0
CIRCLE
  8
0
 10
111.3125
 20
95.9375
 30
0.0
 40
0.05
  0
CIRCLE
  8
0
 10
111.3125
 20
96.71875
 30
0.0
 40
0.05
  0
CIRCLE
  8
0
 10
111.3125
 20
97.53125
 30
0.0
 40
0.05
  0
CIRCLE
  8
0
 10
111.3125
 20
98.34375
 30
0.0
 40
0.05
  0
CIRCLE
  8
0
 10
111.375
 20
99.125
 30
0.0
 40
0.05
  0
CIRCLE
  8
0
 10
110.65625
 20
99.9375
 30
0.0
 40
0.05
  0
CIRCLE
  8
0
 10
110.65625
 20
100.75
 30
0.0
 40
0.05
  0
CIRCLE
  8
0
 10
110.65625
 20
101.53125
 30
0.0
 40
0.05
  0
CIRCLE
  8
0
 10
110.65625
 20
102.34375
 30
0.0
 40
0.05
  0
CIRCLE
  8
0
 10
110.65625
 20
103.15625
 30
0.0
 40
0.05
  0
CIRCLE
  8
0
 10
110.65625
 20
103.9375
 30
0.0
 40
0.05
  0
CIRCLE
  8
0
 10
110.65625
 20
104.75
 30
0.0
 40
0.05
  0
CIRCLE
  8
0
 10
110.65625
 20
105.53125
 30
0.0
 40
0.05
  0
CIRCLE
  8
0
 10
110.8125
 20
120.625
 30
0.0
 40
0.05
  0
CIRCLE
  8
0
 10
110.8125
 20
121.4375
 30
0.0
 40
0.05
  0
CIRCLE
  8
0
 10
110.8125
 20
122.28125
 30
0.0
 40
0.05
  0
CIRCLE
  8
0
 10
110.8125
 20
123.09375
 30
0.0
 40
0.05
  0
CIRCLE
  8
0
 10
110.8125
 20
123.90625
 30
0.0
 40
0.05
  0
CIRCLE
  8
0
 10
110.8125
 20
124.6875
 30
0.0
 40
0.05
  0
CIRCLE
  8
0
 10
110.8125
 20
125.5
 30
0.0
 40
0.05
  0
CIRCLE
  8
0
 10
110.8125
 20
126.28125
 30
0.0
 40
0.05
  0
CIRCLE
  8
0
 10
110.8125
 20
127.09375
 30
0.0
 40
0.05
  0
CIRCLE
  8
0
 10
110.8125
 20
127.90625
 30
0.0
 40
0.05
  0
CIRCLE
  8
0
 10
110.40625
 20
95.125
 30
0.0
 40
0.05
  0
CIRCLE
  8
0
 10
110.40625
 20
95.9375
 30
0.0
 40
0.05
  0
CIRCLE
  8
0
 10
110.40625
 20
96.71875
 30
0.0
 40
0.05
  0
CIRCLE
  8
0
 10
110.40625
 20
97.53125
 30
0.0
 40
0.05
  0
CIRCLE
  8
0
 10
110.40625
 20
98.34375
 30
0.0
 40
0.05
  0
CIRCLE
  8
0
 10
110.34375
 20
99.125
 30
0.0
 40
0.05
  0
CIRCLE
  8
0
 10
109.84375
 20
120.625
 30
0.0
 40
0.05
  0
CIRCLE
  8
0
 10
109.84375
 20
121.4375
 30
0.0
 40
0.05
  0
CIRCLE
  8
0
 10
109.84375
 20
122.28125
 30
0.0
 40
0.05
  0
CIRCLE
  8
0
 10
109.84375
 20
123.09375
 30
0.0
 40
0.05
  0
CIRCLE
  8
0
 10
109.84375
 20
123.90625
 30
0.0
 40
0.05
  0
CIRCLE
  8
0
 10
109.84375
 20
124.6875
 30
0.0
 40
0.05
  0
CIRCLE
  8
0
 10
109.84375
 20
125.5
 30
0.0
 40
0.05
  0
CIRCLE
  8
0
 10
109.84375
 20
126.28125
 30
0.0
 40
0.05
  0
CIRCLE
  8
0
 10
109.84375
 20
127.09375
 30
0.0
 40
0.05
  0
CIRCLE
  8
0
 10
109.84375
 20
127.90625
 30
0.0
 40
0.05
  0
CIRCLE
  8
0
 10
109.3125
 20
95.125
 30
0.0
 40
0.05
  0
CIRCLE
  8
0
 10
109.3125
 20
95.9375
 30
0.0
 40
0.05
  0
CIRCLE
  8
0
 10
109.3125
 20
96.71875
 30
0.0
 40
0.05
  0
CIRCLE
  8
0
 10
109.3125
 20
97.53125
 30
0.0
 40
0.05
  0
CIRCLE
  8
0
 10
109.3125
 20
98.34375
 30
0.0
 40
0.05
  0
CIRCLE
  8
0
 10
109.3125
 20
99.125
 30
0.0
 40
0.05
  0
CIRCLE
  8
0
 10
109.53125
 20
99.9375
 30
0.0
 40
0.05
  0
CIRCLE
  8
0
 10
109.53125
 20
100.75
 30
0.0
 40
0.05
  0
CIRCLE
  8
0
 10
109.53125
 20
101.53125
 30
0.0
 40
0.05
  0
CIRCLE
  8
0
 10
109.53125
 20
102.34375
 30
0.0
 40
0.05
  0
CIRCLE
  8
0
 10
109.53125
 20
103.15625
 30
0.0
 40
0.05
  0
CIRCLE
  8
0
 10
109.53125
 20
103.9375
 30
0.0
 40
0.05
  0
CIRCLE
  8
0
 10
109.53125
 20
104.75
 30
0.0
 40
0.05
  0
CIRCLE
  8
0
 10
109.53125
 20
105.53125
 30
0.0
 40
0.05
  0
CIRCLE
  8
0
 10
108.875
 20
120.625
 30
0.0
 40
0.05
  0
CIRCLE
  8
0
 10
108.875
 20
121.4375
 30
0.0
 40
0.05
  0
CIRCLE
  8
0
 10
108.875
 20
122.28125
 30
0.0
 40
0.05
  0
CIRCLE
  8
0
 10
108.875
 20
123.09375
 30
0.0
 40
0.05
  0
CIRCLE
  8
0
 10
108.875
 20
123.90625
 30
0.0
 40
0.05
  0
CIRCLE
  8
0
 10
108.875
 20
124.6875
 30
0.0
 40
0.05
  0
CIRCLE
  8
0
 10
108.875
 20
125.5
 30
0.0
 40
0.05
  0
CIRCLE
  8
0
 10
108.875
 20
126.28125
 30
0.0
 40
0.05
  0
CIRCLE
  8
0
 10
108.875
 20
127.09375
 30
0.0
 40
0.05
  0
CIRCLE
  8
0
 10
108.875
 20
127.90625
 30
0.0
 40
0.05
  0
CIRCLE
  8
0
 10
108.21875
 20
95.125
 30
0.0
 40
0.05
  0
CIRCLE
  8
0
 10
108.21875
 20
95.9375
 30
0.0
 40
0.05
  0
CIRCLE
  8
0
 10
108.21875
 20
96.71875
 30
0.0
 40
0.05
  0
CIRCLE
  8
0
 10
108.21875
 20
97.53125
 30
0.0
 40
0.05
  0
CIRCLE
  8
0
 10
108.21875
 20
98.34375
 30
0.0
 40
0.05
  0
CIRCLE
  8
0
 10
108.28125
 20
99.125
 30
0.0
 40
0.05
  0
CIRCLE
  8
0
 10
108.40625
 20
99.9375
 30
0.0
 40
0.05
  0
CIRCLE
  8
0
 10
108.40625
 20
100.75
 30
0.0
 40
0.05
  0
CIRCLE
  8
0
 10
108.40625
 20
101.53125
 30
0.0
 40
0.05
  0
CIRCLE
  8
0
 10
108.40625
 20
102.34375
 30
0.0
 40
0.05
  0
CIRCLE
  8
0
 10
108.40625
 20
103.15625
 30
0.0
 40
0.05
  0
CIRCLE
  8
0
 10
108.40625
 20
103.9375
 30
0.0
 40
0.05
  0
CIRCLE
  8
0
 10
108.40625
 20
104.75
 30
0.0
 40
0.05
  0
CIRCLE
  8
0
 10
108.40625
 20
105.53125
 30
0.0
 40
0.05
  0
CIRCLE
  8
0
 10
107.90625
 20
120.625
 30
0.0
 40
0.05
  0
CIRCLE
  8
0
 10
107.90625
 20
121.4375
 30
0.0
 40
0.05
  0
CIRCLE
  8
0
 10
107.90625
 20
122.28125
 30
0.0
 40
0.05
  0
CIRCLE
  8
0
 10
107.90625
 20
123.09375
 30
0.0
 40
0.05
  0
CIRCLE
  8
0
 10
107.90625
 20
123.90625
 30
0.0
 40
0.05
  0
CIRCLE
  8
0
 10
107.90625
 20
124.6875
 30
0.0
 40
0.05
  0
CIRCLE
  8
0
 10
107.90625
 20
125.5
 30
0.0
 40
0.05
  0
CIRCLE
  8
0
 10
107.90625
 20
126.28125
 30
0.0
 40
0.05
  0
CIRCLE
  8
0
 10
107.90625
 20
127.09375
 30
0.0
 40
0.05
  0
CIRCLE
  8
0
 10
107.90625
 20
127.90625
 30
0.0
 40
0.05
  0
CIRCLE
  8
0
 10
107.3125
 20
95.125
 30
0.0
 40
0.05
  0
CIRCLE
  8
0
 10
107.3125
 20
95.9375
 30
0.0
 40
0.05
  0
CIRCLE
  8
0
 10
107.3125
 20
96.71875
 30
0.0
 40
0.05
  0
CIRCLE
  8
0
 10
107.3125
 20
97.53125
 30
0.0
 40
0.05
  0
CIRCLE
  8
0
 10
107.3125
 20
98.34375
 30
0.0
 40
0.05
  0
CIRCLE
  8
0
 10
107.25
 20
99.125
 30
0.0
 40
0.05
  0
CIRCLE
  8
0
 10
107.28125
 20
99.9375
 30
0.0
 40
0.05
  0
CIRCLE
  8
0
 10
107.28125
 20
100.75
 30
0.0
 40
0.05
  0
CIRCLE
  8
0
 10
107.28125
 20
101.53125
 30
0.0
 40
0.05
  0
CIRCLE
  8
0
 10
107.28125
 20
102.34375
 30
0.0
 40
0.05
  0
CIRCLE
  8
0
 10
107.28125
 20
103.15625
 30
0.0
 40
0.05
  0
CIRCLE
  8
0
 10
107.28125
 20
103.9375
 30
0.0
 40
0.05
  0
CIRCLE
  8
0
 10
107.28125
 20
104.75
 30
0.0
 40
0.05
  0
CIRCLE
  8
0
 10
107.28125
 20
105.53125
 30
0.0
 40
0.05
  0
CIRCLE
  8
0
 10
106.9375
 20
120.625
 30
0.0
 40
0.05
  0
CIRCLE
  8
0
 10
106.9375
 20
121.4375
 30
0.0
 40
0.05
  0
CIRCLE
  8
0
 10
106.9375
 20
122.28125
 30
0.0
 40
0.05
  0
CIRCLE
  8
0
 10
106.9375
 20
123.09375
 30
0.0
 40
0.05
  0
CIRCLE
  8
0
 10
106.9375
 20
123.90625
 30
0.0
 40
0.05
  0
CIRCLE
  8
0
 10
106.9375
 20
124.6875
 30
0.0
 40
0.05
  0
CIRCLE
  8
0
 10
106.9375
 20
125.5
 30
0.0
 40
0.05
  0
CIRCLE
  8
0
 10
106.9375
 20
126.28125
 30
0.0
 40
0.05
  0
CIRCLE
  8
0
 10
106.9375
 20
127.09375
 30
0.0
 40
0.05
  0
CIRCLE
  8
0
 10
106.9375
 20
127.90625
 30
0.0
 40
0.05
  0
CIRCLE
  8
0
 10
106.21875
 20
95.125
 30
0.0
 40
0.05
  0
CIRCLE
  8
0
 10
106.21875
 20
95.9375
 30
0.0
 40
0.05
  0
CIRCLE
  8
0
 10
106.21875
 20
96.71875
 30
0.0
 40
0.05
  0
CIRCLE
  8
0
 10
106.21875
 20
97.53125
 30
0.0
 40
0.05
  0
CIRCLE
  8
0
 10
106.21875
 20
98.34375
 30
0.0
 40
0.05
  0
CIRCLE
  8
0
 10
106.21875
 20
99.125
 30
0.0
 40
0.05
  0
CIRCLE
  8
0
 10
106.15625
 20
99.9375
 30
0.0
 40
0.05
  0
CIRCLE
  8
0
 10
106.15625
 20
100.75
 30
0.0
 40
0.05
  0
CIRCLE
  8
0
 10
106.15625
 20
101.53125
 30
0.0
 40
0.05
  0
CIRCLE
  8
0
 10
106.15625
 20
102.34375
 30
0.0
 40
0.05
  0
CIRCLE
  8
0
 10
106.15625
 20
103.15625
 30
0.0
 40
0.05
  0
CIRCLE
  8
0
 10
106.15625
 20
103.9375
 30
0.0
 40
0.05
  0
CIRCLE
  8
0
 10
106.15625
 20
104.75
 30
0.0
 40
0.05
  0
CIRCLE
  8
0
 10
106.15625
 20
105.53125
 30
0.0
 40
0.05
  0
CIRCLE
  8
0
 10
105.96875
 20
120.625
 30
0.0
 40
0.05
  0
CIRCLE
  8
0
 10
105.96875
 20
121.4375
 30
0.0
 40
0.05
  0
CIRCLE
  8
0
 10
105.96875
 20
122.28125
 30
0.0
 40
0.05
  0
CIRCLE
  8
0
 10
105.96875
 20
123.09375
 30
0.0
 40
0.05
  0
CIRCLE
  8
0
 10
105.96875
 20
123.90625
 30
0.0
 40
0.05
  0
CIRCLE
  8
0
 10
105.96875
 20
124.6875
 30
0.0
 40
0.05
  0
CIRCLE
  8
0
 10
105.96875
 20
125.5
 30
0.0
 40
0.05
  0
CIRCLE
  8
0
 10
105.96875
 20
126.28125
 30
0.0
 40
0.05
  0
CIRCLE
  8
0
 10
105.96875
 20
127.09375
 30
0.0
 40
0.05
  0
CIRCLE
  8
0
 10
105.96875
 20
127.90625
 30
0.0
 40
0.05
  0
CIRCLE
  8
0
 10
105.125
 20
95.125
 30
0.0
 40
0.05
  0
CIRCLE
  8
0
 10
105.125
 20
95.9375
 30
0.0
 40
0.05
  0
CIRCLE
  8
0
 10
105.125
 20
96.71875
 30
0.0
 40
0.05
  0
CIRCLE
  8
0
 10
105.125
 20
97.53125
 30
0.0
 40
0.05
  0
CIRCLE
  8
0
 10
105.125
 20
98.34375
 30
0.0
 40
0.05
  0
CIRCLE
  8
0
 10
105.1875
 20
99.125
 30
0.0
 40
0.05
  0
CIRCLE
  8
0
 10
105.03125
 20
99.9375
 30
0.0
 40
0.05
  0
CIRCLE
  8
0
 10
105.03125
 20
100.75
 30
0.0
 40
0.05
  0
CIRCLE
  8
0
 10
105.03125
 20
101.53125
 30
0.0
 40
0.05
  0
CIRCLE
  8
0
 10
105.03125
 20
102.34375
 30
0.0
 40
0.05
  0
CIRCLE
  8
0
 10
105.03125
 20
103.15625
 30
0.0
 40
0.05
  0
CIRCLE
  8
0
 10
105.03125
 20
103.9375
 30
0.0
 40
0.05
  0
CIRCLE
  8
0
 10
105.03125
 20
104.75
 30
0.0
 40
0.05
  0
CIRCLE
  8
0
 10
105.03125
 20
105.53125
 30
0.0
 40
0.05
  0
CIRCLE
  8
0
 10
105.0
 20
120.625
 30
0.0
 40
0.05
  0
CIRCLE
  8
0
 10
105.0
 20
121.4375
 30
0.0
 40
0.05
  0
CIRCLE
  8
0
 10
105.0
 20
122.28125
 30
0.0
 40
0.05
  0
CIRCLE
  8
0
 10
105.0
 20
123.09375
 30
0.0
 40
0.05
  0
CIRCLE
  8
0
 10
105.0
 20
123.90625
 30
0.0
 40
0.05
  0
CIRCLE
  8
0
 10
105.0
 20
124.6875
 30
0.0
 40
0.05
  0
CIRCLE
  8
0
 10
105.0
 20
125.5
 30
0.0
 40
0.05
  0
CIRCLE
  8
0
 10
105.0
 20
126.28125
 30
0.0
 40
0.05
  0
CIRCLE
  8
0
 10
105.0
 20
127.09375
 30
0.0
 40
0.05
  0
CIRCLE
  8
0
 10
105.0
 20
127.90625
 30
0.0
 40
0.05
  0
CIRCLE
  8
0
 10
104.21875
 20
95.125
 30
0.0
 40
0.05
  0
CIRCLE
  8
0
 10
104.21875
 20
95.9375
 30
0.0
 40
0.05
  0
CIRCLE
  8
0
 10
104.21875
 20
96.71875
 30
0.0
 40
0.05
  0
CIRCLE
  8
0
 10
104.21875
 20
97.53125
 30
0.0
 40
0.05
  0
CIRCLE
  8
0
 10
104.21875
 20
98.34375
 30
0.0
 40
0.05
  0
CIRCLE
  8
0
 10
104.15625
 20
99.125
 30
0.0
 40
0.05
  0
CIRCLE
  8
0
 10
103.90625
 20
99.9375
 30
0.0
 40
0.05
  0
CIRCLE
  8
0
 10
103.90625
 20
100.75
 30
0.0
 40
0.05
  0
CIRCLE
  8
0
 10
103.90625
 20
101.53125
 30
0.0
 40
0.05
  0
CIRCLE
  8
0
 10
103.90625
 20
102.34375
 30
0.0
 40
0.05
  0
CIRCLE
  8
0
 10
103.90625
 20
103.15625
 30
0.0
 40
0.05
  0
CIRCLE
  8
0
 10
103.90625
 20
103.9375
 30
0.0
 40
0.05
  0
CIRCLE
  8
0
 10
103.90625
 20
104.75
 30
0.0
 40
0.05
  0
CIRCLE
  8
0
 10
103.90625
 20
105.53125
 30
0.0
 40
0.05
  0
CIRCLE
  8
0
 10
104.03125
 20
120.625
 30
0.0
 40
0.05
  0
CIRCLE
  8
0
 10
104.03125
 20
121.4375
 30
0.0
 40
0.05
  0
CIRCLE
  8
0
 10
104.03125
 20
122.28125
 30
0.0
 40
0.05
  0
CIRCLE
  8
0
 10
104.03125
 20
123.09375
 30
0.0
 40
0.05
  0
CIRCLE
  8
0
 10
104.03125
 20
123.90625
 30
0.0
 40
0.05
  0
CIRCLE
  8
0
 10
104.03125
 20
124.6875
 30
0.0
 40
0.05
  0
CIRCLE
  8
0
 10
104.03125
 20
125.5
 30
0.0
 40
0.05
  0
CIRCLE
  8
0
 10
104.03125
 20
126.28125
 30
0.0
 40
0.05
  0
CIRCLE
  8
0
 10
104.03125
 20
127.09375
 30
0.0
 40
0.05
  0
CIRCLE
  8
0
 10
104.03125
 20
127.90625
 30
0.0
 40
0.05
  0
CIRCLE
  8
0
 10
103.125
 20
95.125
 30
0.0
 40
0.05
  0
CIRCLE
  8
0
 10
103.125
 20
95.9375
 30
0.0
 40
0.05
  0
CIRCLE
  8
0
 10
103.125
 20
96.71875
 30
0.0
 40
0.05
  0
CIRCLE
  8
0
 10
103.125
 20
97.53125
 30
0.0
 40
0.05
  0
CIRCLE
  8
0
 10
103.125
 20
98.34375
 30
0.0
 40
0.05
  0
CIRCLE
  8
0
 10
103.125
 20
99.125
 30
0.0
 40
0.05
  0
CIRCLE
  8
0
 10
102.78125
 20
99.9375
 30
0.0
 40
0.05
  0
CIRCLE
  8
0
 10
102.78125
 20
100.75
 30
0.0
 40
0.05
  0
CIRCLE
  8
0
 10
102.78125
 20
101.53125
 30
0.0
 40
0.05
  0
CIRCLE
  8
0
 10
102.78125
 20
102.34375
 30
0.0
 40
0.05
  0
CIRCLE
  8
0
 10
102.78125
 20
103.15625
 30
0.0
 40
0.05
  0
CIRCLE
  8
0
 10
102.78125
 20
103.9375
 30
0.0
 40
0.05
  0
CIRCLE
  8
0
 10
102.78125
 20
104.75
 30
0.0
 40
0.05
  0
CIRCLE
  8
0
 10
102.78125
 20
105.53125
 30
0.0
 40
0.05
  0
CIRCLE
  8
0
 10
103.0625
 20
120.625
 30
0.0
 40
0.05
  0
CIRCLE
  8
0
 10
103.0625
 20
121.4375
 30
0.0
 40
0.05
  0
CIRCLE
  8
0
 10
103.0625
 20
122.28125
 30
0.0
 40
0.05
  0
CIRCLE
  8
0
 10
103.0625
 20
123.09375
 30
0.0
 40
0.05
  0
CIRCLE
  8
0
 10
103.0625
 20
123.90625
 30
0.0
 40
0.05
  0
CIRCLE
  8
0
 10
103.0625
 20
124.6875
 30
0.0
 40
0.05
  0
CIRCLE
  8
0
 10
103.0625
 20
125.5
 30
0.0
 40
0.05
  0
CIRCLE
  8
0
 10
103.0625
 20
126.28125
 30
0.0
 40
0.05
  0
CIRCLE
  8
0
 10
103.0625
 20
127.09375
 30
0.0
 40
0.05
  0
CIRCLE
  8
0
 10
103.0625
 20
127.90625
 30
0.0
 40
0.05
  0
CIRCLE
  8
0
 10
102.03125
 20
95.125
 30
0.0
 40
0.05
  0
CIRCLE
  8
0
 10
102.03125
 20
95.9375
 30
0.0
 40
0.05
  0
CIRCLE
  8
0
 10
102.03125
 20
96.71875
 30
0.0
 40
0.05
  0
CIRCLE
  8
0
 10
102.03125
 20
97.53125
 30
0.0
 40
0.05
  0
CIRCLE
  8
0
 10
102.03125
 20
98.34375
 30
0.0
 40
0.05
  0
CIRCLE
  8
0
 10
102.09375
 20
99.125
 30
0.0
 40
0.05
  0
CIRCLE
  8
0
 10
102.09375
 20
120.625
 30
0.0
 40
0.05
  0
CIRCLE
  8
0
 10
102.09375
 20
121.4375
 30
0.0
 40
0.05
  0
CIRCLE
  8
0
 10
102.09375
 20
122.28125
 30
0.0
 40
0.05
  0
CIRCLE
  8
0
 10
102.09375
 20
123.09375
 30
0.0
 40
0.05
  0
CIRCLE
  8
0
 10
102.09375
 20
123.90625
 30
0.0
 40
0.05
  0
CIRCLE
  8
0
 10
102.09375
 20
124.6875
 30
0.0
 40
0.05
  0
CIRCLE
  8
0
 10
102.09375
 20
125.5
 30
0.0
 40
0.05
  0
CIRCLE
  8
0
 10
102.09375
 20
126.28125
 30
0.0
 40
0.05
  0
CIRCLE
  8
0
 10
102.09375
 20
127.09375
 30
0.0
 40
0.05
  0
CIRCLE
  8
0
 10
102.09375
 20
127.90625
 30
0.0
 40
0.05
  0
CIRCLE
  8
0
 10
101.125
 20
95.125
 30
0.0
 40
0.05
  0
CIRCLE
  8
0
 10
101.125
 20
95.9375
 30
0.0
 40
0.05
  0
CIRCLE
  8
0
 10
101.125
 20
96.71875
 30
0.0
 40
0.05
  0
CIRCLE
  8
0
 10
101.125
 20
97.53125
 30
0.0
 40
0.05
  0
CIRCLE
  8
0
 10
101.125
 20
98.34375
 30
0.0
 40
0.05
  0
CIRCLE
  8
0
 10
101.0625
 20
99.125
 30
0.0
 40
0.05
  0
CIRCLE
  8
0
 10
101.65625
 20
99.9375
 30
0.0
 40
0.05
  0
CIRCLE
  8
0
 10
101.65625
 20
100.75
 30
0.0
 40
0.05
  0
CIRCLE
  8
0
 10
101.65625
 20
101.53125
 30
0.0
 40
0.05
  0
CIRCLE
  8
0
 10
101.65625
 20
102.34375
 30
0.0
 40
0.05
  0
CIRCLE
  8
0
 10
101.65625
 20
103.15625
 30
0.0
 40
0.05
  0
CIRCLE
  8
0
 10
101.65625
 20
103.9375
 30
0.0
 40
0.05
  0
CIRCLE
  8
0
 10
101.65625
 20
104.75
 30
0.0
 40
0.05
  0
CIRCLE
  8
0
 10
101.65625
 20
105.53125
 30
0.0
 40
0.05
  0
CIRCLE
  8
0
 10
101.125
 20
120.625
 30
0.0
 40
0.05
  0
CIRCLE
  8
0
 10
101.125
 20
121.4375
 30
0.0
 40
0.05
  0
CIRCLE
  8
0
 10
101.125
 20
122.28125
 30
0.0
 40
0.05
  0
CIRCLE
  8
0
 10
101.125
 20
123.09375
 30
0.0
 40
0.05
  0
CIRCLE
  8
0
 10
101.125
 20
123.90625
 30
0.0
 40
0.05
  0
CIRCLE
  8
0
 10
101.125
 20
124.6875
 30
0.0
 40
0.05
  0
CIRCLE
  8
0
 10
101.125
 20
125.5
 30
0.0
 40
0.05
  0
CIRCLE
  8
0
 10
101.125
 20
126.28125
 30
0.0
 40
0.05
  0
CIRCLE
  8
0
 10
101.125
 20
127.09375
 30
0.0
 40
0.05
  0
CIRCLE
  8
0
 10
101.125
 20
127.90625
 30
0.0
 40
0.05
  0
CIRCLE
  8
0
 10
100.03125
 20
95.125
 30
0.0
 40
0.05
  0
CIRCLE
  8
0
 10
100.03125
 20
95.9375
 30
0.0
 40
0.05
  0
CIRCLE
  8
0
 10
100.03125
 20
96.71875
 30
0.0
 40
0.05
  0
CIRCLE
  8
0
 10
100.03125
 20
97.53125
 30
0.0
 40
0.05
  0
CIRCLE
  8
0
 10
100.03125
 20
98.34375
 30
0.0
 40
0.05
  0
CIRCLE
  8
0
 10
100.03125
 20
99.125
 30
0.0
 40
0.05
  0
CIRCLE
  8
0
 10
100.53125
 20
99.9375
 30
0.0
 40
0.05
  0
CIRCLE
  8
0
 10
100.53125
 20
100.75
 30
0.0
 40
0.05
  0
CIRCLE
  8
0
 10
100.53125
 20
101.53125
 30
0.0
 40
0.05
  0
CIRCLE
  8
0
 10
100.53125
 20
102.34375
 30
0.0
 40
0.05
  0
CIRCLE
  8
0
 10
100.53125
 20
103.15625
 30
0.0
 40
0.05
  0
CIRCLE
  8
0
 10
100.53125
 20
103.9375
 30
0.0
 40
0.05
  0
CIRCLE
  8
0
 10
100.53125
 20
104.75
 30
0.0
 40
0.05
  0
CIRCLE
  8
0
 10
100.53125
 20
105.53125
 30
0.0
 40
0.05
  0
CIRCLE
  8
0
 10
100.15625
 20
120.625
 30
0.0
 40
0.05
  0
CIRCLE
  8
0
 10
100.15625
 20
121.4375
 30
0.0
 40
0.05
  0
CIRCLE
  8
0
 10
100.15625
 20
122.28125
 30
0.0
 40
0.05
  0
CIRCLE
  8
0
 10
100.15625
 20
123.09375
 30
0.0
 40
0.05
  0
CIRCLE
  8
0
 10
100.15625
 20
123.90625
 30
0.0
 40
0.05
  0
CIRCLE
  8
0
 10
100.15625
 20
124.6875
 30
0.0
 40
0.05
  0
CIRCLE
  8
0
 10
100.15625
 20
125.5
 30
0.0
 40
0.05
  0
CIRCLE
  8
0
 10
100.15625
 20
126.28125
 30
0.0
 40
0.05
  0
CIRCLE
  8
0
 10
100.15625
 20
127.09375
 30
0.0
 40
0.05
  0
CIRCLE
  8
0
 10
100.15625
 20
127.90625
 30
0.0
 40
0.05
  0
CIRCLE
  8
0
 10
98.9375
 20
95.125
 30
0.0
 40
0.05
  0
CIRCLE
  8
0
 10
98.9375
 20
95.9375
 30
0.0
 40
0.05
  0
CIRCLE
  8
0
 10
98.9375
 20
96.71875
 30
0.0
 40
0.05
  0
CIRCLE
  8
0
 10
98.9375
 20
97.53125
 30
0.0
 40
0.05
  0
CIRCLE
  8
0
 10
98.9375
 20
98.34375
 30
0.0
 40
0.05
  0
CIRCLE
  8
0
 10
99.0
 20
99.125
 30
0.0
 40
0.05
  0
CIRCLE
  8
0
 10
99.40625
 20
99.9375
 30
0.0
 40
0.05
  0
CIRCLE
  8
0
 10
99.40625
 20
100.75
 30
0.0
 40
0.05
  0
CIRCLE
  8
0
 10
99.40625
 20
101.53125
 30
0.0
 40
0.05
  0
CIRCLE
  8
0
 10
99.40625
 20
102.34375
 30
0.0
 40
0.05
  0
CIRCLE
  8
0
 10
99.40625
 20
103.15625
 30
0.0
 40
0.05
  0
CIRCLE
  8
0
 10
99.40625
 20
103.9375
 30
0.0
 40
0.05
  0
CIRCLE
  8
0
 10
99.40625
 20
104.75
 30
0.0
 40
0.05
  0
CIRCLE
  8
0
 10
99.40625
 20
105.53125
 30
0.0
 40
0.05
  0
CIRCLE
  8
0
 10
99.1875
 20
120.625
 30
0.0
 40
0.05
  0
CIRCLE
  8
0
 10
99.1875
 20
121.4375
 30
0.0
 40
0.05
  0
CIRCLE
  8
0
 10
99.1875
 20
122.28125
 30
0.0
 40
0.05
  0
CIRCLE
  8
0
 10
99.1875
 20
123.09375
 30
0.0
 40
0.05
  0
CIRCLE
  8
0
 10
99.1875
 20
123.90625
 30
0.0
 40
0.05
  0
CIRCLE
  8
0
 10
99.1875
 20
124.6875
 30
0.0
 40
0.05
  0
CIRCLE
  8
0
 10
99.1875
 20
125.5
 30
0.0
 40
0.05
  0
CIRCLE
  8
0
 10
99.1875
 20
126.28125
 30
0.0
 40
0.05
  0
CIRCLE
  8
0
 10
99.1875
 20
127.09375
 30
0.0
 40
0.05
  0
CIRCLE
  8
0
 10
99.1875
 20
127.90625
 30
0.0
 40
0.05
  0
CIRCLE
  8
0
 10
98.03125
 20
95.125
 30
0.0
 40
0.05
  0
CIRCLE
  8
0
 10
98.03125
 20
95.9375
 30
0.0
 40
0.05
  0
CIRCLE
  8
0
 10
98.03125
 20
96.71875
 30
0.0
 40
0.05
  0
CIRCLE
  8
0
 10
98.03125
 20
97.53125
 30
0.0
 40
0.05
  0
CIRCLE
  8
0
 10
98.03125
 20
98.34375
 30
0.0
 40
0.05
  0
CIRCLE
  8
0
 10
97.96875
 20
99.125
 30
0.0
 40
0.05
  0
CIRCLE
  8
0
 10
98.28125
 20
99.9375
 30
0.0
 40
0.05
  0
CIRCLE
  8
0
 10
98.28125
 20
100.75
 30
0.0
 40
0.05
  0
CIRCLE
  8
0
 10
98.28125
 20
101.53125
 30
0.0
 40
0.05
  0
CIRCLE
  8
0
 10
98.28125
 20
102.34375
 30
0.0
 40
0.05
  0
CIRCLE
  8
0
 10
98.28125
 20
103.15625
 30
0.0
 40
0.05
  0
CIRCLE
  8
0
 10
98.28125
 20
103.9375
 30
0.0
 40
0.05
  0
CIRCLE
  8
0
 10
98.28125
 20
104.75
 30
0.0
 40
0.05
  0
CIRCLE
  8
0
 10
98.28125
 20
105.53125
 30
0.0
 40
0.05
  0
CIRCLE
  8
0
 10
98.21875
 20
120.625
 30
0.0
 40
0.05
  0
CIRCLE
  8
0
 10
98.21875
 20
121.4375
 30
0.0
 40
0.05
  0
CIRCLE
  8
0
 10
98.21875
 20
122.28125
 30
0.0
 40
0.05
  0
CIRCLE
  8
0
 10
98.21875
 20
123.09375
 30
0.0
 40
0.05
  0
CIRCLE
  8
0
 10
98.21875
 20
123.90625
 30
0.0
 40
0.05
  0
CIRCLE
  8
0
 10
98.21875
 20
124.6875
 30
0.0
 40
0.05
  0
CIRCLE
  8
0
 10
98.21875
 20
125.5
 30
0.0
 40
0.05
  0
CIRCLE
  8
0
 10
98.21875
 20
126.28125
 30
0.0
 40
0.05
  0
CIRCLE
  8
0
 10
98.21875
 20
127.09375
 30
0.0
 40
0.05
  0
CIRCLE
  8
0
 10
98.21875
 20
127.90625
 30
0.0
 40
0.05
  0
CIRCLE
  8
0
 10
96.9375
 20
95.125
 30
0.0
 40
0.05
  0
CIRCLE
  8
0
 10
96.9375
 20
95.9375
 30
0.0
 40
0.05
  0
CIRCLE
  8
0
 10
96.9375
 20
96.71875
 30
0.0
 40
0.05
  0
CIRCLE
  8
0
 10
96.9375
 20
97.53125
 30
0.0
 40
0.05
  0
CIRCLE
  8
0
 10
96.9375
 20
98.34375
 30
0.0
 40
0.05
  0
CIRCLE
  8
0
 10
96.9375
 20
99.125
 30
0.0
 40
0.05
  0
CIRCLE
  8
0
 10
97.15625
 20
99.9375
 30
0.0
 40
0.05
  0
CIRCLE
  8
0
 10
97.15625
 20
100.75
 30
0.0
 40
0.05
  0
CIRCLE
  8
0
 10
97.15625
 20
101.53125
 30
0.0
 40
0.05
  0
CIRCLE
  8
0
 10
97.15625
 20
102.34375
 30
0.0
 40
0.05
  0
CIRCLE
  8
0
 10
97.15625
 20
103.15625
 30
0.0
 40
0.05
  0
CIRCLE
  8
0
 10
97.15625
 20
103.9375
 30
0.0
 40
0.05
  0
CIRCLE
  8
0
 10
97.15625
 20
104.75
 30
0.0
 40
0.05
  0
CIRCLE
  8
0
 10
97.15625
 20
105.53125
 30
0.0
 40
0.05
  0
CIRCLE
  8
0
 10
97.25
 20
120.625
 30
0.0
 40
0.05
  0
CIRCLE
  8
0
 10
97.25
 20
121.4375
 30
0.0
 40
0.05
  0
CIRCLE
  8
0
 10
97.25
 20
122.28125
 30
0.0
 40
0.05
  0
CIRCLE
  8
0
 10
97.25
 20
123.09375
 30
0.0
 40
0.05
  0
CIRCLE
  8
0
 10
97.25
 20
123.90625
 30
0.0
 40
0.05
  0
CIRCLE
  8
0
 10
97.25
 20
124.6875
 30
0.0
 40
0.05
  0
CIRCLE
  8
0
 10
97.25
 20
125.5
 30
0.0
 40
0.05
  0
CIRCLE
  8
0
 10
97.25
 20
126.28125
 30
0.0
 40
0.05
  0
CIRCLE
  8
0
 10
97.25
 20
127.09375
 30
0.0
 40
0.05
  0
CIRCLE
  8
0
 10
97.25
 20
127.90625
 30
0.0
 40
0.05
  0
CIRCLE
  8
0
 10
95.84375
 20
95.125
 30
0.0
 40
0.05
  0
CIRCLE
  8
0
 10
95.84375
 20
95.9375
 30
0.0
 40
0.05
  0
CIRCLE
  8
0
 10
95.84375
 20
96.71875
 30
0.0
 40
0.05
  0
CIRCLE
  8
0
 10
95.84375
 20
97.53125
 30
0.0
 40
0.05
  0
CIRCLE
  8
0
 10
95.84375
 20
98.34375
 30
0.0
 40
0.05
  0
CIRCLE
  8
0
 10
95.90625
 20
99.125
 30
0.0
 40
0.05
  0
CIRCLE
  8
0
 10
96.03125
 20
99.9375
 30
0.0
 40
0.05
  0
CIRCLE
  8
0
 10
96.03125
 20
100.75
 30
0.0
 40
0.05
  0
CIRCLE
  8
0
 10
96.03125
 20
101.53125
 30
0.0
 40
0.05
  0
CIRCLE
  8
0
 10
96.03125
 20
102.34375
 30
0.0
 40
0.05
  0
CIRCLE
  8
0
 10
96.03125
 20
103.15625
 30
0.0
 40
0.05
  0
CIRCLE
  8
0
 10
96.03125
 20
103.9375
 30
0.0
 40
0.05
  0
CIRCLE
  8
0
 10
96.03125
 20
104.75
 30
0.0
 40
0.05
  0
CIRCLE
  8
0
 10
96.03125
 20
105.53125
 30
0.0
 40
0.05
  0
CIRCLE
  8
0
 10
96.28125
 20
120.625
 30
0.0
 40
0.05
  0
CIRCLE
  8
0
 10
96.28125
 20
121.4375
 30
0.0
 40
0.05
  0
CIRCLE
  8
0
 10
96.28125
 20
122.28125
 30
0.0
 40
0.05
  0
CIRCLE
  8
0
 10
96.28125
 20
123.09375
 30
0.0
 40
0.05
  0
CIRCLE
  8
0
 10
96.28125
 20
123.90625
 30
0.0
 40
0.05
  0
CIRCLE
  8
0
 10
96.28125
 20
124.6875
 30
0.0
 40
0.05
  0
CIRCLE
  8
0
 10
96.28125
 20
125.5
 30
0.0
 40
0.05
  0
CIRCLE
  8
0
 10
96.28125
 20
126.28125
 30
0.0
 40
0.05
  0
CIRCLE
  8
0
 10
96.28125
 20
127.09375
 30
0.0
 40
0.05
  0
CIRCLE
  8
0
 10
96.28125
 20
127.90625
 30
0.0
 40
0.05
  0
CIRCLE
  8
0
 10
94.9375
 20
95.125
 30
0.0
 40
0.05
  0
CIRCLE
  8
0
 10
94.9375
 20
95.9375
 30
0.0
 40
0.05
  0
CIRCLE
  8
0
 10
94.9375
 20
96.71875
 30
0.0
 40
0.05
  0
CIRCLE
  8
0
 10
94.9375
 20
97.53125
 30
0.0
 40
0.05
  0
CIRCLE
  8
0
 10
94.9375
 20
98.34375
 30
0.0
 40
0.05
  0
CIRCLE
  8
0
 10
94.875
 20
99.125
 30
0.0
 40
0.05
  0
CIRCLE
  8
0
 10
94.90625
 20
99.9375
 30
0.0
 40
0.05
  0
CIRCLE
  8
0
 10
94.90625
 20
100.75
 30
0.0
 40
0.05
  0
CIRCLE
  8
0
 10
94.90625
 20
101.53125
 30
0.0
 40
0.05
  0
CIRCLE
  8
0
 10
94.90625
 20
102.34375
 30
0.0
 40
0.05
  0
CIRCLE
  8
0
 10
94.90625
 20
103.15625
 30
0.0
 40
0.05
  0
CIRCLE
  8
0
 10
94.90625
 20
103.9375
 30
0.0
 40
0.05
  0
CIRCLE
  8
0
 10
94.90625
 20
104.75
 30
0.0
 40
0.05
  0
CIRCLE
  8
0
 10
94.90625
 20
105.53125
 30
0.0
 40
0.05
  0
CIRCLE
  8
0
 10
95.3125
 20
120.625
 30
0.0
 40
0.05
  0
CIRCLE
  8
0
 10
95.3125
 20
121.4375
 30
0.0
 40
0.05
  0
CIRCLE
  8
0
 10
95.3125
 20
122.28125
 30
0.0
 40
0.05
  0
CIRCLE
  8
0
 10
95.3125
 20
123.09375
 30
0.0
 40
0.05
  0
CIRCLE
  8
0
 10
95.3125
 20
123.90625
 30
0.0
 40
0.05
  0
CIRCLE
  8
0
 10
95.3125
 20
124.6875
 30
0.0
 40
0.05
  0
CIRCLE
  8
0
 10
95.3125
 20
125.5
 30
0.0
 40
0.05
  0
CIRCLE
  8
0
 10
95.3125
 20
126.28125
 30
0.0
 40
0.05
  0
CIRCLE
  8
0
 10
95.3125
 20
127.09375
 30
0.0
 40
0.05
  0
CIRCLE
  8
0
 10
95.3125
 20
127.90625
 30
0.0
 40
0.05
  0
CIRCLE
  8
0
 10
94.34375
 20
120.625
 30
0.0
 40
0.05
  0
CIRCLE
  8
0
 10
94.34375
 20
121.4375
 30
0.0
 40
0.05
  0
CIRCLE
  8
0
 10
94.34375
 20
122.28125
 30
0.0
 40
0.05
  0
CIRCLE
  8
0
 10
94.34375
 20
123.09375
 30
0.0
 40
0.05
  0
CIRCLE
  8
0
 10
94.34375
 20
123.90625
 30
0.0
 40
0.05
  0
CIRCLE
  8
0
 10
94.34375
 20
124.6875
 30
0.0
 40
0.05
  0
CIRCLE
  8
0
 10
94.34375
 20
125.5
 30
0.0
 40
0.05
  0
CIRCLE
  8
0
 10
94.34375
 20
126.28125
 30
0.0
 40
0.05
  0
CIRCLE
  8
0
 10
94.34375
 20
127.09375
 30
0.0
 40
0.05
  0
CIRCLE
  8
0
 10
94.34375
 20
127.90625
 30
0.0
 40
0.05
  0
CIRCLE
  8
0
 10
93.84375
 20
95.125
 30
0.0
 40
0.05
  0
CIRCLE
  8
0
 10
93.84375
 20
95.9375
 30
0.0
 40
0.05
  0
CIRCLE
  8
0
 10
93.84375
 20
96.71875
 30
0.0
 40
0.05
  0
CIRCLE
  8
0
 10
93.84375
 20
97.53125
 30
0.0
 40
0.05
  0
CIRCLE
  8
0
 10
93.84375
 20
98.34375
 30
0.0
 40
0.05
  0
CIRCLE
  8
0
 10
93.84375
 20
99.125
 30
0.0
 40
0.05
  0
CIRCLE
  8
0
 10
93.78125
 20
99.9375
 30
0.0
 40
0.05
  0
CIRCLE
  8
0
 10
93.78125
 20
100.75
 30
0.0
 40
0.05
  0
CIRCLE
  8
0
 10
93.78125
 20
101.53125
 30
0.0
 40
0.05
  0
CIRCLE
  8
0
 10
93.78125
 20
102.34375
 30
0.0
 40
0.05
  0
CIRCLE
  8
0
 10
93.78125
 20
103.15625
 30
0.0
 40
0.05
  0
CIRCLE
  8
0
 10
93.78125
 20
103.9375
 30
0.0
 40
0.05
  0
CIRCLE
  8
0
 10
93.78125
 20
104.75
 30
0.0
 40
0.05
  0
CIRCLE
  8
0
 10
93.78125
 20
105.53125
 30
0.0
 40
0.05
  0
CIRCLE
  8
0
 10
93.375
 20
120.625
 30
0.0
 40
0.05
  0
CIRCLE
  8
0
 10
93.375
 20
121.4375
 30
0.0
 40
0.05
  0
CIRCLE
  8
0
 10
93.375
 20
122.28125
 30
0.0
 40
0.05
  0
CIRCLE
  8
0
 10
93.375
 20
123.09375
 30
0.0
 40
0.05
  0
CIRCLE
  8
0
 10
93.375
 20
123.90625
 30
0.0
 40
0.05
  0
CIRCLE
  8
0
 10
93.375
 20
124.6875
 30
0.0
 40
0.05
  0
CIRCLE
  8
0
 10
93.375
 20
125.5
 30
0.0
 40
0.05
  0
CIRCLE
  8
0
 10
93.375
 20
126.28125
 30
0.0
 40
0.05
  0
CIRCLE
  8
0
 10
93.375
 20
127.09375
 30
0.0
 40
0.05
  0
CIRCLE
  8
0
 10
93.375
 20
127.90625
 30
0.0
 40
0.05
  0
CIRCLE
  8
0
 10
92.75
 20
95.125
 30
0.0
 40
0.05
  0
CIRCLE
  8
0
 10
92.75
 20
95.9375
 30
0.0
 40
0.05
  0
CIRCLE
  8
0
 10
92.75
 20
96.71875
 30
0.0
 40
0.05
  0
CIRCLE
  8
0
 10
92.75
 20
97.53125
 30
0.0
 40
0.05
  0
CIRCLE
  8
0
 10
92.75
 20
98.34375
 30
0.0
 40
0.05
  0
CIRCLE
  8
0
 10
92.8125
 20
99.125
 30
0.0
 40
0.05
  0
CIRCLE
  8
0
 10
92.65625
 20
99.9375
 30
0.0
 40
0.05
  0
CIRCLE
  8
0
 10
92.65625
 20
100.75
 30
0.0
 40
0.05
  0
CIRCLE
  8
0
 10
92.65625
 20
101.53125
 30
0.0
 40
0.05
  0
CIRCLE
  8
0
 10
92.65625
 20
102.34375
 30
0.0
 40
0.05
  0
CIRCLE
  8
0
 10
92.65625
 20
103.15625
 30
0.0
 40
0.05
  0
CIRCLE
  8
0
 10
92.65625
 20
103.9375
 30
0.0
 40
0.05
  0
CIRCLE
  8
0
 10
92.65625
 20
104.75
 30
0.0
 40
0.05
  0
CIRCLE
  8
0
 10
92.65625
 20
105.53125
 30
0.0
 40
0.05
  0
CIRCLE
  8
0
 10
92.40625
 20
120.625
 30
0.0
 40
0.05
  0
CIRCLE
  8
0
 10
92.40625
 20
121.4375
 30
0.0
 40
0.05
  0
CIRCLE
  8
0
 10
92.40625
 20
122.28125
 30
0.0
 40
0.05
  0
CIRCLE
  8
0
 10
92.40625
 20
123.09375
 30
0.0
 40
0.05
  0
CIRCLE
  8
0
 10
92.40625
 20
123.90625
 30
0.0
 40
0.05
  0
CIRCLE
  8
0
 10
92.40625
 20
124.6875
 30
0.0
 40
0.05
  0
CIRCLE
  8
0
 10
92.40625
 20
125.5
 30
0.0
 40
0.05
  0
CIRCLE
  8
0
 10
92.40625
 20
126.28125
 30
0.0
 40
0.05
  0
CIRCLE
  8
0
 10
92.40625
 20
127.09375
 30
0.0
 40
0.05
  0
CIRCLE
  8
0
 10
92.40625
 20
127.90625
 30
0.0
 40
0.05
  0
CIRCLE
  8
0
 10
91.84375
 20
95.125
 30
0.0
 40
0.05
  0
CIRCLE
  8
0
 10
91.84375
 20
95.9375
 30
0.0
 40
0.05
  0
CIRCLE
  8
0
 10
91.84375
 20
96.71875
 30
0.0
 40
0.05
  0
CIRCLE
  8
0
 10
91.84375
 20
97.53125
 30
0.0
 40
0.05
  0
CIRCLE
  8
0
 10
91.84375
 20
98.34375
 30
0.0
 40
0.05
  0
CIRCLE
  8
0
 10
91.78125
 20
99.125
 30
0.0
 40
0.05
  0
CIRCLE
  8
0
 10
91.53125
 20
99.9375
 30
0.0
 40
0.05
  0
CIRCLE
  8
0
 10
91.53125
 20
100.75
 30
0.0
 40
0.05
  0
CIRCLE
  8
0
 10
91.53125
 20
101.53125
 30
0.0
 40
0.05
  0
CIRCLE
  8
0
 10
91.53125
 20
102.34375
 30
0.0
 40
0.05
  0
CIRCLE
  8
0
 10
91.53125
 20
103.15625
 30
0.0
 40
0.05
  0
CIRCLE
  8
0
 10
91.53125
 20
103.9375
 30
0.0
 40
0.05
  0
CIRCLE
  8
0
 10
91.53125
 20
104.75
 30
0.0
 40
0.05
  0
CIRCLE
  8
0
 10
91.53125
 20
105.53125
 30
0.0
 40
0.05
  0
CIRCLE
  8
0
 10
91.4375
 20
120.625
 30
0.0
 40
0.05
  0
CIRCLE
  8
0
 10
91.4375
 20
121.4375
 30
0.0
 40
0.05
  0
CIRCLE
  8
0
 10
91.4375
 20
122.28125
 30
0.0
 40
0.05
  0
CIRCLE
  8
0
 10
91.4375
 20
123.09375
 30
0.0
 40
0.05
  0
CIRCLE
  8
0
 10
91.4375
 20
123.90625
 30
0.0
 40
0.05
  0
CIRCLE
  8
0
 10
91.4375
 20
124.6875
 30
0.0
 40
0.05
  0
CIRCLE
  8
0
 10
91.4375
 20
125.5
 30
0.0
 40
0.05
  0
CIRCLE
  8
0
 10
91.4375
 20
126.28125
 30
0.0
 40
0.05
  0
CIRCLE
  8
0
 10
91.4375
 20
127.09375
 30
0.0
 40
0.05
  0
CIRCLE
  8
0
 10
91.4375
 20
127.90625
 30
0.0
 40
0.05
  0
CIRCLE
  8
0
 10
90.75
 20
95.125
 30
0.0
 40
0.05
  0
CIRCLE
  8
0
 10
90.75
 20
95.9375
 30
0.0
 40
0.05
  0
CIRCLE
  8
0
 10
90.75
 20
96.71875
 30
0.0
 40
0.05
  0
CIRCLE
  8
0
 10
90.75
 20
97.53125
 30
0.0
 40
0.05
  0
CIRCLE
  8
0
 10
90.75
 20
98.34375
 30
0.0
 40
0.05
  0
CIRCLE
  8
0
 10
90.75
 20
99.125
 30
0.0
 40
0.05
  0
CIRCLE
  8
0
 10
90.40625
 20
99.9375
 30
0.0
 40
0.05
  0
CIRCLE
  8
0
 10
90.40625
 20
100.75
 30
0.0
 40
0.05
  0
CIRCLE
  8
0
 10
90.40625
 20
101.53125
 30
0.0
 40
0.05
  0
CIRCLE
  8
0
 10
90.40625
 20
102.34375
 30
0.0
 40
0.05
  0
CIRCLE
  8
0
 10
90.40625
 20
103.15625
 30
0.0
 40
0.05
  0
CIRCLE
  8
0
 10
90.40625
 20
103.9375
 30
0.0
 40
0.05
  0
CIRCLE
  8
0
 10
90.40625
 20
104.75
 30
0.0
 40
0.05
  0
CIRCLE
  8
0
 10
90.40625
 20
105.53125
 30
0.0
 40
0.05
  0
CIRCLE
  8
0
 10
90.46875
 20
120.625
 30
0.0
 40
0.05
  0
CIRCLE
  8
0
 10
90.46875
 20
121.4375
 30
0.0
 40
0.05
  0
CIRCLE
  8
0
 10
90.46875
 20
122.28125
 30
0.0
 40
0.05
  0
CIRCLE
  8
0
 10
90.46875
 20
123.09375
 30
0.0
 40
0.05
  0
CIRCLE
  8
0
 10
90.46875
 20
123.90625
 30
0.0
 40
0.05
  0
CIRCLE
  8
0
 10
90.46875
 20
124.6875
 30
0.0
 40
0.05
  0
CIRCLE
  8
0
 10
90.46875
 20
125.5
 30
0.0
 40
0.05
  0
CIRCLE
  8
0
 10
90.46875
 20
126.28125
 30
0.0
 40
0.05
  0
CIRCLE
  8
0
 10
90.46875
 20
127.09375
 30
0.0
 40
0.05
  0
CIRCLE
  8
0
 10
90.46875
 20
127.90625
 30
0.0
 40
0.05
  0
CIRCLE
  8
0
 10
89.65625
 20
95.125
 30
0.0
 40
0.05
  0
CIRCLE
  8
0
 10
89.65625
 20
95.9375
 30
0.0
 40
0.05
  0
CIRCLE
  8
0
 10
89.65625
 20
96.71875
 30
0.0
 40
0.05
  0
CIRCLE
  8
0
 10
89.65625
 20
97.53125
 30
0.0
 40
0.05
  0
CIRCLE
  8
0
 10
89.65625
 20
98.34375
 30
0.0
 40
0.05
  0
CIRCLE
  8
0
 10
89.71875
 20
99.125
 30
0.0
 40
0.05
  0
CIRCLE
  8
0
 10
89.28125
 20
99.9375
 30
0.0
 40
0.05
  0
CIRCLE
  8
0
 10
89.28125
 20
100.75
 30
0.0
 40
0.05
  0
CIRCLE
  8
0
 10
89.28125
 20
101.53125
 30
0.0
 40
0.05
  0
CIRCLE
  8
0
 10
89.28125
 20
102.34375
 30
0.0
 40
0.05
  0
CIRCLE
  8
0
 10
89.28125
 20
103.15625
 30
0.0
 40
0.05
  0
CIRCLE
  8
0
 10
89.28125
 20
103.9375
 30
0.0
 40
0.05
  0
CIRCLE
  8
0
 10
89.28125
 20
104.75
 30
0.0
 40
0.05
  0
CIRCLE
  8
0
 10
89.28125
 20
105.53125
 30
0.0
 40
0.05
  0
CIRCLE
  8
0
 10
89.5
 20
120.625
 30
0.0
 40
0.05
  0
CIRCLE
  8
0
 10
89.5
 20
121.4375
 30
0.0
 40
0.05
  0
CIRCLE
  8
0
 10
89.5
 20
122.28125
 30
0.0
 40
0.05
  0
CIRCLE
  8
0
 10
89.5
 20
123.09375
 30
0.0
 40
0.05
  0
CIRCLE
  8
0
 10
89.5
 20
123.90625
 30
0.0
 40
0.05
  0
CIRCLE
  8
0
 10
89.5
 20
124.6875
 30
0.0
 40
0.05
  0
CIRCLE
  8
0
 10
89.5
 20
125.5
 30
0.0
 40
0.05
  0
CIRCLE
  8
0
 10
89.5
 20
126.28125
 30
0.0
 40
0.05
  0
CIRCLE
  8
0
 10
89.5
 20
127.09375
 30
0.0
 40
0.05
  0
CIRCLE
  8
0
 10
89.5
 20
127.90625
 30
0.0
 40
0.05
  0
CIRCLE
  8
0
 10
88.75
 20
95.125
 30
0.0
 40
0.05
  0
CIRCLE
  8
0
 10
88.75
 20
95.9375
 30
0.0
 40
0.05
  0
CIRCLE
  8
0
 10
88.75
 20
96.71875
 30
0.0
 40
0.05
  0
CIRCLE
  8
0
 10
88.75
 20
97.53125
 30
0.0
 40
0.05
  0
CIRCLE
  8
0
 10
88.75
 20
98.34375
 30
0.0
 40
0.05
  0
CIRCLE
  8
0
 10
88.6875
 20
99.125
 30
0.0
 40
0.05
  0
CIRCLE
  8
0
 10
88.15625
 20
99.9375
 30
0.0
 40
0.05
  0
CIRCLE
  8
0
 10
88.15625
 20
100.75
 30
0.0
 40
0.05
  0
CIRCLE
  8
0
 10
88.15625
 20
101.53125
 30
0.0
 40
0.05
  0
CIRCLE
  8
0
 10
88.15625
 20
102.34375
 30
0.0
 40
0.05
  0
CIRCLE
  8
0
 10
88.15625
 20
103.15625
 30
0.0
 40
0.05
  0
CIRCLE
  8
0
 10
88.15625
 20
103.9375
 30
0.0
 40
0.05
  0
CIRCLE
  8
0
 10
88.15625
 20
104.75
 30
0.0
 40
0.05
  0
CIRCLE
  8
0
 10
88.15625
 20
105.53125
 30
0.0
 40
0.05
  0
CIRCLE
  8
0
 10
88.53125
 20
120.625
 30
0.0
 40
0.05
  0
CIRCLE
  8
0
 10
88.53125
 20
121.4375
 30
0.0
 40
0.05
  0
CIRCLE
  8
0
 10
88.53125
 20
122.28125
 30
0.0
 40
0.05
  0
CIRCLE
  8
0
 10
88.53125
 20
123.09375
 30
0.0
 40
0.05
  0
CIRCLE
  8
0
 10
88.53125
 20
123.90625
 30
0.0
 40
0.05
  0
CIRCLE
  8
0
 10
88.53125
 20
124.6875
 30
0.0
 40
0.05
  0
CIRCLE
  8
0
 10
88.53125
 20
125.5
 30
0.0
 40
0.05
  0
CIRCLE
  8
0
 10
88.53125
 20
126.28125
 30
0.0
 40
0.05
  0
CIRCLE
  8
0
 10
88.53125
 20
127.09375
 30
0.0
 40
0.05
  0
CIRCLE
  8
0
 10
88.53125
 20
127.90625
 30
0.0
 40
0.05
  0
CIRCLE
  8
0
 10
87.65625
 20
95.125
 30
0.0
 40
0.05
  0
CIRCLE
  8
0
 10
87.65625
 20
95.9375
 30
0.0
 40
0.05
  0
CIRCLE
  8
0
 10
87.65625
 20
96.71875
 30
0.0
 40
0.05
  0
CIRCLE
  8
0
 10
87.65625
 20
97.53125
 30
0.0
 40
0.05
  0
CIRCLE
  8
0
 10
87.65625
 20
98.34375
 30
0.0
 40
0.05
  0
CIRCLE
  8
0
 10
87.65625
 20
99.125
 30
0.0
 40
0.05
  0
CIRCLE
  8
0
 10
87.5625
 20
120.625
 30
0.0
 40
0.05
  0
CIRCLE
  8
0
 10
87.5625
 20
121.4375
 30
0.0
 40
0.05
  0
CIRCLE
  8
0
 10
87.5625
 20
122.28125
 30
0.0
 40
0.05
  0
CIRCLE
  8
0
 10
87.5625
 20
123.09375
 30
0.0
 40
0.05
  0
CIRCLE
  8
0
 10
87.5625
 20
123.90625
 30
0.0
 40
0.05
  0
CIRCLE
  8
0
 10
87.5625
 20
124.6875
 30
0.0
 40
0.05
  0
CIRCLE
  8
0
 10
87.5625
 20
125.5
 30
0.0
 40
0.05
  0
CIRCLE
  8
0
 10
87.5625
 20
126.28125
 30
0.0
 40
0.05
  0
CIRCLE
  8
0
 10
87.5625
 20
127.09375
 30
0.0
 40
0.05
  0
CIRCLE
  8
0
 10
87.5625
 20
127.90625
 30
0.0
 40
0.05
  0
CIRCLE
  8
0
 10
86.5625
 20
95.125
 30
0.0
 40
0.05
  0
CIRCLE
  8
0
 10
86.5625
 20
95.9375
 30
0.0
 40
0.05
  0
CIRCLE
  8
0
 10
86.5625
 20
96.71875
 30
0.0
 40
0.05
  0
CIRCLE
  8
0
 10
86.5625
 20
97.53125
 30
0.0
 40
0.05
  0
CIRCLE
  8
0
 10
86.5625
 20
98.34375
 30
0.0
 40
0.05
  0
CIRCLE
  8
0
 10
86.625
 20
99.125
 30
0.0
 40
0.05
  0
CIRCLE
  8
0
 10
87.03125
 20
99.9375
 30
0.0
 40
0.05
  0
CIRCLE
  8
0
 10
87.03125
 20
100.75
 30
0.0
 40
0.05
  0
CIRCLE
  8
0
 10
87.03125
 20
101.53125
 30
0.0
 40
0.05
  0
CIRCLE
  8
0
 10
87.03125
 20
102.34375
 30
0.0
 40
0.05
  0
CIRCLE
  8
0
 10
87.03125
 20
103.15625
 30
0.0
 40
0.05
  0
CIRCLE
  8
0
 10
87.03125
 20
103.9375
 30
0.0
 40
0.05
  0
CIRCLE
  8
0
 10
87.03125
 20
104.75
 30
0.0
 40
0.05
  0
CIRCLE
  8
0
 10
87.03125
 20
105.53125
 30
0.0
 40
0.05
  0
CIRCLE
  8
0
 10
86.59375
 20
120.625
 30
0.0
 40
0.05
  0
CIRCLE
  8
0
 10
86.59375
 20
121.4375
 30
0.0
 40
0.05
  0
CIRCLE
  8
0
 10
86.59375
 20
122.28125
 30
0.0
 40
0.05
  0
CIRCLE
  8
0
 10
86.59375
 20
123.09375
 30
0.0
 40
0.05
  0
CIRCLE
  8
0
 10
86.59375
 20
123.90625
 30
0.0
 40
0.05
  0
CIRCLE
  8
0
 10
86.59375
 20
124.6875
 30
0.0
 40
0.05
  0
CIRCLE
  8
0
 10
86.59375
 20
125.5
 30
0.0
 40
0.05
  0
CIRCLE
  8
0
 10
86.59375
 20
126.28125
 30
0.0
 40
0.05
  0
CIRCLE
  8
0
 10
86.59375
 20
127.09375
 30
0.0
 40
0.05
  0
CIRCLE
  8
0
 10
86.59375
 20
127.90625
 30
0.0
 40
0.05
  0
CIRCLE
  8
0
 10
85.65625
 20
95.125
 30
0.0
 40
0.05
  0
CIRCLE
  8
0
 10
85.65625
 20
95.9375
 30
0.0
 40
0.05
  0
CIRCLE
  8
0
 10
85.65625
 20
96.71875
 30
0.0
 40
0.05
  0
CIRCLE
  8
0
 10
85.65625
 20
97.53125
 30
0.0
 40
0.05
  0
CIRCLE
  8
0
 10
85.65625
 20
98.34375
 30
0.0
 40
0.05
  0
CIRCLE
  8
0
 10
85.59375
 20
99.125
 30
0.0
 40
0.05
  0
CIRCLE
  8
0
 10
85.90625
 20
99.9375
 30
0.0
 40
0.05
  0
CIRCLE
  8
0
 10
85.90625
 20
100.75
 30
0.0
 40
0.05
  0
CIRCLE
  8
0
 10
85.90625
 20
101.53125
 30
0.0
 40
0.05
  0
CIRCLE
  8
0
 10
85.90625
 20
102.34375
 30
0.0
 40
0.05
  0
CIRCLE
  8
0
 10
85.90625
 20
103.15625
 30
0.0
 40
0.05
  0
CIRCLE
  8
0
 10
85.90625
 20
103.9375
 30
0.0
 40
0.05
  0
CIRCLE
  8
0
 10
85.90625
 20
104.75
 30
0.0
 40
0.05
  0
CIRCLE
  8
0
 10
85.90625
 20
105.53125
 30
0.0
 40
0.05
  0
CIRCLE
  8
0
 10
85.625
 20
120.625
 30
0.0
 40
0.05
  0
CIRCLE
  8
0
 10
85.625
 20
121.4375
 30
0.0
 40
0.05
  0
CIRCLE
  8
0
 10
85.625
 20
122.28125
 30
0.0
 40
0.05
  0
CIRCLE
  8
0
 10
85.625
 20
123.09375
 30
0.0
 40
0.05
  0
CIRCLE
  8
0
 10
85.625
 20
123.90625
 30
0.0
 40
0.05
  0
CIRCLE
  8
0
 10
85.625
 20
124.6875
 30
0.0
 40
0.05
  0
CIRCLE
  8
0
 10
85.625
 20
125.5
 30
0.0
 40
0.05
  0
CIRCLE
  8
0
 10
85.625
 20
126.28125
 30
0.0
 40
0.05
  0
CIRCLE
  8
0
 10
85.625
 20
127.09375
 30
0.0
 40
0.05
  0
CIRCLE
  8
0
 10
85.625
 20
127.90625
 30
0.0
 40
0.05
  0
CIRCLE
  8
0
 10
84.25
 20
95.125
 30
0.0
 40
0.05
  0
CIRCLE
  8
0
 10
84.5625
 20
95.9375
 30
0.0
 40
0.05
  0
CIRCLE
  8
0
 10
84.5625
 20
96.71875
 30
0.0
 40
0.05
  0
CIRCLE
  8
0
 10
84.5625
 20
97.53125
 30
0.0
 40
0.05
  0
CIRCLE
  8
0
 10
84.5625
 20
98.34375
 30
0.0
 40
0.05
  0
CIRCLE
  8
0
 10
84.5625
 20
99.125
 30
0.0
 40
0.05
  0
CIRCLE
  8
0
 10
84.78125
 20
99.9375
 30
0.0
 40
0.05
  0
CIRCLE
  8
0
 10
84.78125
 20
100.75
 30
0.0
 40
0.05
  0
CIRCLE
  8
0
 10
84.78125
 20
101.53125
 30
0.0
 40
0.05
  0
CIRCLE
  8
0
 10
84.78125
 20
102.34375
 30
0.0
 40
0.05
  0
CIRCLE
  8
0
 10
84.78125
 20
103.15625
 30
0.0
 40
0.05
  0
CIRCLE
  8
0
 10
84.78125
 20
103.9375
 30
0.0
 40
0.05
  0
CIRCLE
  8
0
 10
84.78125
 20
104.75
 30
0.0
 40
0.05
  0
CIRCLE
  8
0
 10
84.84375
 20
105.53125
 30
0.0
 40
0.05
  0
CIRCLE
  8
0
 10
84.8125
 20
120.625
 30
0.0
 40
0.05
  0
CIRCLE
  8
0
 10
84.65625
 20
121.4375
 30
0.0
 40
0.05
  0
CIRCLE
  8
0
 10
84.65625
 20
122.28125
 30
0.0
 40
0.05
  0
CIRCLE
  8
0
 10
84.65625
 20
123.09375
 30
0.0
 40
0.05
  0
CIRCLE
  8
0
 10
84.65625
 20
123.90625
 30
0.0
 40
0.05
  0
CIRCLE
  8
0
 10
84.65625
 20
124.6875
 30
0.0
 40
0.05
  0
CIRCLE
  8
0
 10
84.65625
 20
125.5
 30
0.0
 40
0.05
  0
CIRCLE
  8
0
 10
84.65625
 20
126.28125
 30
0.0
 40
0.05
  0
CIRCLE
  8
0
 10
84.65625
 20
127.09375
 30
0.0
 40
0.05
  0
CIRCLE
  8
0
 10
84.65625
 20
127.90625
 30
0.0
 40
0.05
  0
CIRCLE
  8
0
 10
83.65625
 20
99.9375
 30
0.0
 40
0.05
  0
CIRCLE
  8
0
 10
83.65625
 20
100.75
 30
0.0
 40
0.05
  0
CIRCLE
  8
0
 10
83.65625
 20
101.53125
 30
0.0
 40
0.05
  0
CIRCLE
  8
0
 10
83.65625
 20
102.34375
 30
0.0
 40
0.05
  0
CIRCLE
  8
0
 10
83.65625
 20
103.15625
 30
0.0
 40
0.05
  0
CIRCLE
  8
0
 10
83.78125
 20
104.09375
 30
0.0
 40
0.05
  0
CIRCLE
  8
0
 10
84.125
 20
105.1875
 30
0.0
 40
0.05
  0
CIRCLE
  8
0
 10
84.1875
 20
106.03125
 30
0.0
 40
0.05
  0
CIRCLE
  8
0
 10
84.1875
 20
106.9375
 30
0.0
 40
0.05
  0
CIRCLE
  8
0
 10
84.1875
 20
107.90625
 30
0.0
 40
0.05
  0
CIRCLE
  8
0
 10
84.1875
 20
108.875
 30
0.0
 40
0.05
  0
CIRCLE
  8
0
 10
84.1875
 20
109.84375
 30
0.0
 40
0.05
  0
CIRCLE
  8
0
 10
84.1875
 20
110.8125
 30
0.0
 40
0.05
  0
CIRCLE
  8
0
 10
84.1875
 20
111.78125
 30
0.0
 40
0.05
  0
CIRCLE
  8
0
 10
84.1875
 20
112.75
 30
0.0
 40
0.05
  0
CIRCLE
  8
0
 10
84.1875
 20
113.71875
 30
0.0
 40
0.05
  0
CIRCLE
  8
0
 10
84.1875
 20
114.6875
 30
0.0
 40
0.05
  0
CIRCLE
  8
0
 10
84.1875
 20
115.65625
 30
0.0
 40
0.05
  0
CIRCLE
  8
0
 10
84.1875
 20
116.625
 30
0.0
 40
0.05
  0
CIRCLE
  8
0
 10
84.1875
 20
117.59375
 30
0.0
 40
0.05
  0
CIRCLE
  8
0
 10
84.1875
 20
118.5625
 30
0.0
 40
0.05
  0
CIRCLE
  8
0
 10
84.1875
 20
119.53125
 30
0.0
 40
0.05
  0
CIRCLE
  8
0
 10
84.0625
 20
120.34375
 30
0.0
 40
0.05
  0
CIRCLE
  8
0
 10
83.875
 20
121.40625
 30
0.0
 40
0.05
  0
CIRCLE
  8
0
 10
83.6875
 20
122.28125
 30
0.0
 40
0.05
  0
CIRCLE
  8
0
 10
83.6875
 20
123.09375
 30
0.0
 40
0.05
  0
CIRCLE
  8
0
 10
83.6875
 20
123.90625
 30
0.0
 40
0.05
  0
CIRCLE
  8
0
 10
83.6875
 20
124.6875
 30
0.0
 40
0.05
  0
CIRCLE
  8
0
 10
83.6875
 20
125.5
 30
0.0
 40
0.05
  0
CIRCLE
  8
0
 10
83.6875
 20
126.28125
 30
0.0
 40
0.05
  0
CIRCLE
  8
0
 10
83.6875
 20
127.09375
 30
0.0
 40
0.05
  0
CIRCLE
  8
0
 10
83.75
 20
127.90625
 30
0.0
 40
0.05
  0
CIRCLE
  8
0
 10
83.0
 20
95.125
 30
0.0
 40
0.05
  0
CIRCLE
  8
0
 10
83.53125
 20
95.9375
 30
0.0
 40
0.05
  0
CIRCLE
  8
0
 10
83.53125
 20
96.71875
 30
0.0
 40
0.05
  0
CIRCLE
  8
0
 10
83.53125
 20
97.53125
 30
0.0
 40
0.05
  0
CIRCLE
  8
0
 10
83.53125
 20
98.34375
 30
0.0
 40
0.05
  0
CIRCLE
  8
0
 10
83.53125
 20
99.125
 30
0.0
 40
0.05
  0
CIRCLE
  8
0
 10
83.375
 20
104.84375
 30
0.0
 40
0.05
  0
CIRCLE
  8
0
 10
83.375
 20
105.96875
 30
0.0
 40
0.05
  0
CIRCLE
  8
0
 10
83.375
 20
106.9375
 30
0.0
 40
0.05
  0
CIRCLE
  8
0
 10
83.375
 20
107.90625
 30
0.0
 40
0.05
  0
CIRCLE
  8
0
 10
83.375
 20
108.875
 30
0.0
 40
0.05
  0
CIRCLE
  8
0
 10
83.375
 20
109.84375
 30
0.0
 40
0.05
  0
CIRCLE
  8
0
 10
83.375
 20
110.8125
 30
0.0
 40
0.05
  0
CIRCLE
  8
0
 10
83.375
 20
111.78125
 30
0.0
 40
0.05
  0
CIRCLE
  8
0
 10
83.375
 20
112.75
 30
0.0
 40
0.05
  0
CIRCLE
  8
0
 10
83.375
 20
113.71875
 30
0.0
 40
0.05
  0
CIRCLE
  8
0
 10
83.375
 20
114.6875
 30
0.0
 40
0.05
  0
CIRCLE
  8
0
 10
83.375
 20
115.65625
 30
0.0
 40
0.05
  0
CIRCLE
  8
0
 10
83.375
 20
116.625
 30
0.0
 40
0.05
  0
CIRCLE
  8
0
 10
83.375
 20
117.59375
 30
0.0
 40
0.05
  0
CIRCLE
  8
0
 10
83.375
 20
118.5625
 30
0.0
 40
0.05
  0
CIRCLE
  8
0
 10
83.375
 20
119.53125
 30
0.0
 40
0.05
  0
CIRCLE
  8
0
 10
83.375
 20
120.75
 30
0.0
 40
0.05
  0
CIRCLE
  8
0
 10
82.5
 20
95.9375
 30
0.0
 40
0.05
  0
CIRCLE
  8
0
 10
82.5625
 20
96.71875
 30
0.0
 40
0.05
  0
CIRCLE
  8
0
 10
82.5625
 20
97.53125
 30
0.0
 40
0.05
  0
CIRCLE
  8
0
 10
82.5625
 20
98.34375
 30
0.0
 40
0.05
  0
CIRCLE
  8
0
 10
82.5
 20
99.125
 30
0.0
 40
0.05
  0
CIRCLE
  8
0
 10
82.5625
 20
100.03125
 30
0.0
 40
0.05
  0
CIRCLE
  8
0
 10
82.5625
 20
101.125
 30
0.0
 40
0.05
  0
CIRCLE
  8
0
 10
82.5625
 20
102.09375
 30
0.0
 40
0.05
  0
CIRCLE
  8
0
 10
82.5625
 20
103.0625
 30
0.0
 40
0.05
  0
CIRCLE
  8
0
 10
82.5625
 20
104.03125
 30
0.0
 40
0.05
  0
CIRCLE
  8
0
 10
82.5625
 20
105.0
 30
0.0
 40
0.05
  0
CIRCLE
  8
0
 10
82.5625
 20
105.96875
 30
0.0
 40
0.05
  0
CIRCLE
  8
0
 10
82.5625
 20
106.9375
 30
0.0
 40
0.05
  0
CIRCLE
  8
0
 10
82.5625
 20
107.90625
 30
0.0
 40
0.05
  0
CIRCLE
  8
0
 10
82.5625
 20
108.875
 30
0.0
 40
0.05
  0
CIRCLE
  8
0
 10
82.5625
 20
109.84375
 30
0.0
 40
0.05
  0
CIRCLE
  8
0
 10
82.5625
 20
110.8125
 30
0.0
 40
0.05
  0
CIRCLE
  8
0
 10
82.5625
 20
111.78125
 30
0.0
 40
0.05
  0
CIRCLE
  8
0
 10
82.5625
 20
112.75
 30
0.0
 40
0.05
  0
CIRCLE
  8
0
 10
82.5625
 20
113.71875
 30
0.0
 40
0.05
  0
CIRCLE
  8
0
 10
82.5625
 20
114.6875
 30
0.0
 40
0.05
  0
CIRCLE
  8
0
 10
82.5625
 20
115.65625
 30
0.0
 40
0.05
  0
CIRCLE
  8
0
 10
82.5625
 20
116.625
 30
0.0
 40
0.05
  0
CIRCLE
  8
0
 10
82.5625
 20
117.59375
 30
0.0
 40
0.05
  0
CIRCLE
  8
0
 10
82.5625
 20
118.5625
 30
0.0
 40
0.05
  0
CIRCLE
  8
0
 10
82.5625
 20
119.53125
 30
0.0
 40
0.05
  0
CIRCLE
  8
0
 10
82.5625
 20
120.5
 30
0.0
 40
0.05
  0
CIRCLE
  8
0
 10
82.71875
 20
121.5
 30
0.0
 40
0.05
  0
CIRCLE
  8
0
 10
82.71875
 20
122.28125
 30
0.0
 40
0.05
  0
CIRCLE
  8
0
 10
82.71875
 20
123.09375
 30
0.0
 40
0.05
  0
CIRCLE
  8
0
 10
82.71875
 20
123.90625
 30
0.0
 40
0.05
  0
CIRCLE
  8
0
 10
82.71875
 20
124.6875
 30
0.0
 40
0.05
  0
CIRCLE
  8
0
 10
82.71875
 20
125.5
 30
0.0
 40
0.05
  0
CIRCLE
  8
0
 10
82.71875
 20
126.28125
 30
0.0
 40
0.05
  0
CIRCLE
  8
0
 10
82.71875
 20
127.09375
 30
0.0
 40
0.05
  0
CIRCLE
  8
0
 10
82.8125
 20
127.90625
 30
0.0
 40
0.05
  0
CIRCLE
  8
0
 10
82.03125
 20
95.125
 30
0.0
 40
0.05
  0
CIRCLE
  8
0
 10
81.75
 20
96.3125
 30
0.0
 40
0.05
  0
CIRCLE
  8
0
 10
81.65625
 20
97.125
 30
0.0
 40
0.05
  0
CIRCLE
  8
0
 10
81.65625
 20
98.25
 30
0.0
 40
0.05
  0
CIRCLE
  8
0
 10
81.53125
 20
99.03125
 30
0.0
 40
0.05
  0
CIRCLE
  8
0
 10
81.78125
 20
100.15625
 30
0.0
 40
0.05
  0
CIRCLE
  8
0
 10
81.78125
 20
101.125
 30
0.0
 40
0.05
  0
CIRCLE
  8
0
 10
81.78125
 20
102.09375
 30
0.0
 40
0.05
  0
CIRCLE
  8
0
 10
81.78125
 20
103.0625
 30
0.0
 40
0.05
  0
CIRCLE
  8
0
 10
81.78125
 20
104.03125
 30
0.0
 40
0.05
  0
CIRCLE
  8
0
 10
81.78125
 20
105.0
 30
0.0
 40
0.05
  0
CIRCLE
  8
0
 10
81.78125
 20
105.96875
 30
0.0
 40
0.05
  0
CIRCLE
  8
0
 10
81.78125
 20
106.9375
 30
0.0
 40
0.05
  0
CIRCLE
  8
0
 10
81.78125
 20
107.90625
 30
0.0
 40
0.05
  0
CIRCLE
  8
0
 10
81.78125
 20
108.875
 30
0.0
 40
0.05
  0
CIRCLE
  8
0
 10
81.78125
 20
109.84375
 30
0.0
 40
0.05
  0
CIRCLE
  8
0
 10
81.78125
 20
110.8125
 30
0.0
 40
0.05
  0
CIRCLE
  8
0
 10
81.78125
 20
111.78125
 30
0.0
 40
0.05
  0
CIRCLE
  8
0
 10
81.78125
 20
112.75
 30
0.0
 40
0.05
  0
CIRCLE
  8
0
 10
81.78125
 20
113.71875
 30
0.0
 40
0.05
  0
CIRCLE
  8
0
 10
81.78125
 20
114.6875
 30
0.0
 40
0.05
  0
CIRCLE
  8
0
 10
81.78125
 20
115.65625
 30
0.0
 40
0.05
  0
CIRCLE
  8
0
 10
81.78125
 20
116.625
 30
0.0
 40
0.05
  0
CIRCLE
  8
0
 10
81.78125
 20
117.59375
 30
0.0
 40
0.05
  0
CIRCLE
  8
0
 10
81.78125
 20
118.5625
 30
0.0
 40
0.05
  0
CIRCLE
  8
0
 10
81.78125
 20
119.53125
 30
0.0
 40
0.05
  0
CIRCLE
  8
0
 10
81.78125
 20
120.5
 30
0.0
 40
0.05
  0
CIRCLE
  8
0
 10
81.78125
 20
121.46875
 30
0.0
 40
0.05
  0
CIRCLE
  8
0
 10
81.78125
 20
122.4375
 30
0.0
 40
0.05
  0
CIRCLE
  8
0
 10
81.78125
 20
123.40625
 30
0.0
 40
0.05
  0
CIRCLE
  8
0
 10
81.78125
 20
124.375
 30
0.0
 40
0.05
  0
CIRCLE
  8
0
 10
81.78125
 20
125.34375
 30
0.0
 40
0.05
  0
CIRCLE
  8
0
 10
81.8125
 20
126.28125
 30
0.0
 40
0.05
  0
CIRCLE
  8
0
 10
81.8125
 20
127.09375
 30
0.0
 40
0.05
  0
CIRCLE
  8
0
 10
81.9375
 20
127.90625
 30
0.0
 40
0.05
  0
CIRCLE
  8
0
 10
81.0625
 20
95.125
 30
0.0
 40
0.05
  0
CIRCLE
  8
0
 10
81.03125
 20
95.9375
 30
0.0
 40
0.05
  0
CIRCLE
  8
0
 10
80.9375
 20
96.71875
 30
0.0
 40
0.05
  0
CIRCLE
  8
0
 10
81.03125
 20
97.71875
 30
0.0
 40
0.05
  0
CIRCLE
  8
0
 10
80.84375
 20
98.5
 30
0.0
 40
0.05
  0
CIRCLE
  8
0
 10
80.96875
 20
100.15625
 30
0.0
 40
0.05
  0
CIRCLE
  8
0
 10
80.96875
 20
101.125
 30
0.0
 40
0.05
  0
CIRCLE
  8
0
 10
80.96875
 20
102.09375
 30
0.0
 40
0.05
  0
CIRCLE
  8
0
 10
80.96875
 20
103.0625
 30
0.0
 40
0.05
  0
CIRCLE
  8
0
 10
80.96875
 20
104.03125
 30
0.0
 40
0.05
  0
CIRCLE
  8
0
 10
80.96875
 20
105.0
 30
0.0
 40
0.05
  0
CIRCLE
  8
0
 10
80.96875
 20
105.96875
 30
0.0
 40
0.05
  0
CIRCLE
  8
0
 10
80.96875
 20
106.9375
 30
0.0
 40
0.05
  0
CIRCLE
  8
0
 10
80.96875
 20
107.90625
 30
0.0
 40
0.05
  0
CIRCLE
  8
0
 10
80.96875
 20
108.875
 30
0.0
 40
0.05
  0
CIRCLE
  8
0
 10
80.96875
 20
109.84375
 30
0.0
 40
0.05
  0
CIRCLE
  8
0
 10
80.96875
 20
110.8125
 30
0.0
 40
0.05
  0
CIRCLE
  8
0
 10
80.96875
 20
111.78125
 30
0.0
 40
0.05
  0
CIRCLE
  8
0
 10
80.96875
 20
112.75
 30
0.0
 40
0.05
  0
CIRCLE
  8
0
 10
80.96875
 20
113.71875
 30
0.0
 40
0.05
  0
CIRCLE
  8
0
 10
80.96875
 20
114.6875
 30
0.0
 40
0.05
  0
CIRCLE
  8
0
 10
80.96875
 20
115.65625
 30
0.0
 40
0.05
  0
CIRCLE
  8
0
 10
80.96875
 20
116.625
 30
0.0
 40
0.05
  0
CIRCLE
  8
0
 10
80.96875
 20
117.59375
 30
0.0
 40
0.05
  0
CIRCLE
  8
0
 10
80.96875
 20
118.5625
 30
0.0
 40
0.05
  0
CIRCLE
  8
0
 10
80.96875
 20
119.53125
 30
0.0
 40
0.05
  0
CIRCLE
  8
0
 10
80.96875
 20
120.5
 30
0.0
 40
0.05
  0
CIRCLE
  8
0
 10
80.96875
 20
121.46875
 30
0.0
 40
0.05
  0
CIRCLE
  8
0
 10
80.96875
 20
122.4375
 30
0.0
 40
0.05
  0
CIRCLE
  8
0
 10
80.96875
 20
123.40625
 30
0.0
 40
0.05
  0
CIRCLE
  8
0
 10
80.96875
 20
124.375
 30
0.0
 40
0.05
  0
CIRCLE
  8
0
 10
80.96875
 20
125.34375
 30
0.0
 40
0.05
  0
CIRCLE
  8
0
 10
81.03125
 20
126.28125
 30
0.0
 40
0.05
  0
CIRCLE
  8
0
 10
81.0
 20
127.09375
 30
0.0
 40
0.05
  0
CIRCLE
  8
0
 10
81.0625
 20
127.90625
 30
0.0
 40
0.05
  0
CIRCLE
  8
0
 10
80.15625
 20
95.125
 30
0.0
 40
0.05
  0
CIRCLE
  8
0
 10
80.25
 20
96.15625
 30
0.0
 40
0.05
  0
CIRCLE
  8
0
 10
80.15625
 20
96.96875
 30
0.0
 40
0.05
  0
CIRCLE
  8
0
 10
80.15625
 20
98.0625
 30
0.0
 40
0.05
  0
CIRCLE
  8
0
 10
80.21875
 20
99.1875
 30
0.0
 40
0.05
  0
CIRCLE
  8
0
 10
80.1875
 20
100.15625
 30
0.0
 40
0.05
  0
CIRCLE
  8
0
 10
80.1875
 20
101.125
 30
0.0
 40
0.05
  0
CIRCLE
  8
0
 10
80.1875
 20
102.09375
 30
0.0
 40
0.05
  0
CIRCLE
  8
0
 10
80.1875
 20
103.0625
 30
0.0
 40
0.05
  0
CIRCLE
  8
0
 10
80.1875
 20
104.03125
 30
0.0
 40
0.05
  0
CIRCLE
  8
0
 10
80.1875
 20
105.0
 30
0.0
 40
0.05
  0
CIRCLE
  8
0
 10
80.1875
 20
105.96875
 30
0.0
 40
0.05
  0
CIRCLE
  8
0
 10
80.1875
 20
106.9375
 30
0.0
 40
0.05
  0
CIRCLE
  8
0
 10
80.1875
 20
107.90625
 30
0.0
 40
0.05
  0
CIRCLE
  8
0
 10
80.1875
 20
108.875
 30
0.0
 40
0.05
  0
CIRCLE
  8
0
 10
80.1875
 20
109.84375
 30
0.0
 40
0.05
  0
CIRCLE
  8
0
 10
80.1875
 20
110.8125
 30
0.0
 40
0.05
  0
CIRCLE
  8
0
 10
80.1875
 20
111.78125
 30
0.0
 40
0.05
  0
CIRCLE
  8
0
 10
80.1875
 20
112.75
 30
0.0
 40
0.05
  0
CIRCLE
  8
0
 10
80.1875
 20
113.71875
 30
0.0
 40
0.05
  0
CIRCLE
  8
0
 10
80.1875
 20
114.6875
 30
0.0
 40
0.05
  0
CIRCLE
  8
0
 10
80.1875
 20
115.65625
 30
0.0
 40
0.05
  0
CIRCLE
  8
0
 10
80.1875
 20
116.625
 30
0.0
 40
0.05
  0
CIRCLE
  8
0
 10
80.1875
 20
117.59375
 30
0.0
 40
0.05
  0
CIRCLE
  8
0
 10
80.1875
 20
118.5625
 30
0.0
 40
0.05
  0
CIRCLE
  8
0
 10
80.1875
 20
119.53125
 30
0.0
 40
0.05
  0
CIRCLE
  8
0
 10
80.1875
 20
120.5
 30
0.0
 40
0.05
  0
CIRCLE
  8
0
 10
80.1875
 20
121.46875
 30
0.0
 40
0.05
  0
CIRCLE
  8
0
 10
80.1875
 20
122.4375
 30
0.0
 40
0.05
  0
CIRCLE
  8
0
 10
80.1875
 20
123.40625
 30
0.0
 40
0.05
  0
CIRCLE
  8
0
 10
80.1875
 20
124.375
 30
0.0
 40
0.05
  0
CIRCLE
  8
0
 10
80.1875
 20
125.34375
 30
0.0
 40
0.05
  0
CIRCLE
  8
0
 10
80.25
 20
126.75
 30
0.0
 40
0.05
  0
CIRCLE
  8
0
 10
80.1875
 20
127.90625
 30
0.0
 40
0.05
  0
CIRCLE
  8
0
 10
79.28125
 20
95.125
 30
0.0
 40
0.05
  0
CIRCLE
  8
0
 10
79.4375
 20
96.03125
 30
0.0
 40
0.05
  0
CIRCLE
  8
0
 10
79.375
 20
96.84375
 30
0.0
 40
0.05
  0
CIRCLE
  8
0
 10
79.375
 20
97.8125
 30
0.0
 40
0.05
  0
CIRCLE
  8
0
 10
79.40625
 20
99.0625
 30
0.0
 40
0.05
  0
CIRCLE
  8
0
 10
79.375
 20
100.15625
 30
0.0
 40
0.05
  0
CIRCLE
  8
0
 10
79.375
 20
101.125
 30
0.0
 40
0.05
  0
CIRCLE
  8
0
 10
79.375
 20
102.09375
 30
0.0
 40
0.05
  0
CIRCLE
  8
0
 10
79.375
 20
103.0625
 30
0.0
 40
0.05
  0
CIRCLE
  8
0
 10
79.375
 20
104.03125
 30
0.0
 40
0.05
  0
CIRCLE
  8
0
 10
79.375
 20
105.0
 30
0.0
 40
0.05
  0
CIRCLE
  8
0
 10
79.375
 20
105.96875
 30
0.0
 40
0.05
  0
CIRCLE
  8
0
 10
79.375
 20
106.9375
 30
0.0
 40
0.05
  0
CIRCLE
  8
0
 10
79.375
 20
107.90625
 30
0.0
 40
0.05
  0
CIRCLE
  8
0
 10
79.375
 20
108.875
 30
0.0
 40
0.05
  0
CIRCLE
  8
0
 10
79.375
 20
109.84375
 30
0.0
 40
0.05
  0
CIRCLE
  8
0
 10
79.375
 20
110.8125
 30
0.0
 40
0.05
  0
CIRCLE
  8
0
 10
79.375
 20
111.78125
 30
0.0
 40
0.05
  0
CIRCLE
  8
0
 10
79.375
 20
112.75
 30
0.0
 40
0.05
  0
CIRCLE
  8
0
 10
79.375
 20
113.71875
 30
0.0
 40
0.05
  0
CIRCLE
  8
0
 10
79.375
 20
114.6875
 30
0.0
 40
0.05
  0
CIRCLE
  8
0
 10
79.375
 20
115.65625
 30
0.0
 40
0.05
  0
CIRCLE
  8
0
 10
79.375
 20
116.625
 30
0.0
 40
0.05
  0
CIRCLE
  8
0
 10
79.375
 20
117.59375
 30
0.0
 40
0.05
  0
CIRCLE
  8
0
 10
79.375
 20
118.5625
 30
0.0
 40
0.05
  0
CIRCLE
  8
0
 10
79.375
 20
119.53125
 30
0.0
 40
0.05
  0
CIRCLE
  8
0
 10
79.375
 20
120.5
 30
0.0
 40
0.05
  0
CIRCLE
  8
0
 10
79.375
 20
121.46875
 30
0.0
 40
0.05
  0
CIRCLE
  8
0
 10
79.375
 20
122.4375
 30
0.0
 40
0.05
  0
CIRCLE
  8
0
 10
79.375
 20
123.40625
 30
0.0
 40
0.05
  0
CIRCLE
  8
0
 10
79.375
 20
124.375
 30
0.0
 40
0.05
  0
CIRCLE
  8
0
 10
79.375
 20
125.3125
 30
0.0
 40
0.05
  0
CIRCLE
  8
0
 10
79.375
 20
126.125
 30
0.0
 40
0.05
  0
CIRCLE
  8
0
 10
79.4375
 20
127.0
 30
0.0
 40
0.05
  0
CIRCLE
  8
0
 10
79.3125
 20
127.90625
 30
0.0
 40
0.05
  0
CIRCLE
  8
0
 10
78.5625
 20
95.84375
 30
0.0
 40
0.05
  0
CIRCLE
  8
0
 10
78.5625
 20
96.71875
 30
0.0
 40
0.05
  0
CIRCLE
  8
0
 10
78.5625
 20
97.625
 30
0.0
 40
0.05
  0
CIRCLE
  8
0
 10
78.5625
 20
98.59375
 30
0.0
 40
0.05
  0
CIRCLE
  8
0
 10
78.5625
 20
99.5625
 30
0.0
 40
0.05
  0
CIRCLE
  8
0
 10
78.5625
 20
100.84375
 30
0.0
 40
0.05
  0
CIRCLE
  8
0
 10
78.5625
 20
102.09375
 30
0.0
 40
0.05
  0
CIRCLE
  8
0
 10
78.5625
 20
103.0625
 30
0.0
 40
0.05
  0
CIRCLE
  8
0
 10
78.5625
 20
104.03125
 30
0.0
 40
0.05
  0
CIRCLE
  8
0
 10
78.5625
 20
105.0
 30
0.0
 40
0.05
  0
CIRCLE
  8
0
 10
78.5625
 20
105.96875
 30
0.0
 40
0.05
  0
CIRCLE
  8
0
 10
78.5625
 20
106.9375
 30
0.0
 40
0.05
  0
CIRCLE
  8
0
 10
78.5625
 20
107.90625
 30
0.0
 40
0.05
  0
CIRCLE
  8
0
 10
78.5625
 20
108.875
 30
0.0
 40
0.05
  0
CIRCLE
  8
0
 10
78.5625
 20
109.84375
 30
0.0
 40
0.05
  0
CIRCLE
  8
0
 10
78.5625
 20
110.8125
 30
0.0
 40
0.05
  0
CIRCLE
  8
0
 10
78.5625
 20
111.78125
 30
0.0
 40
0.05
  0
CIRCLE
  8
0
 10
78.5625
 20
112.75
 30
0.0
 40
0.05
  0
CIRCLE
  8
0
 10
78.5625
 20
113.71875
 30
0.0
 40
0.05
  0
CIRCLE
  8
0
 10
78.5625
 20
114.6875
 30
0.0
 40
0.05
  0
CIRCLE
  8
0
 10
78.5625
 20
115.65625
 30
0.0
 40
0.05
  0
CIRCLE
  8
0
 10
78.5625
 20
116.625
 30
0.0
 40
0.05
  0
CIRCLE
  8
0
 10
78.5625
 20
117.59375
 30
0.0
 40
0.05
  0
CIRCLE
  8
0
 10
78.5625
 20
118.5625
 30
0.0
 40
0.05
  0
CIRCLE
  8
0
 10
78.5625
 20
119.53125
 30
0.0
 40
0.05
  0
CIRCLE
  8
0
 10
78.5625
 20
120.5
 30
0.0
 40
0.05
  0
CIRCLE
  8
0
 10
78.5625
 20
121.46875
 30
0.0
 40
0.05
  0
CIRCLE
  8
0
 10
78.5625
 20
122.40625
 30
0.0
 40
0.05
  0
CIRCLE
  8
0
 10
78.5625
 20
123.34375
 30
0.0
 40
0.05
  0
CIRCLE
  8
0
 10
78.5625
 20
124.28125
 30
0.0
 40
0.05
  0
CIRCLE
  8
0
 10
78.5625
 20
125.28125
 30
0.0
 40
0.05
  0
CIRCLE
  8
0
 10
78.5625
 20
126.28125
 30
0.0
 40
0.05
  0
CIRCLE
  8
0
 10
78.5625
 20
127.15625
 30
0.0
 40
0.05
  0
LINE
 62
1
  8
0
 10
73.5625
 20
90.125
 30
0.0
 11
133.5625
 21
90.125
 31
0.0
  0
LINE
 62
1
  8
0
 10
133.5625
 20
90.125
 30
0.0
 11
133.5625
 21
132.90625
 31
0.0
  0
LINE
 62
1
  8
0
 10
133.5625
 20
132.90625
 30
0.0
 11
73.5625
 21
132.90625
 31
0.0
  0
LINE
 62
1
  8
0
 10
73.5625
 20
132.90625
 30
0.0
 11
73.5625
 21
90.125
 31
0.0
  0
ENDSEC
  0
EOF
