  0
SECTION
  2
HEADER
  9
$ACADVER
  1
AC1009
  9
$INSBASE
 10
0.0
 20
0.0
 30
0.0
  9
$EXTMIN
 10
0.0
 20
0.0
 30
0.0
  9
$EXTMAX
 10
100.0
 20
100.0
 30
0.0
  9
$UNITMODE
 70
0
  9
$AUNITS
 70
0
  9
$ANGBASE
 50
0.0
  9
$ANGDIR
 70
0
  0
ENDSEC
  0
SECTION
  2
TABLES
  0
TABLE
  2
LTYPE
 70
19
  0
LTYPE
  2
CONTINUOUS
 70
0
  3
Solid
 72
65
 73
0
 40
0.0
  0
LTYPE
  2
CENTER
 70
0
  3
Center ____ _ ____ _ ____ _ ____ _ ____ _ ____
 72
65
 73
4
 40
2.0
 49
1.25
 49
-0.25
 49
0.25
 49
-0.25
  0
LTYPE
  2
CENTERX2
 70
0
  3
Center (2x) ________  __  ________  __  ________
 72
65
 73
4
 40
3.5
 49
2.5
 49
-0.25
 49
0.5
 49
-0.25
  0
LTYPE
  2
CENTER2
 70
0
  3
Center (.5x) ____ _ ____ _ ____ _ ____ _ ____
 72
65
 73
4
 40
1.0
 49
0.625
 49
-0.125
 49
0.125
 49
-0.125
  0
LTYPE
  2
DASHED
 70
0
  3
Dashed __ __ __ __ __ __ __ __ __ __ __ __ __ _
 72
65
 73
2
 40
0.6
 49
0.5
 49
-0.1
  0
LTYPE
  2
DASHEDX2
 70
0
  3
Dashed (2x) ____  ____  ____  ____  ____  ____
 72
65
 73
2
 40
1.2
 49
1.0
 49
-0.2
  0
LTYPE
  2
DASHED2
 70
0
  3
Dashed (.5x) _ _ _ _ _ _ _ _ _ _ _ _ _ _
 72
65
 73
2
 40
0.3
 49
0.25
 49
-0.05
  0
LTYPE
  2
PHANTOM
 70
0
  3
Phantom ______  __  __  ______  __  __  ______
 72
65
 73
6
 40
2.5
 49
1.25
 49
-0.25
 49
0.25
 49
-0.25
 49
0.25
 49
-0.25
  0
LTYPE
  2
PHANTOMX2
 70
0
  3
Phantom (2x)____________    ____    ____    ____________
 72
65
 73
6
 40
4.25
 49
2.5
 49
-0.25
 49
0.5
 49
-0.25
 49
0.5
 49
-0.25
  0
LTYPE
  2
PHANTOM2
 70
0
  3
Phantom (.5x) ___ _ _ ___ _ _ ___ _ _ ___ _ _ ___
 72
65
 73
6
 40
1.25
 49
0.625
 49
-0.125
 49
0.125
 49
-0.125
 49
0.125
 49
-0.125
  0
LTYPE
  2
DASHDOT
 70
0
  3
Dash dot __ . __ . __ . __ . __ . __ . __ . __
 72
65
 73
4
 40
1.4
 49
1.0
 49
-0.2
 49
0.0
 49
-0.2
  0
LTYPE
  2
DASHDOTX2
 70
0
  3
Dash dot (2x) ____  .  ____  .  ____  .  ____
 72
65
 73
4
 40
2.4
 49
2.0
 49
-0.2
 49
0.0
 49
-0.2
  0
LTYPE
  2
DASHDOT2
 70
0
  3
Dash dot (.5x) _ . _ . _ . _ . _ . _ . _ . _
 72
65
 73
4
 40
0.7
 49
0.5
 49
-0.1
 49
0.0
 49
-0.1
  0
LTYPE
  2
DOT
 70
0
  3
Dot .  .  .  .  .  .  .  .  .  .  .  .  .  .  .  .
 72
65
 73
2
 40
0.2
 49
0.0
 49
-0.2
  0
LTYPE
  2
DOTX2
 70
0
  3
Dot (2x) .    .    .    .    .    .    .    . 
 72
65
 73
2
 40
0.4
 49
0.0
 49
-0.4
  0
LTYPE
  2
DOT2
 70
0
  3
Dot (.5) . . . . . . . . . . . . . . . . . . . 
 72
65
 73
2
 40
0.1
 49
0.0
 49
-0.1
  0
LTYPE
  2
DIVIDE
 70
0
  3
Divide __ . . __ . . __ . . __ . . __ . . __
 72
65
 73
6
 40
1.6
 49
1.0
 49
-0.2
 49
0.0
 49
-0.2
 49
0.0
 49
-0.2
  0
LTYPE
  2
DIVIDEX2
 70
0
  3
Divide (2x) ____  . .  ____  . .  ____  . .  ____
 72
65
 73
6
 40
2.6
 49
2.0
 49
-0.2
 49
0.0
 49
-0.2
 49
0.0
 49
-0.2
  0
LTYPE
  2
DIVIDE2
 70
0
  3
Divide(.5x) _ . _ . _ . _ . _ . _ . _ . _
 72
65
 73
6
 40
0.8
 49
0.5
 49
-0.1
 49
0.0
 49
-0.1
 49
0.0
 49
-0.1
  0
ENDTAB
  0
TABLE
  2
LAYER
 70
5
  0
LAYER
  2
DIMENSIONS
 70
0
 62
1
  6
CONTINUOUS
  0
LAYER
  2
TABLEBACKGROUND
 70
0
 62
1
  6
CONTINUOUS
  0
LAYER
  2
TABLECONTENT
 70
0
 62
1
  6
CONTINUOUS
  0
LAYER
  2
TABLEGRID
 70
0
 62
1
  6
CONTINUOUS
  0
LAYER
  2
VIEWPORTS
 70
0
 62
7
  6
CONTINUOUS
  0
ENDTAB
  0
TABLE
  2
STYLE
 70
12
  0
STYLE
  2
STANDARD
 70
0
 40
0.0
 41
1.0
 42
1.0
 50
0.0
 71
0
  3
arial.ttf
  4

  0
STYLE
  2
ARIAL
 70
0
 40
0.0
 41
1.0
 42
1.0
 50
0.0
 71
0
  3
arial.ttf
  4

  0
STYLE
  2
ARIAL_BOLD
 70
0
 40
0.0
 41
1.0
 42
1.0
 50
0.0
 71
0
  3
arialbd.ttf
  4

  0
STYLE
  2
ARIAL_ITALIC
 70
0
 40
0.0
 41
1.0
 42
1.0
 50
0.0
 71
0
  3
ariali.ttf
  4

  0
STYLE
  2
ARIAL_BOLD_ITALIC
 70
0
 40
0.0
 41
1.0
 42
1.0
 50
0.0
 71
0
  3
arialbi.ttf
  4

  0
STYLE
  2
ARIAL_BLACK
 70
0
 40
0.0
 41
1.0
 42
1.0
 50
0.0
 71
0
  3
ariblk.ttf
  4

  0
STYLE
  2
ISOCPEUR
 70
0
 40
0.0
 41
1.0
 42
1.0
 50
0.0
 71
0
  3
isocpeur.ttf
  4

  0
STYLE
  2
ISOCPEUR_ITALIC
 70
0
 40
0.0
 41
1.0
 42
1.0
 50
0.0
 71
0
  3
isocpeui.ttf
  4

  0
STYLE
  2
TIMES
 70
0
 40
0.0
 41
1.0
 42
1.0
 50
0.0
 71
0
  3
times.ttf
  4

  0
STYLE
  2
TIMES_BOLD
 70
0
 40
0.0
 41
1.0
 42
1.0
 50
0.0
 71
0
  3
timesbd.ttf
  4

  0
STYLE
  2
TIMES_ITALIC
 70
0
 40
0.0
 41
1.0
 42
1.0
 50
0.0
 71
0
  3
timesi.ttf
  4

  0
STYLE
  2
TIMES_BOLD_ITALIC
 70
0
 40
0.0
 41
1.0
 42
1.0
 50
0.0
 71
0
  3
timesbi.ttf
  4

  0
ENDTAB
  0
TABLE
  2
VIEW
 70
0
  0
ENDTAB
  0
TABLE
  2
APPID
 70
1
  0
APPID
  2
DXFWRITE
 70
0
  0
ENDTAB
  0
TABLE
  2
VPORT
 70
0
  0
ENDTAB
  0
TABLE
  2
UCS
 70
0
  0
ENDTAB
  0
ENDSEC
  0
SECTION
  2
BLOCKS
  0
ENDSEC
  0
SECTION
  2
ENTITIES
  0
VIEWPORT
  8
VIEWPORTS
 67
1
 10
0.0
 20
0.0
 30
0.0
 40
1.0
 41
1.0
 68
1
 69
1
1001
ACAD
1000
MVIEW
1002
{
1070
16
1010
0.0
1020
0.0
1030
0.0
1010
0.0
1020
0.0
1030
0.0
1040
0.0
1040
1.0
1040
0.0
1040
0.0
1040
50.0
1040
0.0
1040
0.0
1070
0
1070
100
1070
1
1070
3
1070
0
1070
0
1070
0
1070
0
1040
0.0
1040
0.0
1040
0.0
1040
0.1
1040
0.1
1040
0.1
1040
0.1
1070
0
1002
{
1002
}
1002
}
  0
CIRCLE
  8
0
 10
319.85634847080627
 20
185.4911955514365
 30
0.0
 40
0.25
  0
CIRCLE
  8
0
 10
319.85634847080627
 20
187.0713623725672
 30
0.0
 40
0.25
  0
CIRCLE
  8
0
 10
319.85634847080627
 20
190.48656163113995
 30
0.0
 40
0.25
  0
CIRCLE
  8
0
 10
319.85634847080627
 20
192.0667284522706
 30
0.0
 40
0.25
  0
CIRCLE
  8
0
 10
319.85634847080627
 20
195.48192771084337
 30
0.0
 40
0.25
  0
CIRCLE
  8
0
 10
319.85634847080627
 20
197.11306765523634
 30
0.0
 40
0.25
  0
CIRCLE
  8
0
 10
319.85634847080627
 20
200.5282669138091
 30
0.0
 40
0.25
  0
CIRCLE
  8
0
 10
319.85634847080627
 20
202.10843373493975
 30
0.0
 40
0.25
  0
CIRCLE
  8
0
 10
319.85634847080627
 20
205.5236329935125
 30
0.0
 40
0.25
  0
CIRCLE
  8
0
 10
319.85634847080627
 20
207.15477293790545
 30
0.0
 40
0.25
  0
CIRCLE
  8
0
 10
319.85634847080627
 20
210.5699721964782
 30
0.0
 40
0.25
  0
CIRCLE
  8
0
 10
319.85634847080627
 20
212.1501390176089
 30
0.0
 40
0.25
  0
CIRCLE
  8
0
 10
319.85634847080627
 20
215.56533827618165
 30
0.0
 40
0.25
  0
CIRCLE
  8
0
 10
319.85634847080627
 20
217.1964782205746
 30
0.0
 40
0.25
  0
CIRCLE
  8
0
 10
319.85634847080627
 20
220.56070435588506
 30
0.0
 40
0.25
  0
CIRCLE
  8
0
 10
319.85634847080627
 20
222.19184430027804
 30
0.0
 40
0.25
  0
CIRCLE
  8
0
 10
319.85634847080627
 20
225.6070435588508
 30
0.0
 40
0.25
  0
CIRCLE
  8
0
 10
319.85634847080627
 20
227.18721037998145
 30
0.0
 40
0.25
  0
CIRCLE
  8
0
 10
319.85634847080627
 20
230.6024096385542
 30
0.0
 40
0.25
  0
CIRCLE
  8
0
 10
319.85634847080627
 20
232.23354958294718
 30
0.0
 40
0.25
  0
CIRCLE
  8
0
 10
319.85634847080627
 20
235.64874884151993
 30
0.0
 40
0.25
  0
CIRCLE
  8
0
 10
319.85634847080627
 20
237.2289156626506
 30
0.0
 40
0.25
  0
CIRCLE
  8
0
 10
318.2252085264133
 20
183.86005560704356
 30
0.0
 40
0.25
  0
CIRCLE
  8
0
 10
318.2252085264133
 20
185.4911955514365
 30
0.0
 40
0.25
  0
CIRCLE
  8
0
 10
318.2252085264133
 20
187.0713623725672
 30
0.0
 40
0.25
  0
CIRCLE
  8
0
 10
318.2252085264133
 20
188.75347544022242
 30
0.0
 40
0.25
  0
CIRCLE
  8
0
 10
318.2252085264133
 20
190.48656163113995
 30
0.0
 40
0.25
  0
CIRCLE
  8
0
 10
318.2252085264133
 20
192.0667284522706
 30
0.0
 40
0.25
  0
CIRCLE
  8
0
 10
318.2252085264133
 20
193.79981464318814
 30
0.0
 40
0.25
  0
CIRCLE
  8
0
 10
318.2252085264133
 20
195.48192771084337
 30
0.0
 40
0.25
  0
CIRCLE
  8
0
 10
318.2252085264133
 20
197.11306765523634
 30
0.0
 40
0.25
  0
CIRCLE
  8
0
 10
318.2252085264133
 20
198.79518072289156
 30
0.0
 40
0.25
  0
CIRCLE
  8
0
 10
318.2252085264133
 20
200.5282669138091
 30
0.0
 40
0.25
  0
CIRCLE
  8
0
 10
318.2252085264133
 20
202.10843373493975
 30
0.0
 40
0.25
  0
CIRCLE
  8
0
 10
318.2252085264133
 20
203.84151992585726
 30
0.0
 40
0.25
  0
CIRCLE
  8
0
 10
318.2252085264133
 20
205.5236329935125
 30
0.0
 40
0.25
  0
CIRCLE
  8
0
 10
318.2252085264133
 20
207.15477293790545
 30
0.0
 40
0.25
  0
CIRCLE
  8
0
 10
318.2252085264133
 20
208.8368860055607
 30
0.0
 40
0.25
  0
CIRCLE
  8
0
 10
318.2252085264133
 20
210.5699721964782
 30
0.0
 40
0.25
  0
CIRCLE
  8
0
 10
318.2252085264133
 20
212.1501390176089
 30
0.0
 40
0.25
  0
CIRCLE
  8
0
 10
318.2252085264133
 20
213.8832252085264
 30
0.0
 40
0.25
  0
CIRCLE
  8
0
 10
318.2252085264133
 20
215.56533827618165
 30
0.0
 40
0.25
  0
CIRCLE
  8
0
 10
318.2252085264133
 20
217.1964782205746
 30
0.0
 40
0.25
  0
CIRCLE
  8
0
 10
318.2252085264133
 20
218.87859128822984
 30
0.0
 40
0.25
  0
CIRCLE
  8
0
 10
318.2252085264133
 20
220.56070435588506
 30
0.0
 40
0.25
  0
CIRCLE
  8
0
 10
318.2252085264133
 20
222.19184430027804
 30
0.0
 40
0.25
  0
CIRCLE
  8
0
 10
318.2252085264133
 20
223.87395736793326
 30
0.0
 40
0.25
  0
CIRCLE
  8
0
 10
318.2252085264133
 20
225.6070435588508
 30
0.0
 40
0.25
  0
CIRCLE
  8
0
 10
318.2252085264133
 20
227.18721037998145
 30
0.0
 40
0.25
  0
CIRCLE
  8
0
 10
318.2252085264133
 20
228.92029657089898
 30
0.0
 40
0.25
  0
CIRCLE
  8
0
 10
318.2252085264133
 20
230.6024096385542
 30
0.0
 40
0.25
  0
CIRCLE
  8
0
 10
318.2252085264133
 20
232.23354958294718
 30
0.0
 40
0.25
  0
CIRCLE
  8
0
 10
318.2252085264133
 20
233.9156626506024
 30
0.0
 40
0.25
  0
CIRCLE
  8
0
 10
318.2252085264133
 20
235.64874884151993
 30
0.0
 40
0.25
  0
CIRCLE
  8
0
 10
318.2252085264133
 20
237.2289156626506
 30
0.0
 40
0.25
  0
CIRCLE
  8
0
 10
318.2252085264133
 20
238.86005560704356
 30
0.0
 40
0.25
  0
CIRCLE
  8
0
 10
316.64504170528267
 20
183.86005560704356
 30
0.0
 40
0.25
  0
CIRCLE
  8
0
 10
316.64504170528267
 20
185.4911955514365
 30
0.0
 40
0.25
  0
CIRCLE
  8
0
 10
316.64504170528267
 20
187.0713623725672
 30
0.0
 40
0.25
  0
CIRCLE
  8
0
 10
316.64504170528267
 20
188.75347544022242
 30
0.0
 40
0.25
  0
CIRCLE
  8
0
 10
316.64504170528267
 20
190.48656163113995
 30
0.0
 40
0.25
  0
CIRCLE
  8
0
 10
316.64504170528267
 20
192.0667284522706
 30
0.0
 40
0.25
  0
CIRCLE
  8
0
 10
316.64504170528267
 20
193.79981464318814
 30
0.0
 40
0.25
  0
CIRCLE
  8
0
 10
316.64504170528267
 20
195.48192771084337
 30
0.0
 40
0.25
  0
CIRCLE
  8
0
 10
316.64504170528267
 20
197.11306765523634
 30
0.0
 40
0.25
  0
CIRCLE
  8
0
 10
316.64504170528267
 20
198.79518072289156
 30
0.0
 40
0.25
  0
CIRCLE
  8
0
 10
316.64504170528267
 20
200.5282669138091
 30
0.0
 40
0.25
  0
CIRCLE
  8
0
 10
316.64504170528267
 20
202.10843373493975
 30
0.0
 40
0.25
  0
CIRCLE
  8
0
 10
316.64504170528267
 20
203.84151992585726
 30
0.0
 40
0.25
  0
CIRCLE
  8
0
 10
316.64504170528267
 20
205.5236329935125
 30
0.0
 40
0.25
  0
CIRCLE
  8
0
 10
316.64504170528267
 20
207.15477293790545
 30
0.0
 40
0.25
  0
CIRCLE
  8
0
 10
316.64504170528267
 20
208.8368860055607
 30
0.0
 40
0.25
  0
CIRCLE
  8
0
 10
316.64504170528267
 20
210.5699721964782
 30
0.0
 40
0.25
  0
CIRCLE
  8
0
 10
316.64504170528267
 20
212.1501390176089
 30
0.0
 40
0.25
  0
CIRCLE
  8
0
 10
316.64504170528267
 20
213.8832252085264
 30
0.0
 40
0.25
  0
CIRCLE
  8
0
 10
316.64504170528267
 20
215.56533827618165
 30
0.0
 40
0.25
  0
CIRCLE
  8
0
 10
316.64504170528267
 20
217.1964782205746
 30
0.0
 40
0.25
  0
CIRCLE
  8
0
 10
316.64504170528267
 20
218.87859128822984
 30
0.0
 40
0.25
  0
CIRCLE
  8
0
 10
316.64504170528267
 20
220.56070435588506
 30
0.0
 40
0.25
  0
CIRCLE
  8
0
 10
316.64504170528267
 20
222.19184430027804
 30
0.0
 40
0.25
  0
CIRCLE
  8
0
 10
316.64504170528267
 20
223.87395736793326
 30
0.0
 40
0.25
  0
CIRCLE
  8
0
 10
316.64504170528267
 20
225.6070435588508
 30
0.0
 40
0.25
  0
CIRCLE
  8
0
 10
316.64504170528267
 20
227.18721037998145
 30
0.0
 40
0.25
  0
CIRCLE
  8
0
 10
316.64504170528267
 20
228.92029657089898
 30
0.0
 40
0.25
  0
CIRCLE
  8
0
 10
316.64504170528267
 20
230.6024096385542
 30
0.0
 40
0.25
  0
CIRCLE
  8
0
 10
316.64504170528267
 20
232.23354958294718
 30
0.0
 40
0.25
  0
CIRCLE
  8
0
 10
316.64504170528267
 20
233.9156626506024
 30
0.0
 40
0.25
  0
CIRCLE
  8
0
 10
316.64504170528267
 20
235.64874884151993
 30
0.0
 40
0.25
  0
CIRCLE
  8
0
 10
316.64504170528267
 20
237.2289156626506
 30
0.0
 40
0.25
  0
CIRCLE
  8
0
 10
316.64504170528267
 20
238.86005560704356
 30
0.0
 40
0.25
  0
CIRCLE
  8
0
 10
314.91195551436516
 20
185.4911955514365
 30
0.0
 40
0.25
  0
CIRCLE
  8
0
 10
314.91195551436516
 20
187.0713623725672
 30
0.0
 40
0.25
  0
CIRCLE
  8
0
 10
315.0139017608897
 20
188.70250231696014
 30
0.0
 40
0.25
  0
CIRCLE
  8
0
 10
315.0139017608897
 20
190.48656163113995
 30
0.0
 40
0.25
  0
CIRCLE
  8
0
 10
315.0139017608897
 20
192.0667284522706
 30
0.0
 40
0.25
  0
CIRCLE
  8
0
 10
315.0139017608897
 20
193.79981464318814
 30
0.0
 40
0.25
  0
CIRCLE
  8
0
 10
315.0139017608897
 20
195.48192771084337
 30
0.0
 40
0.25
  0
CIRCLE
  8
0
 10
315.0139017608897
 20
197.11306765523634
 30
0.0
 40
0.25
  0
CIRCLE
  8
0
 10
315.0139017608897
 20
198.79518072289156
 30
0.0
 40
0.25
  0
CIRCLE
  8
0
 10
315.0139017608897
 20
200.5282669138091
 30
0.0
 40
0.25
  0
CIRCLE
  8
0
 10
315.0139017608897
 20
202.10843373493975
 30
0.0
 40
0.25
  0
CIRCLE
  8
0
 10
315.0139017608897
 20
203.84151992585726
 30
0.0
 40
0.25
  0
CIRCLE
  8
0
 10
315.0139017608897
 20
205.5236329935125
 30
0.0
 40
0.25
  0
CIRCLE
  8
0
 10
315.0139017608897
 20
207.15477293790545
 30
0.0
 40
0.25
  0
CIRCLE
  8
0
 10
315.0139017608897
 20
208.8368860055607
 30
0.0
 40
0.25
  0
CIRCLE
  8
0
 10
315.0139017608897
 20
210.5699721964782
 30
0.0
 40
0.25
  0
CIRCLE
  8
0
 10
315.0139017608897
 20
212.1501390176089
 30
0.0
 40
0.25
  0
CIRCLE
  8
0
 10
315.0139017608897
 20
213.8832252085264
 30
0.0
 40
0.25
  0
CIRCLE
  8
0
 10
315.0139017608897
 20
215.56533827618165
 30
0.0
 40
0.25
  0
CIRCLE
  8
0
 10
315.0139017608897
 20
217.1964782205746
 30
0.0
 40
0.25
  0
CIRCLE
  8
0
 10
315.0139017608897
 20
218.87859128822984
 30
0.0
 40
0.25
  0
CIRCLE
  8
0
 10
315.0139017608897
 20
220.56070435588506
 30
0.0
 40
0.25
  0
CIRCLE
  8
0
 10
315.0139017608897
 20
222.19184430027804
 30
0.0
 40
0.25
  0
CIRCLE
  8
0
 10
315.0139017608897
 20
223.87395736793326
 30
0.0
 40
0.25
  0
CIRCLE
  8
0
 10
315.0139017608897
 20
225.6070435588508
 30
0.0
 40
0.25
  0
CIRCLE
  8
0
 10
315.0139017608897
 20
227.18721037998145
 30
0.0
 40
0.25
  0
CIRCLE
  8
0
 10
315.0139017608897
 20
228.92029657089898
 30
0.0
 40
0.25
  0
CIRCLE
  8
0
 10
315.0139017608897
 20
230.6024096385542
 30
0.0
 40
0.25
  0
CIRCLE
  8
0
 10
315.0139017608897
 20
232.23354958294718
 30
0.0
 40
0.25
  0
CIRCLE
  8
0
 10
315.0139017608897
 20
234.01760889712696
 30
0.0
 40
0.25
  0
CIRCLE
  8
0
 10
314.91195551436516
 20
235.64874884151993
 30
0.0
 40
0.25
  0
CIRCLE
  8
0
 10
314.91195551436516
 20
237.2289156626506
 30
0.0
 40
0.25
  0
CIRCLE
  8
0
 10
313.2298424467099
 20
183.86005560704356
 30
0.0
 40
0.25
  0
CIRCLE
  8
0
 10
313.2298424467099
 20
185.4911955514365
 30
0.0
 40
0.25
  0
CIRCLE
  8
0
 10
313.2298424467099
 20
187.0713623725672
 30
0.0
 40
0.25
  0
CIRCLE
  8
0
 10
313.2298424467099
 20
188.70250231696014
 30
0.0
 40
0.25
  0
CIRCLE
  8
0
 10
313.433734939759
 20
190.28266913809082
 30
0.0
 40
0.25
  0
CIRCLE
  8
0
 10
313.433734939759
 20
192.0667284522706
 30
0.0
 40
0.25
  0
CIRCLE
  8
0
 10
313.433734939759
 20
193.79981464318814
 30
0.0
 40
0.25
  0
CIRCLE
  8
0
 10
313.433734939759
 20
195.48192771084337
 30
0.0
 40
0.25
  0
CIRCLE
  8
0
 10
313.433734939759
 20
197.11306765523634
 30
0.0
 40
0.25
  0
CIRCLE
  8
0
 10
313.433734939759
 20
198.79518072289156
 30
0.0
 40
0.25
  0
CIRCLE
  8
0
 10
313.433734939759
 20
200.5282669138091
 30
0.0
 40
0.25
  0
CIRCLE
  8
0
 10
313.433734939759
 20
202.10843373493975
 30
0.0
 40
0.25
  0
CIRCLE
  8
0
 10
313.433734939759
 20
203.84151992585726
 30
0.0
 40
0.25
  0
CIRCLE
  8
0
 10
313.433734939759
 20
205.5236329935125
 30
0.0
 40
0.25
  0
CIRCLE
  8
0
 10
313.433734939759
 20
207.15477293790545
 30
0.0
 40
0.25
  0
CIRCLE
  8
0
 10
313.433734939759
 20
208.8368860055607
 30
0.0
 40
0.25
  0
CIRCLE
  8
0
 10
313.433734939759
 20
210.5699721964782
 30
0.0
 40
0.25
  0
CIRCLE
  8
0
 10
313.433734939759
 20
212.1501390176089
 30
0.0
 40
0.25
  0
CIRCLE
  8
0
 10
313.433734939759
 20
213.8832252085264
 30
0.0
 40
0.25
  0
CIRCLE
  8
0
 10
313.433734939759
 20
215.56533827618165
 30
0.0
 40
0.25
  0
CIRCLE
  8
0
 10
313.433734939759
 20
217.1964782205746
 30
0.0
 40
0.25
  0
CIRCLE
  8
0
 10
313.433734939759
 20
218.87859128822984
 30
0.0
 40
0.25
  0
CIRCLE
  8
0
 10
313.433734939759
 20
220.56070435588506
 30
0.0
 40
0.25
  0
CIRCLE
  8
0
 10
313.433734939759
 20
222.19184430027804
 30
0.0
 40
0.25
  0
CIRCLE
  8
0
 10
313.433734939759
 20
223.87395736793326
 30
0.0
 40
0.25
  0
CIRCLE
  8
0
 10
313.433734939759
 20
225.6070435588508
 30
0.0
 40
0.25
  0
CIRCLE
  8
0
 10
313.433734939759
 20
227.18721037998145
 30
0.0
 40
0.25
  0
CIRCLE
  8
0
 10
313.433734939759
 20
228.92029657089898
 30
0.0
 40
0.25
  0
CIRCLE
  8
0
 10
313.433734939759
 20
230.6024096385542
 30
0.0
 40
0.25
  0
CIRCLE
  8
0
 10
313.433734939759
 20
232.43744207599627
 30
0.0
 40
0.25
  0
CIRCLE
  8
0
 10
313.2298424467099
 20
234.01760889712696
 30
0.0
 40
0.25
  0
CIRCLE
  8
0
 10
313.2298424467099
 20
235.64874884151993
 30
0.0
 40
0.25
  0
CIRCLE
  8
0
 10
313.2298424467099
 20
237.2289156626506
 30
0.0
 40
0.25
  0
CIRCLE
  8
0
 10
313.2298424467099
 20
238.86005560704356
 30
0.0
 40
0.25
  0
CIRCLE
  8
0
 10
311.59870250231694
 20
183.86005560704356
 30
0.0
 40
0.25
  0
CIRCLE
  8
0
 10
311.59870250231694
 20
185.4911955514365
 30
0.0
 40
0.25
  0
CIRCLE
  8
0
 10
311.59870250231694
 20
187.0713623725672
 30
0.0
 40
0.25
  0
CIRCLE
  8
0
 10
311.59870250231694
 20
188.70250231696014
 30
0.0
 40
0.25
  0
CIRCLE
  8
0
 10
311.59870250231694
 20
190.28266913809082
 30
0.0
 40
0.25
  0
CIRCLE
  8
0
 10
311.7006487488415
 20
191.96478220574605
 30
0.0
 40
0.25
  0
CIRCLE
  8
0
 10
311.7006487488415
 20
193.79981464318814
 30
0.0
 40
0.25
  0
CIRCLE
  8
0
 10
311.7006487488415
 20
195.48192771084337
 30
0.0
 40
0.25
  0
CIRCLE
  8
0
 10
311.7006487488415
 20
197.11306765523634
 30
0.0
 40
0.25
  0
CIRCLE
  8
0
 10
311.7006487488415
 20
200.5282669138091
 30
0.0
 40
0.25
  0
CIRCLE
  8
0
 10
311.7006487488415
 20
202.10843373493975
 30
0.0
 40
0.25
  0
CIRCLE
  8
0
 10
311.7006487488415
 20
205.5236329935125
 30
0.0
 40
0.25
  0
CIRCLE
  8
0
 10
311.7006487488415
 20
207.15477293790545
 30
0.0
 40
0.25
  0
CIRCLE
  8
0
 10
311.7006487488415
 20
210.5699721964782
 30
0.0
 40
0.25
  0
CIRCLE
  8
0
 10
311.7006487488415
 20
212.1501390176089
 30
0.0
 40
0.25
  0
CIRCLE
  8
0
 10
311.7006487488415
 20
215.56533827618165
 30
0.0
 40
0.25
  0
CIRCLE
  8
0
 10
311.7006487488415
 20
217.1964782205746
 30
0.0
 40
0.25
  0
CIRCLE
  8
0
 10
311.7006487488415
 20
220.56070435588506
 30
0.0
 40
0.25
  0
CIRCLE
  8
0
 10
311.7006487488415
 20
222.19184430027804
 30
0.0
 40
0.25
  0
CIRCLE
  8
0
 10
311.7006487488415
 20
225.6070435588508
 30
0.0
 40
0.25
  0
CIRCLE
  8
0
 10
311.7006487488415
 20
227.18721037998145
 30
0.0
 40
0.25
  0
CIRCLE
  8
0
 10
311.7006487488415
 20
228.92029657089898
 30
0.0
 40
0.25
  0
CIRCLE
  8
0
 10
311.7006487488415
 20
230.70435588507877
 30
0.0
 40
0.25
  0
CIRCLE
  8
0
 10
311.59870250231694
 20
232.43744207599627
 30
0.0
 40
0.25
  0
CIRCLE
  8
0
 10
311.59870250231694
 20
234.01760889712696
 30
0.0
 40
0.25
  0
CIRCLE
  8
0
 10
311.59870250231694
 20
235.64874884151993
 30
0.0
 40
0.25
  0
CIRCLE
  8
0
 10
311.59870250231694
 20
237.2289156626506
 30
0.0
 40
0.25
  0
CIRCLE
  8
0
 10
311.59870250231694
 20
238.86005560704356
 30
0.0
 40
0.25
  0
CIRCLE
  8
0
 10
309.9165894346617
 20
185.4911955514365
 30
0.0
 40
0.25
  0
CIRCLE
  8
0
 10
309.9165894346617
 20
187.0713623725672
 30
0.0
 40
0.25
  0
CIRCLE
  8
0
 10
309.9165894346617
 20
188.70250231696014
 30
0.0
 40
0.25
  0
CIRCLE
  8
0
 10
309.9165894346617
 20
190.28266913809082
 30
0.0
 40
0.25
  0
CIRCLE
  8
0
 10
309.9165894346617
 20
191.96478220574605
 30
0.0
 40
0.25
  0
CIRCLE
  8
0
 10
310.0185356811863
 20
193.69786839666358
 30
0.0
 40
0.25
  0
CIRCLE
  8
0
 10
310.0185356811863
 20
195.48192771084337
 30
0.0
 40
0.25
  0
CIRCLE
  8
0
 10
310.0185356811863
 20
197.11306765523634
 30
0.0
 40
0.25
  0
CIRCLE
  8
0
 10
310.0185356811863
 20
198.79518072289156
 30
0.0
 40
0.25
  0
CIRCLE
  8
0
 10
310.0185356811863
 20
200.5282669138091
 30
0.0
 40
0.25
  0
CIRCLE
  8
0
 10
310.0185356811863
 20
202.10843373493975
 30
0.0
 40
0.25
  0
CIRCLE
  8
0
 10
310.0185356811863
 20
203.84151992585726
 30
0.0
 40
0.25
  0
CIRCLE
  8
0
 10
310.0185356811863
 20
205.5236329935125
 30
0.0
 40
0.25
  0
CIRCLE
  8
0
 10
310.0185356811863
 20
207.15477293790545
 30
0.0
 40
0.25
  0
CIRCLE
  8
0
 10
310.0185356811863
 20
208.8368860055607
 30
0.0
 40
0.25
  0
CIRCLE
  8
0
 10
310.0185356811863
 20
210.5699721964782
 30
0.0
 40
0.25
  0
CIRCLE
  8
0
 10
310.0185356811863
 20
212.1501390176089
 30
0.0
 40
0.25
  0
CIRCLE
  8
0
 10
310.0185356811863
 20
213.8832252085264
 30
0.0
 40
0.25
  0
CIRCLE
  8
0
 10
310.0185356811863
 20
215.56533827618165
 30
0.0
 40
0.25
  0
CIRCLE
  8
0
 10
310.0185356811863
 20
217.1964782205746
 30
0.0
 40
0.25
  0
CIRCLE
  8
0
 10
310.0185356811863
 20
218.87859128822984
 30
0.0
 40
0.25
  0
CIRCLE
  8
0
 10
310.0185356811863
 20
220.56070435588506
 30
0.0
 40
0.25
  0
CIRCLE
  8
0
 10
310.0185356811863
 20
222.19184430027804
 30
0.0
 40
0.25
  0
CIRCLE
  8
0
 10
310.0185356811863
 20
223.87395736793326
 30
0.0
 40
0.25
  0
CIRCLE
  8
0
 10
310.0185356811863
 20
225.6070435588508
 30
0.0
 40
0.25
  0
CIRCLE
  8
0
 10
310.0185356811863
 20
227.18721037998145
 30
0.0
 40
0.25
  0
CIRCLE
  8
0
 10
310.0185356811863
 20
229.02224281742355
 30
0.0
 40
0.25
  0
CIRCLE
  8
0
 10
309.9165894346617
 20
230.70435588507877
 30
0.0
 40
0.25
  0
CIRCLE
  8
0
 10
309.9165894346617
 20
232.43744207599627
 30
0.0
 40
0.25
  0
CIRCLE
  8
0
 10
309.9165894346617
 20
234.01760889712696
 30
0.0
 40
0.25
  0
CIRCLE
  8
0
 10
309.9165894346617
 20
235.64874884151993
 30
0.0
 40
0.25
  0
CIRCLE
  8
0
 10
309.9165894346617
 20
237.2289156626506
 30
0.0
 40
0.25
  0
CIRCLE
  8
0
 10
308.1835032437442
 20
183.86005560704356
 30
0.0
 40
0.25
  0
CIRCLE
  8
0
 10
308.1835032437442
 20
185.4911955514365
 30
0.0
 40
0.25
  0
CIRCLE
  8
0
 10
308.1835032437442
 20
187.0713623725672
 30
0.0
 40
0.25
  0
CIRCLE
  8
0
 10
308.1835032437442
 20
188.70250231696014
 30
0.0
 40
0.25
  0
CIRCLE
  8
0
 10
308.1835032437442
 20
190.28266913809082
 30
0.0
 40
0.25
  0
CIRCLE
  8
0
 10
308.1835032437442
 20
191.96478220574605
 30
0.0
 40
0.25
  0
CIRCLE
  8
0
 10
308.1835032437442
 20
193.69786839666358
 30
0.0
 40
0.25
  0
CIRCLE
  8
0
 10
308.38739573679334
 20
195.27803521779424
 30
0.0
 40
0.25
  0
CIRCLE
  8
0
 10
308.38739573679334
 20
197.11306765523634
 30
0.0
 40
0.25
  0
CIRCLE
  8
0
 10
308.38739573679334
 20
198.79518072289156
 30
0.0
 40
0.25
  0
CIRCLE
  8
0
 10
308.38739573679334
 20
200.5282669138091
 30
0.0
 40
0.25
  0
CIRCLE
  8
0
 10
308.38739573679334
 20
202.10843373493975
 30
0.0
 40
0.25
  0
CIRCLE
  8
0
 10
308.38739573679334
 20
203.84151992585726
 30
0.0
 40
0.25
  0
CIRCLE
  8
0
 10
308.38739573679334
 20
205.5236329935125
 30
0.0
 40
0.25
  0
CIRCLE
  8
0
 10
308.38739573679334
 20
207.15477293790545
 30
0.0
 40
0.25
  0
CIRCLE
  8
0
 10
308.38739573679334
 20
208.8368860055607
 30
0.0
 40
0.25
  0
CIRCLE
  8
0
 10
308.38739573679334
 20
210.5699721964782
 30
0.0
 40
0.25
  0
CIRCLE
  8
0
 10
308.38739573679334
 20
212.1501390176089
 30
0.0
 40
0.25
  0
CIRCLE
  8
0
 10
308.38739573679334
 20
213.8832252085264
 30
0.0
 40
0.25
  0
CIRCLE
  8
0
 10
308.38739573679334
 20
215.56533827618165
 30
0.0
 40
0.25
  0
CIRCLE
  8
0
 10
308.38739573679334
 20
217.1964782205746
 30
0.0
 40
0.25
  0
CIRCLE
  8
0
 10
308.38739573679334
 20
218.87859128822984
 30
0.0
 40
0.25
  0
CIRCLE
  8
0
 10
308.38739573679334
 20
220.56070435588506
 30
0.0
 40
0.25
  0
CIRCLE
  8
0
 10
308.38739573679334
 20
222.19184430027804
 30
0.0
 40
0.25
  0
CIRCLE
  8
0
 10
308.38739573679334
 20
223.87395736793326
 30
0.0
 40
0.25
  0
CIRCLE
  8
0
 10
308.38739573679334
 20
225.6070435588508
 30
0.0
 40
0.25
  0
CIRCLE
  8
0
 10
308.38739573679334
 20
227.39110287303058
 30
0.0
 40
0.25
  0
CIRCLE
  8
0
 10
308.1835032437442
 20
229.02224281742355
 30
0.0
 40
0.25
  0
CIRCLE
  8
0
 10
308.1835032437442
 20
230.70435588507877
 30
0.0
 40
0.25
  0
CIRCLE
  8
0
 10
308.1835032437442
 20
232.43744207599627
 30
0.0
 40
0.25
  0
CIRCLE
  8
0
 10
308.1835032437442
 20
234.01760889712696
 30
0.0
 40
0.25
  0
CIRCLE
  8
0
 10
308.1835032437442
 20
235.64874884151993
 30
0.0
 40
0.25
  0
CIRCLE
  8
0
 10
308.1835032437442
 20
237.2289156626506
 30
0.0
 40
0.25
  0
CIRCLE
  8
0
 10
308.1835032437442
 20
238.86005560704356
 30
0.0
 40
0.25
  0
CIRCLE
  8
0
 10
306.6033364226135
 20
183.86005560704356
 30
0.0
 40
0.25
  0
CIRCLE
  8
0
 10
306.6033364226135
 20
185.4911955514365
 30
0.0
 40
0.25
  0
CIRCLE
  8
0
 10
306.6033364226135
 20
187.0713623725672
 30
0.0
 40
0.25
  0
CIRCLE
  8
0
 10
306.6033364226135
 20
188.70250231696014
 30
0.0
 40
0.25
  0
CIRCLE
  8
0
 10
306.6033364226135
 20
190.28266913809082
 30
0.0
 40
0.25
  0
CIRCLE
  8
0
 10
306.6033364226135
 20
191.96478220574605
 30
0.0
 40
0.25
  0
CIRCLE
  8
0
 10
306.6033364226135
 20
193.69786839666358
 30
0.0
 40
0.25
  0
CIRCLE
  8
0
 10
306.6033364226135
 20
195.27803521779424
 30
0.0
 40
0.25
  0
CIRCLE
  8
0
 10
306.6033364226135
 20
227.39110287303058
 30
0.0
 40
0.25
  0
CIRCLE
  8
0
 10
306.6033364226135
 20
229.02224281742355
 30
0.0
 40
0.25
  0
CIRCLE
  8
0
 10
306.6033364226135
 20
230.70435588507877
 30
0.0
 40
0.25
  0
CIRCLE
  8
0
 10
306.6033364226135
 20
232.43744207599627
 30
0.0
 40
0.25
  0
CIRCLE
  8
0
 10
306.6033364226135
 20
234.01760889712696
 30
0.0
 40
0.25
  0
CIRCLE
  8
0
 10
306.6033364226135
 20
235.64874884151993
 30
0.0
 40
0.25
  0
CIRCLE
  8
0
 10
306.6033364226135
 20
237.2289156626506
 30
0.0
 40
0.25
  0
CIRCLE
  8
0
 10
306.6033364226135
 20
238.86005560704356
 30
0.0
 40
0.25
  0
CIRCLE
  8
0
 10
304.9212233549583
 20
185.4911955514365
 30
0.0
 40
0.25
  0
CIRCLE
  8
0
 10
304.9212233549583
 20
187.0713623725672
 30
0.0
 40
0.25
  0
CIRCLE
  8
0
 10
304.9212233549583
 20
188.70250231696014
 30
0.0
 40
0.25
  0
CIRCLE
  8
0
 10
304.9212233549583
 20
190.28266913809082
 30
0.0
 40
0.25
  0
CIRCLE
  8
0
 10
304.9212233549583
 20
193.69786839666358
 30
0.0
 40
0.25
  0
CIRCLE
  8
0
 10
304.9212233549583
 20
195.27803521779424
 30
0.0
 40
0.25
  0
CIRCLE
  8
0
 10
304.9212233549583
 20
227.39110287303058
 30
0.0
 40
0.25
  0
CIRCLE
  8
0
 10
304.9212233549583
 20
229.02224281742355
 30
0.0
 40
0.25
  0
CIRCLE
  8
0
 10
304.9212233549583
 20
232.43744207599627
 30
0.0
 40
0.25
  0
CIRCLE
  8
0
 10
304.9212233549583
 20
234.01760889712696
 30
0.0
 40
0.25
  0
CIRCLE
  8
0
 10
304.9212233549583
 20
235.64874884151993
 30
0.0
 40
0.25
  0
CIRCLE
  8
0
 10
304.9212233549583
 20
237.2289156626506
 30
0.0
 40
0.25
  0
CIRCLE
  8
0
 10
303.18813716404077
 20
183.86005560704356
 30
0.0
 40
0.25
  0
CIRCLE
  8
0
 10
303.18813716404077
 20
185.4911955514365
 30
0.0
 40
0.25
  0
CIRCLE
  8
0
 10
303.18813716404077
 20
187.0713623725672
 30
0.0
 40
0.25
  0
CIRCLE
  8
0
 10
303.18813716404077
 20
188.70250231696014
 30
0.0
 40
0.25
  0
CIRCLE
  8
0
 10
303.18813716404077
 20
190.28266913809082
 30
0.0
 40
0.25
  0
CIRCLE
  8
0
 10
303.18813716404077
 20
191.96478220574605
 30
0.0
 40
0.25
  0
CIRCLE
  8
0
 10
303.18813716404077
 20
193.69786839666358
 30
0.0
 40
0.25
  0
CIRCLE
  8
0
 10
303.18813716404077
 20
195.27803521779424
 30
0.0
 40
0.25
  0
CIRCLE
  8
0
 10
303.18813716404077
 20
227.39110287303058
 30
0.0
 40
0.25
  0
CIRCLE
  8
0
 10
303.18813716404077
 20
229.02224281742355
 30
0.0
 40
0.25
  0
CIRCLE
  8
0
 10
303.18813716404077
 20
230.70435588507877
 30
0.0
 40
0.25
  0
CIRCLE
  8
0
 10
303.18813716404077
 20
232.43744207599627
 30
0.0
 40
0.25
  0
CIRCLE
  8
0
 10
303.18813716404077
 20
234.01760889712696
 30
0.0
 40
0.25
  0
CIRCLE
  8
0
 10
303.18813716404077
 20
235.64874884151993
 30
0.0
 40
0.25
  0
CIRCLE
  8
0
 10
303.18813716404077
 20
237.2289156626506
 30
0.0
 40
0.25
  0
CIRCLE
  8
0
 10
303.18813716404077
 20
238.86005560704356
 30
0.0
 40
0.25
  0
CIRCLE
  8
0
 10
301.6079703429101
 20
183.86005560704356
 30
0.0
 40
0.25
  0
CIRCLE
  8
0
 10
301.6079703429101
 20
185.4911955514365
 30
0.0
 40
0.25
  0
CIRCLE
  8
0
 10
301.6079703429101
 20
187.0713623725672
 30
0.0
 40
0.25
  0
CIRCLE
  8
0
 10
301.6079703429101
 20
188.70250231696014
 30
0.0
 40
0.25
  0
CIRCLE
  8
0
 10
301.6079703429101
 20
190.28266913809082
 30
0.0
 40
0.25
  0
CIRCLE
  8
0
 10
301.6079703429101
 20
191.96478220574605
 30
0.0
 40
0.25
  0
CIRCLE
  8
0
 10
301.6079703429101
 20
193.69786839666358
 30
0.0
 40
0.25
  0
CIRCLE
  8
0
 10
301.6079703429101
 20
195.27803521779424
 30
0.0
 40
0.25
  0
CIRCLE
  8
0
 10
303.3920296570899
 20
200.32437442075997
 30
0.0
 40
0.25
  0
CIRCLE
  8
0
 10
303.3920296570899
 20
202.31232622798888
 30
0.0
 40
0.25
  0
CIRCLE
  8
0
 10
303.3920296570899
 20
204.35125115848007
 30
0.0
 40
0.25
  0
CIRCLE
  8
0
 10
303.3920296570899
 20
206.33920296570898
 30
0.0
 40
0.25
  0
CIRCLE
  8
0
 10
303.3920296570899
 20
208.3271547729379
 30
0.0
 40
0.25
  0
CIRCLE
  8
0
 10
303.3920296570899
 20
210.3660797034291
 30
0.0
 40
0.25
  0
CIRCLE
  8
0
 10
303.3920296570899
 20
212.35403151065802
 30
0.0
 40
0.25
  0
CIRCLE
  8
0
 10
303.3920296570899
 20
214.34198331788693
 30
0.0
 40
0.25
  0
CIRCLE
  8
0
 10
303.3920296570899
 20
216.38090824837812
 30
0.0
 40
0.25
  0
CIRCLE
  8
0
 10
303.3920296570899
 20
218.36886005560703
 30
0.0
 40
0.25
  0
CIRCLE
  8
0
 10
303.3920296570899
 20
220.40778498609822
 30
0.0
 40
0.25
  0
CIRCLE
  8
0
 10
303.3920296570899
 20
222.34476367006488
 30
0.0
 40
0.25
  0
CIRCLE
  8
0
 10
301.6079703429101
 20
227.39110287303058
 30
0.0
 40
0.25
  0
CIRCLE
  8
0
 10
301.6079703429101
 20
229.02224281742355
 30
0.0
 40
0.25
  0
CIRCLE
  8
0
 10
301.6079703429101
 20
230.70435588507877
 30
0.0
 40
0.25
  0
CIRCLE
  8
0
 10
301.6079703429101
 20
232.43744207599627
 30
0.0
 40
0.25
  0
CIRCLE
  8
0
 10
301.6079703429101
 20
234.01760889712696
 30
0.0
 40
0.25
  0
CIRCLE
  8
0
 10
301.6079703429101
 20
235.64874884151993
 30
0.0
 40
0.25
  0
CIRCLE
  8
0
 10
301.6079703429101
 20
237.2289156626506
 30
0.0
 40
0.25
  0
CIRCLE
  8
0
 10
301.6079703429101
 20
238.86005560704356
 30
0.0
 40
0.25
  0
CIRCLE
  8
0
 10
299.8748841519926
 20
185.4911955514365
 30
0.0
 40
0.25
  0
CIRCLE
  8
0
 10
299.8748841519926
 20
187.0713623725672
 30
0.0
 40
0.25
  0
CIRCLE
  8
0
 10
299.8748841519926
 20
188.70250231696014
 30
0.0
 40
0.25
  0
CIRCLE
  8
0
 10
299.8748841519926
 20
190.28266913809082
 30
0.0
 40
0.25
  0
CIRCLE
  8
0
 10
299.8748841519926
 20
193.69786839666358
 30
0.0
 40
0.25
  0
CIRCLE
  8
0
 10
299.8748841519926
 20
195.27803521779424
 30
0.0
 40
0.25
  0
CIRCLE
  8
0
 10
301.404077849861
 20
200.32437442075997
 30
0.0
 40
0.25
  0
CIRCLE
  8
0
 10
301.404077849861
 20
202.31232622798888
 30
0.0
 40
0.25
  0
CIRCLE
  8
0
 10
301.404077849861
 20
204.35125115848007
 30
0.0
 40
0.25
  0
CIRCLE
  8
0
 10
301.404077849861
 20
206.33920296570898
 30
0.0
 40
0.25
  0
CIRCLE
  8
0
 10
301.404077849861
 20
208.3271547729379
 30
0.0
 40
0.25
  0
CIRCLE
  8
0
 10
301.404077849861
 20
210.3660797034291
 30
0.0
 40
0.25
  0
CIRCLE
  8
0
 10
301.404077849861
 20
212.35403151065802
 30
0.0
 40
0.25
  0
CIRCLE
  8
0
 10
301.404077849861
 20
214.34198331788693
 30
0.0
 40
0.25
  0
CIRCLE
  8
0
 10
301.404077849861
 20
216.38090824837812
 30
0.0
 40
0.25
  0
CIRCLE
  8
0
 10
301.404077849861
 20
218.36886005560703
 30
0.0
 40
0.25
  0
CIRCLE
  8
0
 10
301.404077849861
 20
220.40778498609822
 30
0.0
 40
0.25
  0
CIRCLE
  8
0
 10
301.404077849861
 20
222.34476367006488
 30
0.0
 40
0.25
  0
CIRCLE
  8
0
 10
299.8748841519926
 20
227.39110287303058
 30
0.0
 40
0.25
  0
CIRCLE
  8
0
 10
299.8748841519926
 20
229.02224281742355
 30
0.0
 40
0.25
  0
CIRCLE
  8
0
 10
299.8748841519926
 20
232.43744207599627
 30
0.0
 40
0.25
  0
CIRCLE
  8
0
 10
299.8748841519926
 20
234.01760889712696
 30
0.0
 40
0.25
  0
CIRCLE
  8
0
 10
299.8748841519926
 20
235.64874884151993
 30
0.0
 40
0.25
  0
CIRCLE
  8
0
 10
299.8748841519926
 20
237.2289156626506
 30
0.0
 40
0.25
  0
CIRCLE
  8
0
 10
298.1927710843373
 20
183.86005560704356
 30
0.0
 40
0.25
  0
CIRCLE
  8
0
 10
298.1927710843373
 20
185.4911955514365
 30
0.0
 40
0.25
  0
CIRCLE
  8
0
 10
298.1927710843373
 20
187.0713623725672
 30
0.0
 40
0.25
  0
CIRCLE
  8
0
 10
298.1927710843373
 20
188.70250231696014
 30
0.0
 40
0.25
  0
CIRCLE
  8
0
 10
298.1927710843373
 20
190.28266913809082
 30
0.0
 40
0.25
  0
CIRCLE
  8
0
 10
298.1927710843373
 20
191.96478220574605
 30
0.0
 40
0.25
  0
CIRCLE
  8
0
 10
298.1927710843373
 20
193.69786839666358
 30
0.0
 40
0.25
  0
CIRCLE
  8
0
 10
298.1927710843373
 20
195.27803521779424
 30
0.0
 40
0.25
  0
CIRCLE
  8
0
 10
299.3651529193698
 20
200.32437442075997
 30
0.0
 40
0.25
  0
CIRCLE
  8
0
 10
299.3651529193698
 20
202.31232622798888
 30
0.0
 40
0.25
  0
CIRCLE
  8
0
 10
299.3651529193698
 20
204.35125115848007
 30
0.0
 40
0.25
  0
CIRCLE
  8
0
 10
299.3651529193698
 20
206.33920296570898
 30
0.0
 40
0.25
  0
CIRCLE
  8
0
 10
299.3651529193698
 20
208.3271547729379
 30
0.0
 40
0.25
  0
CIRCLE
  8
0
 10
299.3651529193698
 20
210.3660797034291
 30
0.0
 40
0.25
  0
CIRCLE
  8
0
 10
299.3651529193698
 20
212.35403151065802
 30
0.0
 40
0.25
  0
CIRCLE
  8
0
 10
299.3651529193698
 20
214.34198331788693
 30
0.0
 40
0.25
  0
CIRCLE
  8
0
 10
299.3651529193698
 20
216.38090824837812
 30
0.0
 40
0.25
  0
CIRCLE
  8
0
 10
299.3651529193698
 20
218.36886005560703
 30
0.0
 40
0.25
  0
CIRCLE
  8
0
 10
299.3651529193698
 20
220.40778498609822
 30
0.0
 40
0.25
  0
CIRCLE
  8
0
 10
299.3651529193698
 20
222.34476367006488
 30
0.0
 40
0.25
  0
CIRCLE
  8
0
 10
298.1927710843373
 20
227.39110287303058
 30
0.0
 40
0.25
  0
CIRCLE
  8
0
 10
298.1927710843373
 20
229.02224281742355
 30
0.0
 40
0.25
  0
CIRCLE
  8
0
 10
298.1927710843373
 20
230.70435588507877
 30
0.0
 40
0.25
  0
CIRCLE
  8
0
 10
298.1927710843373
 20
232.43744207599627
 30
0.0
 40
0.25
  0
CIRCLE
  8
0
 10
298.1927710843373
 20
234.01760889712696
 30
0.0
 40
0.25
  0
CIRCLE
  8
0
 10
298.1927710843373
 20
235.64874884151993
 30
0.0
 40
0.25
  0
CIRCLE
  8
0
 10
298.1927710843373
 20
237.2289156626506
 30
0.0
 40
0.25
  0
CIRCLE
  8
0
 10
298.1927710843373
 20
238.86005560704356
 30
0.0
 40
0.25
  0
CIRCLE
  8
0
 10
296.5616311399444
 20
183.86005560704356
 30
0.0
 40
0.25
  0
CIRCLE
  8
0
 10
296.5616311399444
 20
185.4911955514365
 30
0.0
 40
0.25
  0
CIRCLE
  8
0
 10
296.5616311399444
 20
187.0713623725672
 30
0.0
 40
0.25
  0
CIRCLE
  8
0
 10
296.5616311399444
 20
188.70250231696014
 30
0.0
 40
0.25
  0
CIRCLE
  8
0
 10
296.5616311399444
 20
190.28266913809082
 30
0.0
 40
0.25
  0
CIRCLE
  8
0
 10
296.5616311399444
 20
191.96478220574605
 30
0.0
 40
0.25
  0
CIRCLE
  8
0
 10
296.5616311399444
 20
193.69786839666358
 30
0.0
 40
0.25
  0
CIRCLE
  8
0
 10
296.5616311399444
 20
195.27803521779424
 30
0.0
 40
0.25
  0
CIRCLE
  8
0
 10
297.3772011121409
 20
200.32437442075997
 30
0.0
 40
0.25
  0
CIRCLE
  8
0
 10
297.3772011121409
 20
202.31232622798888
 30
0.0
 40
0.25
  0
CIRCLE
  8
0
 10
297.3772011121409
 20
204.35125115848007
 30
0.0
 40
0.25
  0
CIRCLE
  8
0
 10
297.3772011121409
 20
206.33920296570898
 30
0.0
 40
0.25
  0
CIRCLE
  8
0
 10
297.3772011121409
 20
208.3271547729379
 30
0.0
 40
0.25
  0
CIRCLE
  8
0
 10
297.3772011121409
 20
210.3660797034291
 30
0.0
 40
0.25
  0
CIRCLE
  8
0
 10
297.3772011121409
 20
212.35403151065802
 30
0.0
 40
0.25
  0
CIRCLE
  8
0
 10
297.3772011121409
 20
214.34198331788693
 30
0.0
 40
0.25
  0
CIRCLE
  8
0
 10
297.3772011121409
 20
216.38090824837812
 30
0.0
 40
0.25
  0
CIRCLE
  8
0
 10
297.3772011121409
 20
218.36886005560703
 30
0.0
 40
0.25
  0
CIRCLE
  8
0
 10
297.3772011121409
 20
220.40778498609822
 30
0.0
 40
0.25
  0
CIRCLE
  8
0
 10
297.3772011121409
 20
222.34476367006488
 30
0.0
 40
0.25
  0
CIRCLE
  8
0
 10
296.5616311399444
 20
227.39110287303058
 30
0.0
 40
0.25
  0
CIRCLE
  8
0
 10
296.5616311399444
 20
229.02224281742355
 30
0.0
 40
0.25
  0
CIRCLE
  8
0
 10
296.5616311399444
 20
230.70435588507877
 30
0.0
 40
0.25
  0
CIRCLE
  8
0
 10
296.5616311399444
 20
232.43744207599627
 30
0.0
 40
0.25
  0
CIRCLE
  8
0
 10
296.5616311399444
 20
234.01760889712696
 30
0.0
 40
0.25
  0
CIRCLE
  8
0
 10
296.5616311399444
 20
235.64874884151993
 30
0.0
 40
0.25
  0
CIRCLE
  8
0
 10
296.5616311399444
 20
237.2289156626506
 30
0.0
 40
0.25
  0
CIRCLE
  8
0
 10
296.5616311399444
 20
238.86005560704356
 30
0.0
 40
0.25
  0
CIRCLE
  8
0
 10
294.87951807228916
 20
185.4911955514365
 30
0.0
 40
0.25
  0
CIRCLE
  8
0
 10
294.87951807228916
 20
187.0713623725672
 30
0.0
 40
0.25
  0
CIRCLE
  8
0
 10
294.87951807228916
 20
188.70250231696014
 30
0.0
 40
0.25
  0
CIRCLE
  8
0
 10
294.87951807228916
 20
190.28266913809082
 30
0.0
 40
0.25
  0
CIRCLE
  8
0
 10
294.87951807228916
 20
193.69786839666358
 30
0.0
 40
0.25
  0
CIRCLE
  8
0
 10
294.87951807228916
 20
195.27803521779424
 30
0.0
 40
0.25
  0
CIRCLE
  8
0
 10
295.38924930491197
 20
200.32437442075997
 30
0.0
 40
0.25
  0
CIRCLE
  8
0
 10
295.38924930491197
 20
202.31232622798888
 30
0.0
 40
0.25
  0
CIRCLE
  8
0
 10
295.38924930491197
 20
204.35125115848007
 30
0.0
 40
0.25
  0
CIRCLE
  8
0
 10
295.38924930491197
 20
206.33920296570898
 30
0.0
 40
0.25
  0
CIRCLE
  8
0
 10
295.38924930491197
 20
208.3271547729379
 30
0.0
 40
0.25
  0
CIRCLE
  8
0
 10
295.38924930491197
 20
210.3660797034291
 30
0.0
 40
0.25
  0
CIRCLE
  8
0
 10
295.38924930491197
 20
212.35403151065802
 30
0.0
 40
0.25
  0
CIRCLE
  8
0
 10
295.38924930491197
 20
214.34198331788693
 30
0.0
 40
0.25
  0
CIRCLE
  8
0
 10
295.38924930491197
 20
216.38090824837812
 30
0.0
 40
0.25
  0
CIRCLE
  8
0
 10
295.38924930491197
 20
218.36886005560703
 30
0.0
 40
0.25
  0
CIRCLE
  8
0
 10
295.38924930491197
 20
220.40778498609822
 30
0.0
 40
0.25
  0
CIRCLE
  8
0
 10
295.38924930491197
 20
222.34476367006488
 30
0.0
 40
0.25
  0
CIRCLE
  8
0
 10
294.87951807228916
 20
227.39110287303058
 30
0.0
 40
0.25
  0
CIRCLE
  8
0
 10
294.87951807228916
 20
229.02224281742355
 30
0.0
 40
0.25
  0
CIRCLE
  8
0
 10
294.87951807228916
 20
232.43744207599627
 30
0.0
 40
0.25
  0
CIRCLE
  8
0
 10
294.87951807228916
 20
234.01760889712696
 30
0.0
 40
0.25
  0
CIRCLE
  8
0
 10
294.87951807228916
 20
235.64874884151993
 30
0.0
 40
0.25
  0
CIRCLE
  8
0
 10
294.87951807228916
 20
237.2289156626506
 30
0.0
 40
0.25
  0
CIRCLE
  8
0
 10
293.14643188137165
 20
183.86005560704356
 30
0.0
 40
0.25
  0
CIRCLE
  8
0
 10
293.14643188137165
 20
185.4911955514365
 30
0.0
 40
0.25
  0
CIRCLE
  8
0
 10
293.14643188137165
 20
187.0713623725672
 30
0.0
 40
0.25
  0
CIRCLE
  8
0
 10
293.14643188137165
 20
188.70250231696014
 30
0.0
 40
0.25
  0
CIRCLE
  8
0
 10
293.14643188137165
 20
190.28266913809082
 30
0.0
 40
0.25
  0
CIRCLE
  8
0
 10
293.14643188137165
 20
191.96478220574605
 30
0.0
 40
0.25
  0
CIRCLE
  8
0
 10
293.14643188137165
 20
193.69786839666358
 30
0.0
 40
0.25
  0
CIRCLE
  8
0
 10
293.14643188137165
 20
195.27803521779424
 30
0.0
 40
0.25
  0
CIRCLE
  8
0
 10
293.3503243744208
 20
200.32437442075997
 30
0.0
 40
0.25
  0
CIRCLE
  8
0
 10
293.3503243744208
 20
202.31232622798888
 30
0.0
 40
0.25
  0
CIRCLE
  8
0
 10
293.3503243744208
 20
204.35125115848007
 30
0.0
 40
0.25
  0
CIRCLE
  8
0
 10
293.3503243744208
 20
206.33920296570898
 30
0.0
 40
0.25
  0
CIRCLE
  8
0
 10
293.3503243744208
 20
208.3271547729379
 30
0.0
 40
0.25
  0
CIRCLE
  8
0
 10
293.3503243744208
 20
210.3660797034291
 30
0.0
 40
0.25
  0
CIRCLE
  8
0
 10
293.3503243744208
 20
212.35403151065802
 30
0.0
 40
0.25
  0
CIRCLE
  8
0
 10
293.3503243744208
 20
214.34198331788693
 30
0.0
 40
0.25
  0
CIRCLE
  8
0
 10
293.3503243744208
 20
216.38090824837812
 30
0.0
 40
0.25
  0
CIRCLE
  8
0
 10
293.3503243744208
 20
218.36886005560703
 30
0.0
 40
0.25
  0
CIRCLE
  8
0
 10
293.3503243744208
 20
220.40778498609822
 30
0.0
 40
0.25
  0
CIRCLE
  8
0
 10
293.3503243744208
 20
222.34476367006488
 30
0.0
 40
0.25
  0
CIRCLE
  8
0
 10
293.14643188137165
 20
227.39110287303058
 30
0.0
 40
0.25
  0
CIRCLE
  8
0
 10
293.14643188137165
 20
229.02224281742355
 30
0.0
 40
0.25
  0
CIRCLE
  8
0
 10
293.14643188137165
 20
230.70435588507877
 30
0.0
 40
0.25
  0
CIRCLE
  8
0
 10
293.14643188137165
 20
232.43744207599627
 30
0.0
 40
0.25
  0
CIRCLE
  8
0
 10
293.14643188137165
 20
234.01760889712696
 30
0.0
 40
0.25
  0
CIRCLE
  8
0
 10
293.14643188137165
 20
235.64874884151993
 30
0.0
 40
0.25
  0
CIRCLE
  8
0
 10
293.14643188137165
 20
237.2289156626506
 30
0.0
 40
0.25
  0
CIRCLE
  8
0
 10
293.14643188137165
 20
238.86005560704356
 30
0.0
 40
0.25
  0
CIRCLE
  8
0
 10
291.56626506024094
 20
183.86005560704356
 30
0.0
 40
0.25
  0
CIRCLE
  8
0
 10
291.56626506024094
 20
185.4911955514365
 30
0.0
 40
0.25
  0
CIRCLE
  8
0
 10
291.56626506024094
 20
187.0713623725672
 30
0.0
 40
0.25
  0
CIRCLE
  8
0
 10
291.56626506024094
 20
188.70250231696014
 30
0.0
 40
0.25
  0
CIRCLE
  8
0
 10
291.56626506024094
 20
190.28266913809082
 30
0.0
 40
0.25
  0
CIRCLE
  8
0
 10
291.56626506024094
 20
191.96478220574605
 30
0.0
 40
0.25
  0
CIRCLE
  8
0
 10
291.56626506024094
 20
193.69786839666358
 30
0.0
 40
0.25
  0
CIRCLE
  8
0
 10
291.56626506024094
 20
195.27803521779424
 30
0.0
 40
0.25
  0
CIRCLE
  8
0
 10
291.3623725671918
 20
200.32437442075997
 30
0.0
 40
0.25
  0
CIRCLE
  8
0
 10
291.3623725671918
 20
202.31232622798888
 30
0.0
 40
0.25
  0
CIRCLE
  8
0
 10
291.3623725671918
 20
204.35125115848007
 30
0.0
 40
0.25
  0
CIRCLE
  8
0
 10
291.3623725671918
 20
206.33920296570898
 30
0.0
 40
0.25
  0
CIRCLE
  8
0
 10
291.3623725671918
 20
208.3271547729379
 30
0.0
 40
0.25
  0
CIRCLE
  8
0
 10
291.3623725671918
 20
210.3660797034291
 30
0.0
 40
0.25
  0
CIRCLE
  8
0
 10
291.3623725671918
 20
212.35403151065802
 30
0.0
 40
0.25
  0
CIRCLE
  8
0
 10
291.3623725671918
 20
214.34198331788693
 30
0.0
 40
0.25
  0
CIRCLE
  8
0
 10
291.3623725671918
 20
216.38090824837812
 30
0.0
 40
0.25
  0
CIRCLE
  8
0
 10
291.3623725671918
 20
218.36886005560703
 30
0.0
 40
0.25
  0
CIRCLE
  8
0
 10
291.3623725671918
 20
220.40778498609822
 30
0.0
 40
0.25
  0
CIRCLE
  8
0
 10
291.3623725671918
 20
222.34476367006488
 30
0.0
 40
0.25
  0
CIRCLE
  8
0
 10
291.56626506024094
 20
227.39110287303058
 30
0.0
 40
0.25
  0
CIRCLE
  8
0
 10
291.56626506024094
 20
229.02224281742355
 30
0.0
 40
0.25
  0
CIRCLE
  8
0
 10
291.56626506024094
 20
230.70435588507877
 30
0.0
 40
0.25
  0
CIRCLE
  8
0
 10
291.56626506024094
 20
232.43744207599627
 30
0.0
 40
0.25
  0
CIRCLE
  8
0
 10
291.56626506024094
 20
234.01760889712696
 30
0.0
 40
0.25
  0
CIRCLE
  8
0
 10
291.56626506024094
 20
235.64874884151993
 30
0.0
 40
0.25
  0
CIRCLE
  8
0
 10
291.56626506024094
 20
237.2289156626506
 30
0.0
 40
0.25
  0
CIRCLE
  8
0
 10
291.56626506024094
 20
238.86005560704356
 30
0.0
 40
0.25
  0
CIRCLE
  8
0
 10
289.83317886932343
 20
185.4911955514365
 30
0.0
 40
0.25
  0
CIRCLE
  8
0
 10
289.83317886932343
 20
187.0713623725672
 30
0.0
 40
0.25
  0
CIRCLE
  8
0
 10
289.83317886932343
 20
188.70250231696014
 30
0.0
 40
0.25
  0
CIRCLE
  8
0
 10
289.83317886932343
 20
190.28266913809082
 30
0.0
 40
0.25
  0
CIRCLE
  8
0
 10
289.83317886932343
 20
193.69786839666358
 30
0.0
 40
0.25
  0
CIRCLE
  8
0
 10
289.83317886932343
 20
195.27803521779424
 30
0.0
 40
0.25
  0
CIRCLE
  8
0
 10
289.3234476367006
 20
200.32437442075997
 30
0.0
 40
0.25
  0
CIRCLE
  8
0
 10
289.3234476367006
 20
202.31232622798888
 30
0.0
 40
0.25
  0
CIRCLE
  8
0
 10
289.3234476367006
 20
204.35125115848007
 30
0.0
 40
0.25
  0
CIRCLE
  8
0
 10
289.3234476367006
 20
206.33920296570898
 30
0.0
 40
0.25
  0
CIRCLE
  8
0
 10
289.3234476367006
 20
208.3271547729379
 30
0.0
 40
0.25
  0
CIRCLE
  8
0
 10
289.3234476367006
 20
210.3660797034291
 30
0.0
 40
0.25
  0
CIRCLE
  8
0
 10
289.3234476367006
 20
212.35403151065802
 30
0.0
 40
0.25
  0
CIRCLE
  8
0
 10
289.3234476367006
 20
214.34198331788693
 30
0.0
 40
0.25
  0
CIRCLE
  8
0
 10
289.3234476367006
 20
216.38090824837812
 30
0.0
 40
0.25
  0
CIRCLE
  8
0
 10
289.3234476367006
 20
218.36886005560703
 30
0.0
 40
0.25
  0
CIRCLE
  8
0
 10
289.3234476367006
 20
220.40778498609822
 30
0.0
 40
0.25
  0
CIRCLE
  8
0
 10
289.3234476367006
 20
222.34476367006488
 30
0.0
 40
0.25
  0
CIRCLE
  8
0
 10
289.83317886932343
 20
227.39110287303058
 30
0.0
 40
0.25
  0
CIRCLE
  8
0
 10
289.83317886932343
 20
229.02224281742355
 30
0.0
 40
0.25
  0
CIRCLE
  8
0
 10
289.83317886932343
 20
232.43744207599627
 30
0.0
 40
0.25
  0
CIRCLE
  8
0
 10
289.83317886932343
 20
234.01760889712696
 30
0.0
 40
0.25
  0
CIRCLE
  8
0
 10
289.83317886932343
 20
235.64874884151993
 30
0.0
 40
0.25
  0
CIRCLE
  8
0
 10
289.83317886932343
 20
237.2289156626506
 30
0.0
 40
0.25
  0
CIRCLE
  8
0
 10
288.1510658016682
 20
183.86005560704356
 30
0.0
 40
0.25
  0
CIRCLE
  8
0
 10
288.1510658016682
 20
185.4911955514365
 30
0.0
 40
0.25
  0
CIRCLE
  8
0
 10
288.1510658016682
 20
187.0713623725672
 30
0.0
 40
0.25
  0
CIRCLE
  8
0
 10
288.1510658016682
 20
188.70250231696014
 30
0.0
 40
0.25
  0
CIRCLE
  8
0
 10
288.1510658016682
 20
190.28266913809082
 30
0.0
 40
0.25
  0
CIRCLE
  8
0
 10
288.1510658016682
 20
191.96478220574605
 30
0.0
 40
0.25
  0
CIRCLE
  8
0
 10
288.1510658016682
 20
193.69786839666358
 30
0.0
 40
0.25
  0
CIRCLE
  8
0
 10
288.1510658016682
 20
195.27803521779424
 30
0.0
 40
0.25
  0
CIRCLE
  8
0
 10
287.3354958294717
 20
200.32437442075997
 30
0.0
 40
0.25
  0
CIRCLE
  8
0
 10
287.3354958294717
 20
202.31232622798888
 30
0.0
 40
0.25
  0
CIRCLE
  8
0
 10
287.3354958294717
 20
204.35125115848007
 30
0.0
 40
0.25
  0
CIRCLE
  8
0
 10
287.3354958294717
 20
206.33920296570898
 30
0.0
 40
0.25
  0
CIRCLE
  8
0
 10
287.3354958294717
 20
208.3271547729379
 30
0.0
 40
0.25
  0
CIRCLE
  8
0
 10
287.3354958294717
 20
210.3660797034291
 30
0.0
 40
0.25
  0
CIRCLE
  8
0
 10
287.3354958294717
 20
212.35403151065802
 30
0.0
 40
0.25
  0
CIRCLE
  8
0
 10
287.3354958294717
 20
214.34198331788693
 30
0.0
 40
0.25
  0
CIRCLE
  8
0
 10
287.3354958294717
 20
216.38090824837812
 30
0.0
 40
0.25
  0
CIRCLE
  8
0
 10
287.3354958294717
 20
218.36886005560703
 30
0.0
 40
0.25
  0
CIRCLE
  8
0
 10
287.3354958294717
 20
220.40778498609822
 30
0.0
 40
0.25
  0
CIRCLE
  8
0
 10
287.3354958294717
 20
222.34476367006488
 30
0.0
 40
0.25
  0
CIRCLE
  8
0
 10
288.1510658016682
 20
227.39110287303058
 30
0.0
 40
0.25
  0
CIRCLE
  8
0
 10
288.1510658016682
 20
229.02224281742355
 30
0.0
 40
0.25
  0
CIRCLE
  8
0
 10
288.1510658016682
 20
230.70435588507877
 30
0.0
 40
0.25
  0
CIRCLE
  8
0
 10
288.1510658016682
 20
232.43744207599627
 30
0.0
 40
0.25
  0
CIRCLE
  8
0
 10
288.1510658016682
 20
234.01760889712696
 30
0.0
 40
0.25
  0
CIRCLE
  8
0
 10
288.1510658016682
 20
235.64874884151993
 30
0.0
 40
0.25
  0
CIRCLE
  8
0
 10
288.1510658016682
 20
237.2289156626506
 30
0.0
 40
0.25
  0
CIRCLE
  8
0
 10
288.1510658016682
 20
238.86005560704356
 30
0.0
 40
0.25
  0
CIRCLE
  8
0
 10
286.51992585727527
 20
183.86005560704356
 30
0.0
 40
0.25
  0
CIRCLE
  8
0
 10
286.51992585727527
 20
185.4911955514365
 30
0.0
 40
0.25
  0
CIRCLE
  8
0
 10
286.51992585727527
 20
187.0713623725672
 30
0.0
 40
0.25
  0
CIRCLE
  8
0
 10
286.51992585727527
 20
188.70250231696014
 30
0.0
 40
0.25
  0
CIRCLE
  8
0
 10
286.51992585727527
 20
190.28266913809082
 30
0.0
 40
0.25
  0
CIRCLE
  8
0
 10
286.51992585727527
 20
191.96478220574605
 30
0.0
 40
0.25
  0
CIRCLE
  8
0
 10
286.51992585727527
 20
193.69786839666358
 30
0.0
 40
0.25
  0
CIRCLE
  8
0
 10
286.51992585727527
 20
195.27803521779424
 30
0.0
 40
0.25
  0
CIRCLE
  8
0
 10
285.3475440222428
 20
200.32437442075997
 30
0.0
 40
0.25
  0
CIRCLE
  8
0
 10
285.3475440222428
 20
202.31232622798888
 30
0.0
 40
0.25
  0
CIRCLE
  8
0
 10
285.3475440222428
 20
204.35125115848007
 30
0.0
 40
0.25
  0
CIRCLE
  8
0
 10
285.3475440222428
 20
206.33920296570898
 30
0.0
 40
0.25
  0
CIRCLE
  8
0
 10
285.3475440222428
 20
208.3271547729379
 30
0.0
 40
0.25
  0
CIRCLE
  8
0
 10
285.3475440222428
 20
210.3660797034291
 30
0.0
 40
0.25
  0
CIRCLE
  8
0
 10
285.3475440222428
 20
212.35403151065802
 30
0.0
 40
0.25
  0
CIRCLE
  8
0
 10
285.3475440222428
 20
214.34198331788693
 30
0.0
 40
0.25
  0
CIRCLE
  8
0
 10
285.3475440222428
 20
216.38090824837812
 30
0.0
 40
0.25
  0
CIRCLE
  8
0
 10
285.3475440222428
 20
218.36886005560703
 30
0.0
 40
0.25
  0
CIRCLE
  8
0
 10
285.3475440222428
 20
220.40778498609822
 30
0.0
 40
0.25
  0
CIRCLE
  8
0
 10
285.3475440222428
 20
222.34476367006488
 30
0.0
 40
0.25
  0
CIRCLE
  8
0
 10
286.51992585727527
 20
227.39110287303058
 30
0.0
 40
0.25
  0
CIRCLE
  8
0
 10
286.51992585727527
 20
229.02224281742355
 30
0.0
 40
0.25
  0
CIRCLE
  8
0
 10
286.51992585727527
 20
230.70435588507877
 30
0.0
 40
0.25
  0
CIRCLE
  8
0
 10
286.51992585727527
 20
232.43744207599627
 30
0.0
 40
0.25
  0
CIRCLE
  8
0
 10
286.51992585727527
 20
234.01760889712696
 30
0.0
 40
0.25
  0
CIRCLE
  8
0
 10
286.51992585727527
 20
235.64874884151993
 30
0.0
 40
0.25
  0
CIRCLE
  8
0
 10
286.51992585727527
 20
237.2289156626506
 30
0.0
 40
0.25
  0
CIRCLE
  8
0
 10
286.51992585727527
 20
238.86005560704356
 30
0.0
 40
0.25
  0
CIRCLE
  8
0
 10
284.83781278962
 20
185.4911955514365
 30
0.0
 40
0.25
  0
CIRCLE
  8
0
 10
284.83781278962
 20
187.0713623725672
 30
0.0
 40
0.25
  0
CIRCLE
  8
0
 10
284.83781278962
 20
188.70250231696014
 30
0.0
 40
0.25
  0
CIRCLE
  8
0
 10
284.83781278962
 20
190.28266913809082
 30
0.0
 40
0.25
  0
CIRCLE
  8
0
 10
284.83781278962
 20
193.69786839666358
 30
0.0
 40
0.25
  0
CIRCLE
  8
0
 10
284.83781278962
 20
195.27803521779424
 30
0.0
 40
0.25
  0
CIRCLE
  8
0
 10
283.3086190917516
 20
200.32437442075997
 30
0.0
 40
0.25
  0
CIRCLE
  8
0
 10
283.3086190917516
 20
202.31232622798888
 30
0.0
 40
0.25
  0
CIRCLE
  8
0
 10
283.3086190917516
 20
204.35125115848007
 30
0.0
 40
0.25
  0
CIRCLE
  8
0
 10
283.3086190917516
 20
206.33920296570898
 30
0.0
 40
0.25
  0
CIRCLE
  8
0
 10
283.3086190917516
 20
208.3271547729379
 30
0.0
 40
0.25
  0
CIRCLE
  8
0
 10
283.3086190917516
 20
210.3660797034291
 30
0.0
 40
0.25
  0
CIRCLE
  8
0
 10
283.3086190917516
 20
212.35403151065802
 30
0.0
 40
0.25
  0
CIRCLE
  8
0
 10
283.3086190917516
 20
214.34198331788693
 30
0.0
 40
0.25
  0
CIRCLE
  8
0
 10
283.3086190917516
 20
216.38090824837812
 30
0.0
 40
0.25
  0
CIRCLE
  8
0
 10
283.3086190917516
 20
218.36886005560703
 30
0.0
 40
0.25
  0
CIRCLE
  8
0
 10
283.3086190917516
 20
220.40778498609822
 30
0.0
 40
0.25
  0
CIRCLE
  8
0
 10
283.3086190917516
 20
222.34476367006488
 30
0.0
 40
0.25
  0
CIRCLE
  8
0
 10
284.83781278962
 20
227.39110287303058
 30
0.0
 40
0.25
  0
CIRCLE
  8
0
 10
284.83781278962
 20
229.02224281742355
 30
0.0
 40
0.25
  0
CIRCLE
  8
0
 10
284.83781278962
 20
232.43744207599627
 30
0.0
 40
0.25
  0
CIRCLE
  8
0
 10
284.83781278962
 20
234.01760889712696
 30
0.0
 40
0.25
  0
CIRCLE
  8
0
 10
284.83781278962
 20
235.64874884151993
 30
0.0
 40
0.25
  0
CIRCLE
  8
0
 10
284.83781278962
 20
237.2289156626506
 30
0.0
 40
0.25
  0
CIRCLE
  8
0
 10
283.1047265987025
 20
183.86005560704356
 30
0.0
 40
0.25
  0
CIRCLE
  8
0
 10
283.1047265987025
 20
185.4911955514365
 30
0.0
 40
0.25
  0
CIRCLE
  8
0
 10
283.1047265987025
 20
187.0713623725672
 30
0.0
 40
0.25
  0
CIRCLE
  8
0
 10
283.1047265987025
 20
188.70250231696014
 30
0.0
 40
0.25
  0
CIRCLE
  8
0
 10
283.1047265987025
 20
190.28266913809082
 30
0.0
 40
0.25
  0
CIRCLE
  8
0
 10
283.1047265987025
 20
191.96478220574605
 30
0.0
 40
0.25
  0
CIRCLE
  8
0
 10
283.1047265987025
 20
193.69786839666358
 30
0.0
 40
0.25
  0
CIRCLE
  8
0
 10
283.1047265987025
 20
195.27803521779424
 30
0.0
 40
0.25
  0
CIRCLE
  8
0
 10
281.3206672845227
 20
200.32437442075997
 30
0.0
 40
0.25
  0
CIRCLE
  8
0
 10
281.3206672845227
 20
202.31232622798888
 30
0.0
 40
0.25
  0
CIRCLE
  8
0
 10
281.3206672845227
 20
204.35125115848007
 30
0.0
 40
0.25
  0
CIRCLE
  8
0
 10
281.3206672845227
 20
206.33920296570898
 30
0.0
 40
0.25
  0
CIRCLE
  8
0
 10
281.3206672845227
 20
208.3271547729379
 30
0.0
 40
0.25
  0
CIRCLE
  8
0
 10
281.3206672845227
 20
210.3660797034291
 30
0.0
 40
0.25
  0
CIRCLE
  8
0
 10
281.3206672845227
 20
212.35403151065802
 30
0.0
 40
0.25
  0
CIRCLE
  8
0
 10
281.3206672845227
 20
214.34198331788693
 30
0.0
 40
0.25
  0
CIRCLE
  8
0
 10
281.3206672845227
 20
216.38090824837812
 30
0.0
 40
0.25
  0
CIRCLE
  8
0
 10
281.3206672845227
 20
218.36886005560703
 30
0.0
 40
0.25
  0
CIRCLE
  8
0
 10
281.3206672845227
 20
220.40778498609822
 30
0.0
 40
0.25
  0
CIRCLE
  8
0
 10
281.3206672845227
 20
222.34476367006488
 30
0.0
 40
0.25
  0
CIRCLE
  8
0
 10
283.1047265987025
 20
227.39110287303058
 30
0.0
 40
0.25
  0
CIRCLE
  8
0
 10
283.1047265987025
 20
229.02224281742355
 30
0.0
 40
0.25
  0
CIRCLE
  8
0
 10
283.1047265987025
 20
230.70435588507877
 30
0.0
 40
0.25
  0
CIRCLE
  8
0
 10
283.1047265987025
 20
232.43744207599627
 30
0.0
 40
0.25
  0
CIRCLE
  8
0
 10
283.1047265987025
 20
234.01760889712696
 30
0.0
 40
0.25
  0
CIRCLE
  8
0
 10
283.1047265987025
 20
235.64874884151993
 30
0.0
 40
0.25
  0
CIRCLE
  8
0
 10
283.1047265987025
 20
237.2289156626506
 30
0.0
 40
0.25
  0
CIRCLE
  8
0
 10
283.1047265987025
 20
238.86005560704356
 30
0.0
 40
0.25
  0
CIRCLE
  8
0
 10
281.5245597775718
 20
183.86005560704356
 30
0.0
 40
0.25
  0
CIRCLE
  8
0
 10
281.5245597775718
 20
185.4911955514365
 30
0.0
 40
0.25
  0
CIRCLE
  8
0
 10
281.5245597775718
 20
187.0713623725672
 30
0.0
 40
0.25
  0
CIRCLE
  8
0
 10
281.5245597775718
 20
188.70250231696014
 30
0.0
 40
0.25
  0
CIRCLE
  8
0
 10
281.5245597775718
 20
190.28266913809082
 30
0.0
 40
0.25
  0
CIRCLE
  8
0
 10
281.5245597775718
 20
191.96478220574605
 30
0.0
 40
0.25
  0
CIRCLE
  8
0
 10
281.5245597775718
 20
193.69786839666358
 30
0.0
 40
0.25
  0
CIRCLE
  8
0
 10
281.5245597775718
 20
195.27803521779424
 30
0.0
 40
0.25
  0
CIRCLE
  8
0
 10
281.5245597775718
 20
227.39110287303058
 30
0.0
 40
0.25
  0
CIRCLE
  8
0
 10
281.5245597775718
 20
229.02224281742355
 30
0.0
 40
0.25
  0
CIRCLE
  8
0
 10
281.5245597775718
 20
230.70435588507877
 30
0.0
 40
0.25
  0
CIRCLE
  8
0
 10
281.5245597775718
 20
232.43744207599627
 30
0.0
 40
0.25
  0
CIRCLE
  8
0
 10
281.5245597775718
 20
234.01760889712696
 30
0.0
 40
0.25
  0
CIRCLE
  8
0
 10
281.5245597775718
 20
235.64874884151993
 30
0.0
 40
0.25
  0
CIRCLE
  8
0
 10
281.5245597775718
 20
237.2289156626506
 30
0.0
 40
0.25
  0
CIRCLE
  8
0
 10
281.5245597775718
 20
238.86005560704356
 30
0.0
 40
0.25
  0
CIRCLE
  8
0
 10
279.7914735866543
 20
185.4911955514365
 30
0.0
 40
0.25
  0
CIRCLE
  8
0
 10
279.7914735866543
 20
187.0713623725672
 30
0.0
 40
0.25
  0
CIRCLE
  8
0
 10
279.7914735866543
 20
188.70250231696014
 30
0.0
 40
0.25
  0
CIRCLE
  8
0
 10
279.7914735866543
 20
190.28266913809082
 30
0.0
 40
0.25
  0
CIRCLE
  8
0
 10
279.7914735866543
 20
193.69786839666358
 30
0.0
 40
0.25
  0
CIRCLE
  8
0
 10
279.7914735866543
 20
195.27803521779424
 30
0.0
 40
0.25
  0
CIRCLE
  8
0
 10
279.7914735866543
 20
227.39110287303058
 30
0.0
 40
0.25
  0
CIRCLE
  8
0
 10
279.7914735866543
 20
229.02224281742355
 30
0.0
 40
0.25
  0
CIRCLE
  8
0
 10
279.7914735866543
 20
232.43744207599627
 30
0.0
 40
0.25
  0
CIRCLE
  8
0
 10
279.7914735866543
 20
234.01760889712696
 30
0.0
 40
0.25
  0
CIRCLE
  8
0
 10
279.7914735866543
 20
235.64874884151993
 30
0.0
 40
0.25
  0
CIRCLE
  8
0
 10
279.7914735866543
 20
237.2289156626506
 30
0.0
 40
0.25
  0
CIRCLE
  8
0
 10
278.10936051899904
 20
183.86005560704356
 30
0.0
 40
0.25
  0
CIRCLE
  8
0
 10
278.10936051899904
 20
185.4911955514365
 30
0.0
 40
0.25
  0
CIRCLE
  8
0
 10
278.10936051899904
 20
187.0713623725672
 30
0.0
 40
0.25
  0
CIRCLE
  8
0
 10
278.10936051899904
 20
188.70250231696014
 30
0.0
 40
0.25
  0
CIRCLE
  8
0
 10
278.10936051899904
 20
190.28266913809082
 30
0.0
 40
0.25
  0
CIRCLE
  8
0
 10
278.10936051899904
 20
191.96478220574605
 30
0.0
 40
0.25
  0
CIRCLE
  8
0
 10
278.10936051899904
 20
193.69786839666358
 30
0.0
 40
0.25
  0
CIRCLE
  8
0
 10
278.10936051899904
 20
195.27803521779424
 30
0.0
 40
0.25
  0
CIRCLE
  8
0
 10
278.10936051899904
 20
227.39110287303058
 30
0.0
 40
0.25
  0
CIRCLE
  8
0
 10
278.10936051899904
 20
229.02224281742355
 30
0.0
 40
0.25
  0
CIRCLE
  8
0
 10
278.10936051899904
 20
230.70435588507877
 30
0.0
 40
0.25
  0
CIRCLE
  8
0
 10
278.10936051899904
 20
232.43744207599627
 30
0.0
 40
0.25
  0
CIRCLE
  8
0
 10
278.10936051899904
 20
234.01760889712696
 30
0.0
 40
0.25
  0
CIRCLE
  8
0
 10
278.10936051899904
 20
235.64874884151993
 30
0.0
 40
0.25
  0
CIRCLE
  8
0
 10
278.10936051899904
 20
237.2289156626506
 30
0.0
 40
0.25
  0
CIRCLE
  8
0
 10
278.10936051899904
 20
238.86005560704356
 30
0.0
 40
0.25
  0
CIRCLE
  8
0
 10
276.4782205746061
 20
183.86005560704356
 30
0.0
 40
0.25
  0
CIRCLE
  8
0
 10
276.4782205746061
 20
185.4911955514365
 30
0.0
 40
0.25
  0
CIRCLE
  8
0
 10
276.4782205746061
 20
187.0713623725672
 30
0.0
 40
0.25
  0
CIRCLE
  8
0
 10
276.4782205746061
 20
188.70250231696014
 30
0.0
 40
0.25
  0
CIRCLE
  8
0
 10
276.4782205746061
 20
190.28266913809082
 30
0.0
 40
0.25
  0
CIRCLE
  8
0
 10
276.4782205746061
 20
191.96478220574605
 30
0.0
 40
0.25
  0
CIRCLE
  8
0
 10
276.4782205746061
 20
193.69786839666358
 30
0.0
 40
0.25
  0
CIRCLE
  8
0
 10
276.274328081557
 20
195.27803521779424
 30
0.0
 40
0.25
  0
CIRCLE
  8
0
 10
276.274328081557
 20
197.11306765523634
 30
0.0
 40
0.25
  0
CIRCLE
  8
0
 10
276.274328081557
 20
198.79518072289156
 30
0.0
 40
0.25
  0
CIRCLE
  8
0
 10
276.274328081557
 20
200.5282669138091
 30
0.0
 40
0.25
  0
CIRCLE
  8
0
 10
276.274328081557
 20
202.10843373493975
 30
0.0
 40
0.25
  0
CIRCLE
  8
0
 10
276.274328081557
 20
203.84151992585726
 30
0.0
 40
0.25
  0
CIRCLE
  8
0
 10
276.274328081557
 20
205.5236329935125
 30
0.0
 40
0.25
  0
CIRCLE
  8
0
 10
276.274328081557
 20
207.15477293790545
 30
0.0
 40
0.25
  0
CIRCLE
  8
0
 10
276.274328081557
 20
208.8368860055607
 30
0.0
 40
0.25
  0
CIRCLE
  8
0
 10
276.274328081557
 20
210.5699721964782
 30
0.0
 40
0.25
  0
CIRCLE
  8
0
 10
276.274328081557
 20
212.1501390176089
 30
0.0
 40
0.25
  0
CIRCLE
  8
0
 10
276.274328081557
 20
213.8832252085264
 30
0.0
 40
0.25
  0
CIRCLE
  8
0
 10
276.274328081557
 20
215.56533827618165
 30
0.0
 40
0.25
  0
CIRCLE
  8
0
 10
276.274328081557
 20
217.1964782205746
 30
0.0
 40
0.25
  0
CIRCLE
  8
0
 10
276.274328081557
 20
218.87859128822984
 30
0.0
 40
0.25
  0
CIRCLE
  8
0
 10
276.274328081557
 20
220.56070435588506
 30
0.0
 40
0.25
  0
CIRCLE
  8
0
 10
276.274328081557
 20
222.19184430027804
 30
0.0
 40
0.25
  0
CIRCLE
  8
0
 10
276.274328081557
 20
223.87395736793326
 30
0.0
 40
0.25
  0
CIRCLE
  8
0
 10
276.274328081557
 20
225.6070435588508
 30
0.0
 40
0.25
  0
CIRCLE
  8
0
 10
276.274328081557
 20
227.39110287303058
 30
0.0
 40
0.25
  0
CIRCLE
  8
0
 10
276.4782205746061
 20
229.02224281742355
 30
0.0
 40
0.25
  0
CIRCLE
  8
0
 10
276.4782205746061
 20
230.70435588507877
 30
0.0
 40
0.25
  0
CIRCLE
  8
0
 10
276.4782205746061
 20
232.43744207599627
 30
0.0
 40
0.25
  0
CIRCLE
  8
0
 10
276.4782205746061
 20
234.01760889712696
 30
0.0
 40
0.25
  0
CIRCLE
  8
0
 10
276.4782205746061
 20
235.64874884151993
 30
0.0
 40
0.25
  0
CIRCLE
  8
0
 10
276.4782205746061
 20
237.2289156626506
 30
0.0
 40
0.25
  0
CIRCLE
  8
0
 10
276.4782205746061
 20
238.86005560704356
 30
0.0
 40
0.25
  0
CIRCLE
  8
0
 10
274.7961075069509
 20
185.4911955514365
 30
0.0
 40
0.25
  0
CIRCLE
  8
0
 10
274.7961075069509
 20
187.0713623725672
 30
0.0
 40
0.25
  0
CIRCLE
  8
0
 10
274.7961075069509
 20
188.70250231696014
 30
0.0
 40
0.25
  0
CIRCLE
  8
0
 10
274.7961075069509
 20
190.28266913809082
 30
0.0
 40
0.25
  0
CIRCLE
  8
0
 10
274.7961075069509
 20
191.96478220574605
 30
0.0
 40
0.25
  0
CIRCLE
  8
0
 10
274.6941612604263
 20
193.69786839666358
 30
0.0
 40
0.25
  0
CIRCLE
  8
0
 10
274.6941612604263
 20
195.48192771084337
 30
0.0
 40
0.25
  0
CIRCLE
  8
0
 10
274.6941612604263
 20
197.11306765523634
 30
0.0
 40
0.25
  0
CIRCLE
  8
0
 10
274.6941612604263
 20
198.79518072289156
 30
0.0
 40
0.25
  0
CIRCLE
  8
0
 10
274.6941612604263
 20
200.5282669138091
 30
0.0
 40
0.25
  0
CIRCLE
  8
0
 10
274.6941612604263
 20
202.10843373493975
 30
0.0
 40
0.25
  0
CIRCLE
  8
0
 10
274.6941612604263
 20
203.84151992585726
 30
0.0
 40
0.25
  0
CIRCLE
  8
0
 10
274.6941612604263
 20
205.5236329935125
 30
0.0
 40
0.25
  0
CIRCLE
  8
0
 10
274.6941612604263
 20
207.15477293790545
 30
0.0
 40
0.25
  0
CIRCLE
  8
0
 10
274.6941612604263
 20
208.8368860055607
 30
0.0
 40
0.25
  0
CIRCLE
  8
0
 10
274.6941612604263
 20
210.5699721964782
 30
0.0
 40
0.25
  0
CIRCLE
  8
0
 10
274.6941612604263
 20
212.1501390176089
 30
0.0
 40
0.25
  0
CIRCLE
  8
0
 10
274.6941612604263
 20
213.8832252085264
 30
0.0
 40
0.25
  0
CIRCLE
  8
0
 10
274.6941612604263
 20
215.56533827618165
 30
0.0
 40
0.25
  0
CIRCLE
  8
0
 10
274.6941612604263
 20
217.1964782205746
 30
0.0
 40
0.25
  0
CIRCLE
  8
0
 10
274.6941612604263
 20
218.87859128822984
 30
0.0
 40
0.25
  0
CIRCLE
  8
0
 10
274.6941612604263
 20
220.56070435588506
 30
0.0
 40
0.25
  0
CIRCLE
  8
0
 10
274.6941612604263
 20
222.19184430027804
 30
0.0
 40
0.25
  0
CIRCLE
  8
0
 10
274.6941612604263
 20
223.87395736793326
 30
0.0
 40
0.25
  0
CIRCLE
  8
0
 10
274.6941612604263
 20
225.6070435588508
 30
0.0
 40
0.25
  0
CIRCLE
  8
0
 10
274.6941612604263
 20
227.18721037998145
 30
0.0
 40
0.25
  0
CIRCLE
  8
0
 10
274.6941612604263
 20
229.02224281742355
 30
0.0
 40
0.25
  0
CIRCLE
  8
0
 10
274.7961075069509
 20
230.70435588507877
 30
0.0
 40
0.25
  0
CIRCLE
  8
0
 10
274.7961075069509
 20
232.43744207599627
 30
0.0
 40
0.25
  0
CIRCLE
  8
0
 10
274.7961075069509
 20
234.01760889712696
 30
0.0
 40
0.25
  0
CIRCLE
  8
0
 10
274.7961075069509
 20
235.64874884151993
 30
0.0
 40
0.25
  0
CIRCLE
  8
0
 10
274.7961075069509
 20
237.2289156626506
 30
0.0
 40
0.25
  0
CIRCLE
  8
0
 10
273.06302131603337
 20
183.86005560704356
 30
0.0
 40
0.25
  0
CIRCLE
  8
0
 10
273.06302131603337
 20
185.4911955514365
 30
0.0
 40
0.25
  0
CIRCLE
  8
0
 10
273.06302131603337
 20
187.0713623725672
 30
0.0
 40
0.25
  0
CIRCLE
  8
0
 10
273.06302131603337
 20
188.70250231696014
 30
0.0
 40
0.25
  0
CIRCLE
  8
0
 10
273.06302131603337
 20
190.28266913809082
 30
0.0
 40
0.25
  0
CIRCLE
  8
0
 10
273.0120481927711
 20
191.96478220574605
 30
0.0
 40
0.25
  0
CIRCLE
  8
0
 10
273.0120481927711
 20
193.79981464318814
 30
0.0
 40
0.25
  0
CIRCLE
  8
0
 10
273.0120481927711
 20
195.48192771084337
 30
0.0
 40
0.25
  0
CIRCLE
  8
0
 10
273.0120481927711
 20
197.11306765523634
 30
0.0
 40
0.25
  0
CIRCLE
  8
0
 10
273.0120481927711
 20
200.5282669138091
 30
0.0
 40
0.25
  0
CIRCLE
  8
0
 10
273.0120481927711
 20
202.10843373493975
 30
0.0
 40
0.25
  0
CIRCLE
  8
0
 10
273.0120481927711
 20
205.5236329935125
 30
0.0
 40
0.25
  0
CIRCLE
  8
0
 10
273.0120481927711
 20
207.15477293790545
 30
0.0
 40
0.25
  0
CIRCLE
  8
0
 10
273.0120481927711
 20
210.5699721964782
 30
0.0
 40
0.25
  0
CIRCLE
  8
0
 10
273.0120481927711
 20
212.1501390176089
 30
0.0
 40
0.25
  0
CIRCLE
  8
0
 10
273.0120481927711
 20
215.56533827618165
 30
0.0
 40
0.25
  0
CIRCLE
  8
0
 10
273.0120481927711
 20
217.1964782205746
 30
0.0
 40
0.25
  0
CIRCLE
  8
0
 10
273.0120481927711
 20
220.56070435588506
 30
0.0
 40
0.25
  0
CIRCLE
  8
0
 10
273.0120481927711
 20
222.19184430027804
 30
0.0
 40
0.25
  0
CIRCLE
  8
0
 10
273.0120481927711
 20
225.6070435588508
 30
0.0
 40
0.25
  0
CIRCLE
  8
0
 10
273.0120481927711
 20
227.18721037998145
 30
0.0
 40
0.25
  0
CIRCLE
  8
0
 10
273.0120481927711
 20
228.92029657089898
 30
0.0
 40
0.25
  0
CIRCLE
  8
0
 10
273.0120481927711
 20
230.70435588507877
 30
0.0
 40
0.25
  0
CIRCLE
  8
0
 10
273.06302131603337
 20
232.43744207599627
 30
0.0
 40
0.25
  0
CIRCLE
  8
0
 10
273.06302131603337
 20
234.01760889712696
 30
0.0
 40
0.25
  0
CIRCLE
  8
0
 10
273.06302131603337
 20
235.64874884151993
 30
0.0
 40
0.25
  0
CIRCLE
  8
0
 10
273.06302131603337
 20
237.2289156626506
 30
0.0
 40
0.25
  0
CIRCLE
  8
0
 10
273.06302131603337
 20
238.86005560704356
 30
0.0
 40
0.25
  0
CIRCLE
  8
0
 10
271.48285449490265
 20
183.86005560704356
 30
0.0
 40
0.25
  0
CIRCLE
  8
0
 10
271.48285449490265
 20
185.4911955514365
 30
0.0
 40
0.25
  0
CIRCLE
  8
0
 10
271.48285449490265
 20
187.0713623725672
 30
0.0
 40
0.25
  0
CIRCLE
  8
0
 10
271.48285449490265
 20
188.70250231696014
 30
0.0
 40
0.25
  0
CIRCLE
  8
0
 10
271.2789620018536
 20
190.28266913809082
 30
0.0
 40
0.25
  0
CIRCLE
  8
0
 10
271.2789620018536
 20
192.0667284522706
 30
0.0
 40
0.25
  0
CIRCLE
  8
0
 10
271.2789620018536
 20
193.79981464318814
 30
0.0
 40
0.25
  0
CIRCLE
  8
0
 10
271.2789620018536
 20
195.48192771084337
 30
0.0
 40
0.25
  0
CIRCLE
  8
0
 10
271.2789620018536
 20
197.11306765523634
 30
0.0
 40
0.25
  0
CIRCLE
  8
0
 10
271.2789620018536
 20
198.79518072289156
 30
0.0
 40
0.25
  0
CIRCLE
  8
0
 10
271.2789620018536
 20
200.5282669138091
 30
0.0
 40
0.25
  0
CIRCLE
  8
0
 10
271.2789620018536
 20
202.10843373493975
 30
0.0
 40
0.25
  0
CIRCLE
  8
0
 10
271.2789620018536
 20
203.84151992585726
 30
0.0
 40
0.25
  0
CIRCLE
  8
0
 10
271.2789620018536
 20
205.5236329935125
 30
0.0
 40
0.25
  0
CIRCLE
  8
0
 10
271.2789620018536
 20
207.15477293790545
 30
0.0
 40
0.25
  0
CIRCLE
  8
0
 10
271.2789620018536
 20
208.8368860055607
 30
0.0
 40
0.25
  0
CIRCLE
  8
0
 10
271.2789620018536
 20
210.5699721964782
 30
0.0
 40
0.25
  0
CIRCLE
  8
0
 10
271.2789620018536
 20
212.1501390176089
 30
0.0
 40
0.25
  0
CIRCLE
  8
0
 10
271.2789620018536
 20
213.8832252085264
 30
0.0
 40
0.25
  0
CIRCLE
  8
0
 10
271.2789620018536
 20
215.56533827618165
 30
0.0
 40
0.25
  0
CIRCLE
  8
0
 10
271.2789620018536
 20
217.1964782205746
 30
0.0
 40
0.25
  0
CIRCLE
  8
0
 10
271.2789620018536
 20
218.87859128822984
 30
0.0
 40
0.25
  0
CIRCLE
  8
0
 10
271.2789620018536
 20
220.56070435588506
 30
0.0
 40
0.25
  0
CIRCLE
  8
0
 10
271.2789620018536
 20
222.19184430027804
 30
0.0
 40
0.25
  0
CIRCLE
  8
0
 10
271.2789620018536
 20
223.87395736793326
 30
0.0
 40
0.25
  0
CIRCLE
  8
0
 10
271.2789620018536
 20
225.6070435588508
 30
0.0
 40
0.25
  0
CIRCLE
  8
0
 10
271.2789620018536
 20
227.18721037998145
 30
0.0
 40
0.25
  0
CIRCLE
  8
0
 10
271.2789620018536
 20
228.92029657089898
 30
0.0
 40
0.25
  0
CIRCLE
  8
0
 10
271.2789620018536
 20
230.6024096385542
 30
0.0
 40
0.25
  0
CIRCLE
  8
0
 10
271.2789620018536
 20
232.43744207599627
 30
0.0
 40
0.25
  0
CIRCLE
  8
0
 10
271.48285449490265
 20
234.01760889712696
 30
0.0
 40
0.25
  0
CIRCLE
  8
0
 10
271.48285449490265
 20
235.64874884151993
 30
0.0
 40
0.25
  0
CIRCLE
  8
0
 10
271.48285449490265
 20
237.2289156626506
 30
0.0
 40
0.25
  0
CIRCLE
  8
0
 10
271.48285449490265
 20
238.86005560704356
 30
0.0
 40
0.25
  0
CIRCLE
  8
0
 10
269.80074142724743
 20
185.4911955514365
 30
0.0
 40
0.25
  0
CIRCLE
  8
0
 10
269.80074142724743
 20
187.0713623725672
 30
0.0
 40
0.25
  0
CIRCLE
  8
0
 10
269.69879518072287
 20
188.70250231696014
 30
0.0
 40
0.25
  0
CIRCLE
  8
0
 10
269.69879518072287
 20
190.48656163113995
 30
0.0
 40
0.25
  0
CIRCLE
  8
0
 10
269.69879518072287
 20
192.0667284522706
 30
0.0
 40
0.25
  0
CIRCLE
  8
0
 10
269.69879518072287
 20
193.79981464318814
 30
0.0
 40
0.25
  0
CIRCLE
  8
0
 10
269.69879518072287
 20
195.48192771084337
 30
0.0
 40
0.25
  0
CIRCLE
  8
0
 10
269.69879518072287
 20
197.11306765523634
 30
0.0
 40
0.25
  0
CIRCLE
  8
0
 10
269.69879518072287
 20
198.79518072289156
 30
0.0
 40
0.25
  0
CIRCLE
  8
0
 10
269.69879518072287
 20
200.5282669138091
 30
0.0
 40
0.25
  0
CIRCLE
  8
0
 10
269.69879518072287
 20
202.10843373493975
 30
0.0
 40
0.25
  0
CIRCLE
  8
0
 10
269.69879518072287
 20
203.84151992585726
 30
0.0
 40
0.25
  0
CIRCLE
  8
0
 10
269.69879518072287
 20
205.5236329935125
 30
0.0
 40
0.25
  0
CIRCLE
  8
0
 10
269.69879518072287
 20
207.15477293790545
 30
0.0
 40
0.25
  0
CIRCLE
  8
0
 10
269.69879518072287
 20
208.8368860055607
 30
0.0
 40
0.25
  0
CIRCLE
  8
0
 10
269.69879518072287
 20
210.5699721964782
 30
0.0
 40
0.25
  0
CIRCLE
  8
0
 10
269.69879518072287
 20
212.1501390176089
 30
0.0
 40
0.25
  0
CIRCLE
  8
0
 10
269.69879518072287
 20
213.8832252085264
 30
0.0
 40
0.25
  0
CIRCLE
  8
0
 10
269.69879518072287
 20
215.56533827618165
 30
0.0
 40
0.25
  0
CIRCLE
  8
0
 10
269.69879518072287
 20
217.1964782205746
 30
0.0
 40
0.25
  0
CIRCLE
  8
0
 10
269.69879518072287
 20
218.87859128822984
 30
0.0
 40
0.25
  0
CIRCLE
  8
0
 10
269.69879518072287
 20
220.56070435588506
 30
0.0
 40
0.25
  0
CIRCLE
  8
0
 10
269.69879518072287
 20
222.19184430027804
 30
0.0
 40
0.25
  0
CIRCLE
  8
0
 10
269.69879518072287
 20
223.87395736793326
 30
0.0
 40
0.25
  0
CIRCLE
  8
0
 10
269.69879518072287
 20
225.6070435588508
 30
0.0
 40
0.25
  0
CIRCLE
  8
0
 10
269.69879518072287
 20
227.18721037998145
 30
0.0
 40
0.25
  0
CIRCLE
  8
0
 10
269.69879518072287
 20
228.92029657089898
 30
0.0
 40
0.25
  0
CIRCLE
  8
0
 10
269.69879518072287
 20
230.6024096385542
 30
0.0
 40
0.25
  0
CIRCLE
  8
0
 10
269.69879518072287
 20
232.23354958294718
 30
0.0
 40
0.25
  0
CIRCLE
  8
0
 10
269.69879518072287
 20
234.01760889712696
 30
0.0
 40
0.25
  0
CIRCLE
  8
0
 10
269.80074142724743
 20
235.64874884151993
 30
0.0
 40
0.25
  0
CIRCLE
  8
0
 10
269.80074142724743
 20
237.2289156626506
 30
0.0
 40
0.25
  0
CIRCLE
  8
0
 10
268.0676552363299
 20
183.86005560704356
 30
0.0
 40
0.25
  0
CIRCLE
  8
0
 10
268.0676552363299
 20
185.4911955514365
 30
0.0
 40
0.25
  0
CIRCLE
  8
0
 10
268.0676552363299
 20
187.0713623725672
 30
0.0
 40
0.25
  0
CIRCLE
  8
0
 10
268.0676552363299
 20
188.75347544022242
 30
0.0
 40
0.25
  0
CIRCLE
  8
0
 10
268.0676552363299
 20
190.48656163113995
 30
0.0
 40
0.25
  0
CIRCLE
  8
0
 10
268.0676552363299
 20
192.0667284522706
 30
0.0
 40
0.25
  0
CIRCLE
  8
0
 10
268.0676552363299
 20
193.79981464318814
 30
0.0
 40
0.25
  0
CIRCLE
  8
0
 10
268.0676552363299
 20
195.48192771084337
 30
0.0
 40
0.25
  0
CIRCLE
  8
0
 10
268.0676552363299
 20
197.11306765523634
 30
0.0
 40
0.25
  0
CIRCLE
  8
0
 10
268.0676552363299
 20
198.79518072289156
 30
0.0
 40
0.25
  0
CIRCLE
  8
0
 10
268.0676552363299
 20
200.5282669138091
 30
0.0
 40
0.25
  0
CIRCLE
  8
0
 10
268.0676552363299
 20
202.10843373493975
 30
0.0
 40
0.25
  0
CIRCLE
  8
0
 10
268.0676552363299
 20
203.84151992585726
 30
0.0
 40
0.25
  0
CIRCLE
  8
0
 10
268.0676552363299
 20
205.5236329935125
 30
0.0
 40
0.25
  0
CIRCLE
  8
0
 10
268.0676552363299
 20
207.15477293790545
 30
0.0
 40
0.25
  0
CIRCLE
  8
0
 10
268.0676552363299
 20
208.8368860055607
 30
0.0
 40
0.25
  0
CIRCLE
  8
0
 10
268.0676552363299
 20
210.5699721964782
 30
0.0
 40
0.25
  0
CIRCLE
  8
0
 10
268.0676552363299
 20
212.1501390176089
 30
0.0
 40
0.25
  0
CIRCLE
  8
0
 10
268.0676552363299
 20
213.8832252085264
 30
0.0
 40
0.25
  0
CIRCLE
  8
0
 10
268.0676552363299
 20
215.56533827618165
 30
0.0
 40
0.25
  0
CIRCLE
  8
0
 10
268.0676552363299
 20
217.1964782205746
 30
0.0
 40
0.25
  0
CIRCLE
  8
0
 10
268.0676552363299
 20
218.87859128822984
 30
0.0
 40
0.25
  0
CIRCLE
  8
0
 10
268.0676552363299
 20
220.56070435588506
 30
0.0
 40
0.25
  0
CIRCLE
  8
0
 10
268.0676552363299
 20
222.19184430027804
 30
0.0
 40
0.25
  0
CIRCLE
  8
0
 10
268.0676552363299
 20
223.87395736793326
 30
0.0
 40
0.25
  0
CIRCLE
  8
0
 10
268.0676552363299
 20
225.6070435588508
 30
0.0
 40
0.25
  0
CIRCLE
  8
0
 10
268.0676552363299
 20
227.18721037998145
 30
0.0
 40
0.25
  0
CIRCLE
  8
0
 10
268.0676552363299
 20
228.92029657089898
 30
0.0
 40
0.25
  0
CIRCLE
  8
0
 10
268.0676552363299
 20
230.6024096385542
 30
0.0
 40
0.25
  0
CIRCLE
  8
0
 10
268.0676552363299
 20
232.23354958294718
 30
0.0
 40
0.25
  0
CIRCLE
  8
0
 10
268.0676552363299
 20
233.9156626506024
 30
0.0
 40
0.25
  0
CIRCLE
  8
0
 10
268.0676552363299
 20
235.64874884151993
 30
0.0
 40
0.25
  0
CIRCLE
  8
0
 10
268.0676552363299
 20
237.2289156626506
 30
0.0
 40
0.25
  0
CIRCLE
  8
0
 10
268.0676552363299
 20
238.86005560704356
 30
0.0
 40
0.25
  0
CIRCLE
  8
0
 10
266.48748841519927
 20
183.86005560704356
 30
0.0
 40
0.25
  0
CIRCLE
  8
0
 10
266.48748841519927
 20
185.4911955514365
 30
0.0
 40
0.25
  0
CIRCLE
  8
0
 10
266.48748841519927
 20
187.0713623725672
 30
0.0
 40
0.25
  0
CIRCLE
  8
0
 10
266.48748841519927
 20
188.75347544022242
 30
0.0
 40
0.25
  0
CIRCLE
  8
0
 10
266.48748841519927
 20
190.48656163113995
 30
0.0
 40
0.25
  0
CIRCLE
  8
0
 10
266.48748841519927
 20
192.0667284522706
 30
0.0
 40
0.25
  0
CIRCLE
  8
0
 10
266.48748841519927
 20
193.79981464318814
 30
0.0
 40
0.25
  0
CIRCLE
  8
0
 10
266.48748841519927
 20
195.48192771084337
 30
0.0
 40
0.25
  0
CIRCLE
  8
0
 10
266.48748841519927
 20
197.11306765523634
 30
0.0
 40
0.25
  0
CIRCLE
  8
0
 10
266.48748841519927
 20
198.79518072289156
 30
0.0
 40
0.25
  0
CIRCLE
  8
0
 10
266.48748841519927
 20
200.5282669138091
 30
0.0
 40
0.25
  0
CIRCLE
  8
0
 10
266.48748841519927
 20
202.10843373493975
 30
0.0
 40
0.25
  0
CIRCLE
  8
0
 10
266.48748841519927
 20
203.84151992585726
 30
0.0
 40
0.25
  0
CIRCLE
  8
0
 10
266.48748841519927
 20
205.5236329935125
 30
0.0
 40
0.25
  0
CIRCLE
  8
0
 10
266.48748841519927
 20
207.15477293790545
 30
0.0
 40
0.25
  0
CIRCLE
  8
0
 10
266.48748841519927
 20
208.8368860055607
 30
0.0
 40
0.25
  0
CIRCLE
  8
0
 10
266.48748841519927
 20
210.5699721964782
 30
0.0
 40
0.25
  0
CIRCLE
  8
0
 10
266.48748841519927
 20
212.1501390176089
 30
0.0
 40
0.25
  0
CIRCLE
  8
0
 10
266.48748841519927
 20
213.8832252085264
 30
0.0
 40
0.25
  0
CIRCLE
  8
0
 10
266.48748841519927
 20
215.56533827618165
 30
0.0
 40
0.25
  0
CIRCLE
  8
0
 10
266.48748841519927
 20
217.1964782205746
 30
0.0
 40
0.25
  0
CIRCLE
  8
0
 10
266.48748841519927
 20
218.87859128822984
 30
0.0
 40
0.25
  0
CIRCLE
  8
0
 10
266.48748841519927
 20
220.56070435588506
 30
0.0
 40
0.25
  0
CIRCLE
  8
0
 10
266.48748841519927
 20
222.19184430027804
 30
0.0
 40
0.25
  0
CIRCLE
  8
0
 10
266.48748841519927
 20
223.87395736793326
 30
0.0
 40
0.25
  0
CIRCLE
  8
0
 10
266.48748841519927
 20
225.6070435588508
 30
0.0
 40
0.25
  0
CIRCLE
  8
0
 10
266.48748841519927
 20
227.18721037998145
 30
0.0
 40
0.25
  0
CIRCLE
  8
0
 10
266.48748841519927
 20
228.92029657089898
 30
0.0
 40
0.25
  0
CIRCLE
  8
0
 10
266.48748841519927
 20
230.6024096385542
 30
0.0
 40
0.25
  0
CIRCLE
  8
0
 10
266.48748841519927
 20
232.23354958294718
 30
0.0
 40
0.25
  0
CIRCLE
  8
0
 10
266.48748841519927
 20
233.9156626506024
 30
0.0
 40
0.25
  0
CIRCLE
  8
0
 10
266.48748841519927
 20
235.64874884151993
 30
0.0
 40
0.25
  0
CIRCLE
  8
0
 10
266.48748841519927
 20
237.2289156626506
 30
0.0
 40
0.25
  0
CIRCLE
  8
0
 10
266.48748841519927
 20
238.86005560704356
 30
0.0
 40
0.25
  0
CIRCLE
  8
0
 10
264.85634847080627
 20
185.4911955514365
 30
0.0
 40
0.25
  0
CIRCLE
  8
0
 10
264.85634847080627
 20
187.0713623725672
 30
0.0
 40
0.25
  0
CIRCLE
  8
0
 10
264.85634847080627
 20
190.48656163113995
 30
0.0
 40
0.25
  0
CIRCLE
  8
0
 10
264.85634847080627
 20
192.0667284522706
 30
0.0
 40
0.25
  0
CIRCLE
  8
0
 10
264.85634847080627
 20
195.48192771084337
 30
0.0
 40
0.25
  0
CIRCLE
  8
0
 10
264.85634847080627
 20
197.11306765523634
 30
0.0
 40
0.25
  0
CIRCLE
  8
0
 10
264.85634847080627
 20
200.5282669138091
 30
0.0
 40
0.25
  0
CIRCLE
  8
0
 10
264.85634847080627
 20
202.10843373493975
 30
0.0
 40
0.25
  0
CIRCLE
  8
0
 10
264.85634847080627
 20
205.5236329935125
 30
0.0
 40
0.25
  0
CIRCLE
  8
0
 10
264.85634847080627
 20
207.15477293790545
 30
0.0
 40
0.25
  0
CIRCLE
  8
0
 10
264.85634847080627
 20
210.5699721964782
 30
0.0
 40
0.25
  0
CIRCLE
  8
0
 10
264.85634847080627
 20
212.1501390176089
 30
0.0
 40
0.25
  0
CIRCLE
  8
0
 10
264.85634847080627
 20
215.56533827618165
 30
0.0
 40
0.25
  0
CIRCLE
  8
0
 10
264.85634847080627
 20
217.1964782205746
 30
0.0
 40
0.25
  0
CIRCLE
  8
0
 10
264.85634847080627
 20
220.56070435588506
 30
0.0
 40
0.25
  0
CIRCLE
  8
0
 10
264.85634847080627
 20
222.19184430027804
 30
0.0
 40
0.25
  0
CIRCLE
  8
0
 10
264.85634847080627
 20
225.6070435588508
 30
0.0
 40
0.25
  0
CIRCLE
  8
0
 10
264.85634847080627
 20
227.18721037998145
 30
0.0
 40
0.25
  0
CIRCLE
  8
0
 10
264.85634847080627
 20
230.6024096385542
 30
0.0
 40
0.25
  0
CIRCLE
  8
0
 10
264.85634847080627
 20
232.23354958294718
 30
0.0
 40
0.25
  0
CIRCLE
  8
0
 10
264.85634847080627
 20
235.64874884151993
 30
0.0
 40
0.25
  0
CIRCLE
  8
0
 10
264.85634847080627
 20
237.2289156626506
 30
0.0
 40
0.25
  0
LINE
 62
1
  8
0
 10
262.35634847080627
 20
181.36005560704356
 30
0.0
 11
322.35634847080627
 21
181.36005560704356
 31
0.0
  0
LINE
 62
1
  8
0
 10
322.35634847080627
 20
181.36005560704356
 30
0.0
 11
322.35634847080627
 21
241.36005560704356
 31
0.0
  0
LINE
 62
1
  8
0
 10
322.35634847080627
 20
241.36005560704356
 30
0.0
 11
262.35634847080627
 21
241.36005560704356
 31
0.0
  0
LINE
 62
1
  8
0
 10
262.35634847080627
 20
241.36005560704356
 30
0.0
 11
262.35634847080627
 21
181.36005560704356
 31
0.0
  0
ENDSEC
  0
EOF
